<svg width="1382" height="999" viewBox="0 0 1382 999" fill="none" xmlns="http://www.w3.org/2000/svg">
<g clip-path="url(#clip0)">
<path d="M844.5 682L931.5 714L1001 739L1038.5 760.5M1038.5 760.5L1105.5 770L1143 752.5L1214.5 720L1314 714H1369M1038.5 760.5L1055 846.5" stroke="#FFCB04" stroke-width="4"/>
<path d="M684.92 665L679.24 654.52V654.48C682.72 653.16 684.72 650.08 684.72 646.04C684.72 640.44 681.08 637 675.16 637H663.76V665H669.68V655.16H673.28L678.56 665H684.92ZM674.44 649.76H669.68V642.4H674.44C677.36 642.4 678.8 643.6 678.8 646C678.8 648.44 677.28 649.76 674.44 649.76ZM684.463 637L694.543 665H700.503L710.623 637H704.343L697.583 656.72H697.503L690.703 637H684.463ZM733.886 665L728.206 654.52V654.48C731.686 653.16 733.686 650.08 733.686 646.04C733.686 640.44 730.046 637 724.126 637H712.726V665H718.646V655.16H722.246L727.526 665H733.886ZM723.406 649.76H718.646V642.4H723.406C726.326 642.4 727.766 643.6 727.766 646C727.766 648.44 726.246 649.76 723.406 649.76ZM735.648 651C735.648 659.84 740.528 665.6 748.008 665.6C754.128 665.6 758.528 661.48 759.248 655.2L753.448 654.2C752.928 658.08 751.008 660.2 748.008 660.2C743.968 660.2 741.568 656.76 741.568 651C741.568 645.24 743.968 641.8 748.008 641.8C750.848 641.8 752.768 643.8 753.368 647.36L759.168 646.4C758.528 640.48 753.928 636.4 748.008 636.4C740.528 636.4 735.648 642.16 735.648 651Z" fill="#00FFFF"/>
<path d="M466.336 138.344C466.336 141.224 469.192 143.36 473.2 143.36C477.208 143.36 480.064 141.224 480.064 138.344C480.064 136.496 478.864 134.912 477.112 134.168V134.12C478.456 133.424 479.176 132.344 479.176 131C479.176 128.456 476.728 126.512 473.2 126.512C469.672 126.512 467.224 128.456 467.224 131C467.224 132.344 467.944 133.424 469.288 134.12V134.168C467.536 134.912 466.336 136.496 466.336 138.344ZM475.72 131.24C475.72 132.296 474.664 133.04 473.2 133.04C471.736 133.04 470.68 132.296 470.68 131.24C470.68 130.16 471.688 129.416 473.2 129.416C474.712 129.416 475.72 130.16 475.72 131.24ZM476.296 137.96C476.296 139.328 475.144 140.096 473.2 140.096C471.256 140.096 470.104 139.328 470.104 137.96C470.104 136.64 471.28 135.776 473.2 135.776C475.12 135.776 476.296 136.64 476.296 137.96ZM487.708 130.28V143H491.02V135.296C491.02 133.928 491.812 133.04 493.06 133.04C494.308 133.04 495.1 133.856 495.1 135.224V143H498.268V135.296C498.268 133.928 499.084 133.04 500.332 133.04C501.58 133.04 502.372 133.856 502.372 135.224V143H505.684V134.576C505.684 132.008 503.788 129.92 500.98 129.92C499.588 129.92 498.46 130.448 497.572 131.48H497.524C496.852 130.496 495.532 129.92 494.26 129.92C492.916 129.92 491.62 130.472 490.924 131.408H490.876V130.28H487.708ZM507.934 130.28V143H511.366V130.28H507.934ZM507.886 124.832V128.192H511.366V124.832H507.886ZM513.747 130.28V143H517.179V135.464C517.179 134 518.043 133.088 519.483 133.088C520.947 133.088 521.787 133.952 521.787 135.464V143H525.219V134.864C525.219 133.352 524.787 132.152 523.923 131.264C523.083 130.376 521.955 129.92 520.563 129.92C519.147 129.92 517.803 130.472 517.059 131.408H517.011V130.28H513.747ZM527.265 138.656C527.265 141.608 528.945 143.36 531.825 143.36C533.193 143.36 534.513 142.808 535.257 141.872H535.305V143H538.569V130.28H535.137V137.864C535.137 139.304 534.273 140.216 532.905 140.216C531.441 140.216 530.697 139.424 530.697 137.864V130.28H527.265V138.656ZM545.494 133.304H548.638V130.28H545.494V127.088H542.062V130.28H539.878V133.304H542.062V138.896C542.062 141.848 543.31 143 546.454 143H548.182V139.712H546.79C545.806 139.712 545.494 139.472 545.494 138.68V133.304ZM549.337 136.64C549.337 140.648 551.833 143.36 555.409 143.36C557.833 143.36 559.681 142.4 560.905 140.48L558.481 138.584C557.593 139.904 556.657 140.48 555.409 140.48C553.849 140.48 552.889 139.448 552.793 137.648H561.313V136.64C561.313 132.632 558.865 129.92 555.337 129.92C551.833 129.92 549.337 132.68 549.337 136.64ZM557.977 135.224H552.793C552.913 133.76 553.945 132.8 555.361 132.8C556.921 132.8 557.857 133.688 557.977 135.224ZM562.222 138.896C562.774 141.776 564.91 143.36 568.174 143.36C569.734 143.36 570.958 143 571.894 142.28C572.83 141.536 573.286 140.576 573.286 139.4C573.286 138.488 573.046 137.744 572.566 137.168C571.606 136.016 570.358 135.584 568.366 135.008C566.71 134.528 566.086 134.288 566.086 133.712C566.086 133.136 566.71 132.704 567.694 132.704C568.774 132.704 569.638 133.328 570.046 134.552L573.07 133.664C572.758 132.536 572.11 131.648 571.126 130.952C570.142 130.256 568.99 129.92 567.694 129.92C564.958 129.92 562.894 131.6 562.894 133.76C563.014 136.256 564.694 136.928 567.334 137.672C568.03 137.888 568.534 138.08 568.87 138.224C569.566 138.488 570.094 138.872 570.094 139.52C570.094 140.168 569.398 140.552 568.174 140.552C566.542 140.552 565.678 139.808 565.27 138.08L562.222 138.896Z" fill="#FFCB04"/>
<path d="M584.483 131.96H587.603V130.28H584.483V127.4H582.611V130.28H580.691V131.96H582.611V140.072C582.611 142.256 583.427 143 585.731 143H586.931V141.248H585.875C584.843 141.248 584.483 140.936 584.483 140.096V131.96ZM588.698 136.64C588.698 140.648 591.098 143.36 594.674 143.36C598.274 143.36 600.674 140.648 600.674 136.64C600.674 132.632 598.274 129.92 594.674 129.92C591.098 129.92 588.698 132.632 588.698 136.64ZM598.802 136.64C598.802 139.688 597.194 141.608 594.674 141.608C592.154 141.608 590.57 139.688 590.57 136.64C590.57 133.592 592.154 131.672 594.674 131.672C597.194 131.672 598.802 133.592 598.802 136.64ZM468.048 166.608C468.048 171.568 471.248 174.48 476.656 174.48C482.064 174.48 485.264 171.568 485.264 166.608V151.6H480.528V166.352C480.528 168.912 479.248 170.16 476.656 170.16C474.064 170.16 472.784 168.88 472.784 166.288V151.6H468.048V166.608ZM488.913 157.04V174H493.489V163.952C493.489 162 494.641 160.784 496.561 160.784C498.513 160.784 499.633 161.936 499.633 163.952V174H504.208V163.152C504.208 161.136 503.633 159.536 502.481 158.352C501.361 157.168 499.857 156.56 498.001 156.56C496.113 156.56 494.321 157.296 493.329 158.544H493.265V157.04H488.913ZM507.256 157.04V174H511.832V157.04H507.256ZM507.192 149.776V154.256H511.832V149.776H507.192ZM513.406 157.04L520.478 174H524.702L531.774 157.04H526.91L522.622 168.016H522.558L518.27 157.04H513.406ZM531.772 165.52C531.772 170.864 535.1 174.48 539.868 174.48C543.1 174.48 545.564 173.2 547.196 170.64L543.964 168.112C542.78 169.872 541.532 170.64 539.868 170.64C537.788 170.64 536.508 169.264 536.38 166.864H547.74V165.52C547.74 160.176 544.476 156.56 539.772 156.56C535.1 156.56 531.772 160.24 531.772 165.52ZM543.292 163.632H536.38C536.54 161.68 537.916 160.4 539.804 160.4C541.884 160.4 543.132 161.584 543.292 163.632ZM550.256 157.04V174H554.832V164.88C554.832 162.416 555.856 161.104 557.808 161.104C558.416 161.104 559.024 161.2 559.696 161.36L560.464 157.008C559.792 156.816 559.056 156.72 558.256 156.72C556.624 156.72 555.376 157.392 554.608 158.544H554.544V157.04H550.256ZM560.296 168.528C561.032 172.368 563.88 174.48 568.232 174.48C570.312 174.48 571.944 174 573.192 173.04C574.44 172.048 575.048 170.768 575.048 169.2C575.048 167.984 574.728 166.992 574.088 166.224C572.808 164.688 571.144 164.112 568.488 163.344C566.28 162.704 565.448 162.384 565.448 161.616C565.448 160.848 566.28 160.272 567.592 160.272C569.032 160.272 570.184 161.104 570.728 162.736L574.76 161.552C574.344 160.048 573.48 158.864 572.168 157.936C570.856 157.008 569.32 156.56 567.592 156.56C563.944 156.56 561.192 158.8 561.192 161.68C561.352 165.008 563.592 165.904 567.112 166.896C568.04 167.184 568.712 167.44 569.16 167.632C570.088 167.984 570.792 168.496 570.792 169.36C570.792 170.224 569.864 170.736 568.232 170.736C566.056 170.736 564.904 169.744 564.36 167.44L560.296 168.528ZM577.256 157.04V174H581.832V157.04H577.256ZM577.192 149.776V154.256H581.832V149.776H577.192ZM591.054 161.072H595.246V157.04H591.054V152.784H586.478V157.04H583.566V161.072H586.478V168.528C586.478 172.464 588.142 174 592.334 174H594.638V169.616H592.782C591.47 169.616 591.054 169.296 591.054 168.24V161.072ZM602.372 173.136L599.044 181.2H603.748L613.508 157.04H608.804L604.708 167.792H604.644L600.58 157.04H595.844L602.372 173.136ZM626.358 155.952V174H631.094V155.952H637.558V151.6H619.862V155.952H626.358ZM635.741 165.52C635.741 170.832 639.165 174.48 644.125 174.48C649.117 174.48 652.541 170.864 652.541 165.52C652.541 160.176 649.117 156.56 644.125 156.56C639.165 156.56 635.741 160.208 635.741 165.52ZM647.965 165.52C647.965 168.56 646.557 170.32 644.125 170.32C641.725 170.32 640.317 168.56 640.317 165.52C640.317 162.48 641.725 160.72 644.125 160.72C646.557 160.72 647.965 162.48 647.965 165.52ZM653.324 157.04L657.132 174H661.708L665.58 162.352H665.644L669.516 174H674.06L677.9 157.04H673.356L671.18 167.856H671.116L667.596 157.04H663.628L660.076 167.856H660.012L657.868 157.04H653.324ZM679.944 157.04V174H684.52V163.952C684.52 162 685.672 160.784 687.592 160.784C689.544 160.784 690.664 161.936 690.664 163.952V174H695.24V163.152C695.24 161.136 694.664 159.536 693.512 158.352C692.392 157.168 690.888 156.56 689.032 156.56C687.144 156.56 685.352 157.296 684.36 158.544H684.296V157.04H679.944Z" fill="white"/>
<path d="M694.208 370.856C694.208 370.304 694.28 370.04 694.496 369.752C694.664 369.536 694.928 369.32 695.312 369.104C695.72 368.888 696.56 368.504 697.832 367.952C701.096 366.512 702.584 364.904 702.584 362.528C702.584 359.648 700.112 357.512 696.632 357.512C692.792 357.512 690.272 359.696 690.056 363.32L693.464 363.584C693.632 361.664 694.736 360.632 696.632 360.632C698.192 360.632 699.152 361.352 699.152 362.504C699.152 363.704 698.288 364.424 695.408 365.648C693.368 366.512 692.12 367.304 691.328 368.24C690.632 369.032 690.296 370.16 690.296 371.624V374H702.44V370.856H694.208ZM710.989 361.28V374H714.301V366.296C714.301 364.928 715.093 364.04 716.341 364.04C717.589 364.04 718.381 364.856 718.381 366.224V374H721.549V366.296C721.549 364.928 722.365 364.04 723.613 364.04C724.861 364.04 725.653 364.856 725.653 366.224V374H728.965V365.576C728.965 363.008 727.069 360.92 724.261 360.92C722.869 360.92 721.741 361.448 720.853 362.48H720.805C720.133 361.496 718.813 360.92 717.541 360.92C716.197 360.92 714.901 361.472 714.205 362.408H714.157V361.28H710.989ZM731.216 361.28V374H734.648V361.28H731.216ZM731.168 355.832V359.192H734.648V355.832H731.168ZM737.028 361.28V374H740.46V366.464C740.46 365 741.324 364.088 742.764 364.088C744.228 364.088 745.068 364.952 745.068 366.464V374H748.5V365.864C748.5 364.352 748.068 363.152 747.204 362.264C746.364 361.376 745.236 360.92 743.844 360.92C742.428 360.92 741.084 361.472 740.34 362.408H740.292V361.28H737.028ZM750.546 369.656C750.546 372.608 752.226 374.36 755.106 374.36C756.474 374.36 757.794 373.808 758.538 372.872H758.586V374H761.85V361.28H758.418V368.864C758.418 370.304 757.554 371.216 756.186 371.216C754.722 371.216 753.978 370.424 753.978 368.864V361.28H750.546V369.656ZM768.775 364.304H771.919V361.28H768.775V358.088H765.343V361.28H763.159V364.304H765.343V369.896C765.343 372.848 766.591 374 769.735 374H771.463V370.712H770.071C769.087 370.712 768.775 370.472 768.775 369.68V364.304ZM772.618 367.64C772.618 371.648 775.114 374.36 778.69 374.36C781.114 374.36 782.962 373.4 784.186 371.48L781.762 369.584C780.874 370.904 779.938 371.48 778.69 371.48C777.13 371.48 776.17 370.448 776.074 368.648H784.594V367.64C784.594 363.632 782.146 360.92 778.618 360.92C775.114 360.92 772.618 363.68 772.618 367.64ZM781.258 366.224H776.074C776.194 364.76 777.226 363.8 778.642 363.8C780.202 363.8 781.138 364.688 781.258 366.224ZM785.503 369.896C786.055 372.776 788.191 374.36 791.455 374.36C793.015 374.36 794.239 374 795.175 373.28C796.111 372.536 796.567 371.576 796.567 370.4C796.567 369.488 796.327 368.744 795.847 368.168C794.887 367.016 793.639 366.584 791.647 366.008C789.991 365.528 789.367 365.288 789.367 364.712C789.367 364.136 789.991 363.704 790.975 363.704C792.055 363.704 792.919 364.328 793.327 365.552L796.351 364.664C796.039 363.536 795.391 362.648 794.407 361.952C793.423 361.256 792.271 360.92 790.975 360.92C788.239 360.92 786.175 362.6 786.175 364.76C786.295 367.256 787.975 367.928 790.615 368.672C791.311 368.888 791.815 369.08 792.151 369.224C792.847 369.488 793.375 369.872 793.375 370.52C793.375 371.168 792.679 371.552 791.455 371.552C789.823 371.552 788.959 370.808 788.551 369.08L785.503 369.896Z" fill="#FFCB04"/>
<path d="M807.764 362.96H810.884V361.28H807.764V358.4H805.892V361.28H803.972V362.96H805.892V371.072C805.892 373.256 806.708 374 809.012 374H810.212V372.248H809.156C808.124 372.248 807.764 371.936 807.764 371.096V362.96ZM811.979 367.64C811.979 371.648 814.379 374.36 817.955 374.36C821.555 374.36 823.955 371.648 823.955 367.64C823.955 363.632 821.555 360.92 817.955 360.92C814.379 360.92 811.979 363.632 811.979 367.64ZM822.083 367.64C822.083 370.688 820.475 372.608 817.955 372.608C815.435 372.608 813.851 370.688 813.851 367.64C813.851 364.592 815.435 362.672 817.955 362.672C820.475 362.672 822.083 364.592 822.083 367.64ZM691.048 397.608C691.048 402.568 694.248 405.48 699.656 405.48C705.064 405.48 708.264 402.568 708.264 397.608V382.6H703.528V397.352C703.528 399.912 702.248 401.16 699.656 401.16C697.064 401.16 695.784 399.88 695.784 397.288V382.6H691.048V397.608ZM711.913 388.04V405H716.489V394.952C716.489 393 717.641 391.784 719.561 391.784C721.513 391.784 722.633 392.936 722.633 394.952V405H727.208V394.152C727.208 392.136 726.633 390.536 725.481 389.352C724.361 388.168 722.857 387.56 721.001 387.56C719.113 387.56 717.321 388.296 716.329 389.544H716.265V388.04H711.913ZM730.256 388.04V405H734.832V388.04H730.256ZM730.192 380.776V385.256H734.832V380.776H730.192ZM736.406 388.04L743.478 405H747.702L754.774 388.04H749.91L745.622 399.016H745.558L741.27 388.04H736.406ZM754.772 396.52C754.772 401.864 758.1 405.48 762.868 405.48C766.1 405.48 768.564 404.2 770.196 401.64L766.964 399.112C765.78 400.872 764.532 401.64 762.868 401.64C760.788 401.64 759.508 400.264 759.38 397.864H770.74V396.52C770.74 391.176 767.476 387.56 762.772 387.56C758.1 387.56 754.772 391.24 754.772 396.52ZM766.292 394.632H759.38C759.54 392.68 760.916 391.4 762.804 391.4C764.884 391.4 766.132 392.584 766.292 394.632ZM773.256 388.04V405H777.832V395.88C777.832 393.416 778.856 392.104 780.808 392.104C781.416 392.104 782.024 392.2 782.696 392.36L783.464 388.008C782.792 387.816 782.056 387.72 781.256 387.72C779.624 387.72 778.376 388.392 777.608 389.544H777.544V388.04H773.256ZM783.296 399.528C784.032 403.368 786.88 405.48 791.232 405.48C793.312 405.48 794.944 405 796.192 404.04C797.44 403.048 798.048 401.768 798.048 400.2C798.048 398.984 797.728 397.992 797.088 397.224C795.808 395.688 794.144 395.112 791.488 394.344C789.28 393.704 788.448 393.384 788.448 392.616C788.448 391.848 789.28 391.272 790.592 391.272C792.032 391.272 793.184 392.104 793.728 393.736L797.76 392.552C797.344 391.048 796.48 389.864 795.168 388.936C793.856 388.008 792.32 387.56 790.592 387.56C786.944 387.56 784.192 389.8 784.192 392.68C784.352 396.008 786.592 396.904 790.112 397.896C791.04 398.184 791.712 398.44 792.16 398.632C793.088 398.984 793.792 399.496 793.792 400.36C793.792 401.224 792.864 401.736 791.232 401.736C789.056 401.736 787.904 400.744 787.36 398.44L783.296 399.528ZM800.256 388.04V405H804.832V388.04H800.256ZM800.192 380.776V385.256H804.832V380.776H800.192ZM814.054 392.072H818.246V388.04H814.054V383.784H809.478V388.04H806.566V392.072H809.478V399.528C809.478 403.464 811.142 405 815.334 405H817.638V400.616H815.782C814.47 400.616 814.054 400.296 814.054 399.24V392.072ZM825.372 404.136L822.044 412.2H826.748L836.508 388.04H831.804L827.708 398.792H827.644L823.58 388.04H818.844L825.372 404.136ZM689.608 428.608C690.408 433.728 693.736 436.48 699.08 436.48C703.976 436.48 707.336 433.888 707.336 430.016C707.336 428.192 706.728 426.72 705.544 425.536C704.36 424.352 702.376 423.296 699.592 422.336C696.264 421.216 695.304 420.576 695.304 419.424C695.304 418.176 696.456 417.376 698.216 417.376C700.264 417.376 701.512 418.432 702.12 420.704L706.728 419.712C706.024 415.776 702.6 413.12 698.216 413.12C693.768 413.12 690.632 415.712 690.632 419.456C690.632 421.088 691.176 422.464 692.264 423.52C693.352 424.576 695.208 425.536 697.8 426.4C701.544 427.68 702.6 428.448 702.6 430.016C702.6 431.424 701.352 432.224 699.144 432.224C696.168 432.224 694.856 430.944 694.248 427.616L689.608 428.608ZM709.538 419.04V443.2H714.114V434.816H714.178C715.074 435.84 716.738 436.48 718.53 436.48C722.882 436.48 726.082 432.672 726.082 427.52C726.082 422.368 722.882 418.56 718.498 418.56C716.674 418.56 715.106 419.168 713.986 420.224H713.922V419.04H709.538ZM721.506 427.52C721.506 430.56 720.098 432.32 717.634 432.32C715.586 432.32 714.114 430.784 714.114 428.736V426.304C714.114 424.224 715.586 422.752 717.634 422.752C720.098 422.752 721.506 424.48 721.506 427.52ZM727.928 427.52C727.928 432.832 731.352 436.48 736.312 436.48C741.304 436.48 744.728 432.864 744.728 427.52C744.728 422.176 741.304 418.56 736.312 418.56C731.352 418.56 727.928 422.208 727.928 427.52ZM740.152 427.52C740.152 430.56 738.744 432.32 736.312 432.32C733.912 432.32 732.504 430.56 732.504 427.52C732.504 424.48 733.912 422.72 736.312 422.72C738.744 422.72 740.152 424.48 740.152 427.52ZM747.256 419.04V436H751.832V426.88C751.832 424.416 752.856 423.104 754.808 423.104C755.416 423.104 756.024 423.2 756.696 423.36L757.464 419.008C756.792 418.816 756.056 418.72 755.256 418.72C753.624 418.72 752.376 419.392 751.608 420.544H751.544V419.04H747.256ZM765.617 423.072H769.809V419.04H765.617V414.784H761.041V419.04H758.129V423.072H761.041V430.528C761.041 434.464 762.705 436 766.897 436H769.201V431.616H767.345C766.033 431.616 765.617 431.296 765.617 430.24V423.072ZM770.389 430.528C771.125 434.368 773.973 436.48 778.325 436.48C780.405 436.48 782.037 436 783.285 435.04C784.533 434.048 785.141 432.768 785.141 431.2C785.141 429.984 784.821 428.992 784.181 428.224C782.901 426.688 781.237 426.112 778.581 425.344C776.373 424.704 775.541 424.384 775.541 423.616C775.541 422.848 776.373 422.272 777.685 422.272C779.125 422.272 780.277 423.104 780.821 424.736L784.853 423.552C784.437 422.048 783.573 420.864 782.261 419.936C780.949 419.008 779.413 418.56 777.685 418.56C774.037 418.56 771.285 420.8 771.285 423.68C771.445 427.008 773.685 427.904 777.205 428.896C778.133 429.184 778.805 429.44 779.253 429.632C780.181 429.984 780.885 430.496 780.885 431.36C780.885 432.224 779.957 432.736 778.325 432.736C776.149 432.736 774.997 431.744 774.453 429.44L770.389 430.528ZM794.209 424.8C794.209 431.872 798.113 436.48 804.097 436.48C808.993 436.48 812.513 433.184 813.089 428.16L808.449 427.36C808.033 430.464 806.497 432.16 804.097 432.16C800.865 432.16 798.945 429.408 798.945 424.8C798.945 420.192 800.865 417.44 804.097 417.44C806.369 417.44 807.905 419.04 808.385 421.888L813.025 421.12C812.513 416.384 808.833 413.12 804.097 413.12C798.113 413.12 794.209 417.728 794.209 424.8ZM814.584 427.52C814.584 432.864 817.912 436.48 822.68 436.48C825.912 436.48 828.376 435.2 830.008 432.64L826.776 430.112C825.592 431.872 824.344 432.64 822.68 432.64C820.6 432.64 819.32 431.264 819.192 428.864H830.552V427.52C830.552 422.176 827.288 418.56 822.584 418.56C817.912 418.56 814.584 422.24 814.584 427.52ZM826.104 425.632H819.192C819.352 423.68 820.728 422.4 822.616 422.4C824.696 422.4 825.944 423.584 826.104 425.632ZM833.069 419.04V436H837.645V425.952C837.645 424 838.797 422.784 840.717 422.784C842.669 422.784 843.789 423.936 843.789 425.952V436H848.365V425.152C848.365 423.136 847.789 421.536 846.637 420.352C845.517 419.168 844.013 418.56 842.157 418.56C840.269 418.56 838.477 419.296 837.485 420.544H837.421V419.04H833.069ZM857.148 423.072H861.34V419.04H857.148V414.784H852.572V419.04H849.66V423.072H852.572V430.528C852.572 434.464 854.236 436 858.428 436H860.732V431.616H858.876C857.564 431.616 857.148 431.296 857.148 430.24V423.072ZM863.538 419.04V436H868.114V426.88C868.114 424.416 869.138 423.104 871.09 423.104C871.698 423.104 872.306 423.2 872.978 423.36L873.746 419.008C873.074 418.816 872.338 418.72 871.538 418.72C869.906 418.72 868.658 419.392 867.89 420.544H867.826V419.04H863.538ZM873.897 427.52C873.897 432.864 877.225 436.48 881.993 436.48C885.225 436.48 887.689 435.2 889.321 432.64L886.089 430.112C884.905 431.872 883.657 432.64 881.993 432.64C879.913 432.64 878.633 431.264 878.505 428.864H889.865V427.52C889.865 422.176 886.601 418.56 881.897 418.56C877.225 418.56 873.897 422.24 873.897 427.52ZM885.417 425.632H878.505C878.665 423.68 880.041 422.4 881.929 422.4C884.009 422.4 885.257 423.584 885.417 425.632Z" fill="white"/>
<path d="M746.2 492.28V505H749.632V498.16C749.632 496.312 750.4 495.328 751.864 495.328C752.32 495.328 752.776 495.4 753.28 495.52L753.856 492.256C753.352 492.112 752.8 492.04 752.2 492.04C750.976 492.04 750.04 492.544 749.464 493.408H749.416V492.28H746.2ZM755.177 492.28V505H758.609V492.28H755.177ZM755.129 486.832V490.192H758.609V486.832H755.129ZM761.061 507.784C762.285 509.632 764.469 510.76 766.869 510.76C770.541 510.76 772.917 508.552 772.917 505.024V492.28H769.605V493.288H769.557C768.789 492.496 767.589 492.04 766.173 492.04C762.885 492.04 760.485 494.848 760.485 498.616C760.485 502.48 762.885 505.336 766.173 505.336C767.589 505.336 768.957 504.76 769.557 503.968H769.605V504.904C769.605 506.656 768.597 507.736 766.893 507.736C765.525 507.736 764.637 507.208 763.653 505.84L761.061 507.784ZM769.485 499.528C769.485 501.088 768.381 502.192 766.821 502.192C764.997 502.192 763.917 500.848 763.917 498.616C763.917 496.432 764.997 495.16 766.821 495.16C768.357 495.16 769.485 496.264 769.485 497.824V499.528ZM775.169 487.48V505H778.601V497.464C778.601 496 779.465 495.088 780.905 495.088C782.369 495.088 783.209 495.952 783.209 497.464V505H786.641V496.624C786.641 493.84 784.721 491.92 781.985 491.92C780.617 491.92 779.345 492.472 778.649 493.408H778.601V487.48H775.169ZM793.228 495.304H796.372V492.28H793.228V489.088H789.796V492.28H787.612V495.304H789.796V500.896C789.796 503.848 791.044 505 794.188 505H795.916V501.712H794.524C793.54 501.712 793.228 501.472 793.228 500.68V495.304ZM803.051 501.544C803.051 503.848 804.707 505.36 807.227 505.36C808.763 505.36 809.963 504.88 810.563 503.992H810.611V505H813.683V496.744C813.683 493.768 811.667 491.92 808.475 491.92C807.011 491.92 805.763 492.304 804.731 493.072C803.699 493.84 803.099 494.848 802.907 496.12L806.051 496.816C806.315 495.496 807.155 494.776 808.475 494.776C809.603 494.776 810.227 495.208 810.227 495.952C810.227 496.624 809.603 496.984 807.587 497.464C804.323 498.256 803.051 499.408 803.051 501.544ZM810.347 500.704C810.347 501.76 809.339 502.48 807.899 502.48C806.867 502.48 806.339 502.096 806.339 501.328C806.339 500.656 806.867 500.272 808.403 499.864C809.555 499.552 810.083 499.24 810.299 498.856H810.347V500.704ZM815.446 498.64C815.446 502.624 818.038 505.36 821.614 505.36C824.686 505.36 826.894 503.536 827.35 500.656L824.11 500.08C823.846 501.496 823.03 502.24 821.614 502.24C819.91 502.24 818.878 500.92 818.878 498.64C818.878 496.36 819.91 495.04 821.614 495.04C822.982 495.04 823.846 495.784 824.11 497.2L827.35 496.624C826.894 493.744 824.686 491.92 821.614 491.92C818.038 491.92 815.446 494.656 815.446 498.64ZM829.145 492.28V505H832.577V498.16C832.577 496.312 833.345 495.328 834.809 495.328C835.265 495.328 835.721 495.4 836.225 495.52L836.801 492.256C836.297 492.112 835.745 492.04 835.145 492.04C833.921 492.04 832.985 492.544 832.409 493.408H832.361V492.28H829.145ZM836.915 498.64C836.915 502.624 839.483 505.36 843.203 505.36C846.947 505.36 849.515 502.648 849.515 498.64C849.515 494.632 846.947 491.92 843.203 491.92C839.483 491.92 836.915 494.656 836.915 498.64ZM846.083 498.64C846.083 500.92 845.027 502.24 843.203 502.24C841.403 502.24 840.347 500.92 840.347 498.64C840.347 496.36 841.403 495.04 843.203 495.04C845.027 495.04 846.083 496.36 846.083 498.64ZM850.433 500.896C850.985 503.776 853.121 505.36 856.385 505.36C857.945 505.36 859.169 505 860.105 504.28C861.041 503.536 861.497 502.576 861.497 501.4C861.497 500.488 861.257 499.744 860.777 499.168C859.817 498.016 858.569 497.584 856.577 497.008C854.921 496.528 854.297 496.288 854.297 495.712C854.297 495.136 854.921 494.704 855.905 494.704C856.985 494.704 857.849 495.328 858.257 496.552L861.281 495.664C860.969 494.536 860.321 493.648 859.337 492.952C858.353 492.256 857.201 491.92 855.905 491.92C853.169 491.92 851.105 493.6 851.105 495.76C851.225 498.256 852.905 498.928 855.545 499.672C856.241 499.888 856.745 500.08 857.081 500.224C857.777 500.488 858.305 500.872 858.305 501.52C858.305 502.168 857.609 502.552 856.385 502.552C854.753 502.552 853.889 501.808 853.481 500.08L850.433 500.896ZM862.198 500.896C862.75 503.776 864.886 505.36 868.15 505.36C869.71 505.36 870.934 505 871.87 504.28C872.806 503.536 873.262 502.576 873.262 501.4C873.262 500.488 873.022 499.744 872.542 499.168C871.582 498.016 870.334 497.584 868.342 497.008C866.686 496.528 866.062 496.288 866.062 495.712C866.062 495.136 866.686 494.704 867.67 494.704C868.75 494.704 869.614 495.328 870.022 496.552L873.046 495.664C872.734 494.536 872.086 493.648 871.102 492.952C870.118 492.256 868.966 491.92 867.67 491.92C864.934 491.92 862.87 493.6 862.87 495.76C862.99 498.256 864.67 498.928 867.31 499.672C868.006 499.888 868.51 500.08 868.846 500.224C869.542 500.488 870.07 500.872 870.07 501.52C870.07 502.168 869.374 502.552 868.15 502.552C866.518 502.552 865.654 501.808 865.246 500.08L862.198 500.896Z" fill="#FFCB04"/>
<path d="M747.048 528.608C747.048 533.568 750.248 536.48 755.656 536.48C761.064 536.48 764.264 533.568 764.264 528.608V513.6H759.528V528.352C759.528 530.912 758.248 532.16 755.656 532.16C753.064 532.16 751.784 530.88 751.784 528.288V513.6H747.048V528.608ZM767.913 519.04V536H772.489V525.952C772.489 524 773.641 522.784 775.561 522.784C777.513 522.784 778.633 523.936 778.633 525.952V536H783.208V525.152C783.208 523.136 782.633 521.536 781.481 520.352C780.361 519.168 778.857 518.56 777.001 518.56C775.113 518.56 773.321 519.296 772.329 520.544H772.265V519.04H767.913ZM786.256 519.04V536H790.832V519.04H786.256ZM786.192 511.776V516.256H790.832V511.776H786.192ZM792.406 519.04L799.478 536H803.702L810.774 519.04H805.91L801.622 530.016H801.558L797.27 519.04H792.406ZM810.772 527.52C810.772 532.864 814.1 536.48 818.868 536.48C822.1 536.48 824.564 535.2 826.196 532.64L822.964 530.112C821.78 531.872 820.532 532.64 818.868 532.64C816.788 532.64 815.508 531.264 815.38 528.864H826.74V527.52C826.74 522.176 823.476 518.56 818.772 518.56C814.1 518.56 810.772 522.24 810.772 527.52ZM822.292 525.632H815.38C815.54 523.68 816.916 522.4 818.804 522.4C820.884 522.4 822.132 523.584 822.292 525.632ZM829.256 519.04V536H833.832V526.88C833.832 524.416 834.856 523.104 836.808 523.104C837.416 523.104 838.024 523.2 838.696 523.36L839.464 519.008C838.792 518.816 838.056 518.72 837.256 518.72C835.624 518.72 834.376 519.392 833.608 520.544H833.544V519.04H829.256ZM839.296 530.528C840.032 534.368 842.88 536.48 847.232 536.48C849.312 536.48 850.944 536 852.192 535.04C853.44 534.048 854.048 532.768 854.048 531.2C854.048 529.984 853.728 528.992 853.088 528.224C851.808 526.688 850.144 526.112 847.488 525.344C845.28 524.704 844.448 524.384 844.448 523.616C844.448 522.848 845.28 522.272 846.592 522.272C848.032 522.272 849.184 523.104 849.728 524.736L853.76 523.552C853.344 522.048 852.48 520.864 851.168 519.936C849.856 519.008 848.32 518.56 846.592 518.56C842.944 518.56 840.192 520.8 840.192 523.68C840.352 527.008 842.592 527.904 846.112 528.896C847.04 529.184 847.712 529.44 848.16 529.632C849.088 529.984 849.792 530.496 849.792 531.36C849.792 532.224 848.864 532.736 847.232 532.736C845.056 532.736 843.904 531.744 843.36 529.44L839.296 530.528ZM856.256 519.04V536H860.832V519.04H856.256ZM856.192 511.776V516.256H860.832V511.776H856.192ZM870.054 523.072H874.246V519.04H870.054V514.784H865.478V519.04H862.566V523.072H865.478V530.528C865.478 534.464 867.142 536 871.334 536H873.638V531.616H871.782C870.47 531.616 870.054 531.296 870.054 530.24V523.072ZM881.372 535.136L878.044 543.2H882.748L892.508 519.04H887.804L883.708 529.792H883.644L879.58 519.04H874.844L881.372 535.136ZM747.208 544.6V567H751.944V557.688H759.208V567H763.944V544.6H759.208V553.368H751.944V544.6H747.208ZM767.116 558.52C767.116 563.864 770.444 567.48 775.212 567.48C778.444 567.48 780.908 566.2 782.54 563.64L779.308 561.112C778.124 562.872 776.876 563.64 775.212 563.64C773.132 563.64 771.852 562.264 771.724 559.864H783.083V558.52C783.083 553.176 779.82 549.56 775.116 549.56C770.444 549.56 767.116 553.24 767.116 558.52ZM778.636 556.632H771.724C771.884 554.68 773.26 553.4 775.148 553.4C777.228 553.4 778.476 554.584 778.636 556.632ZM784.808 562.392C784.808 565.464 787.016 567.48 790.376 567.48C792.424 567.48 794.024 566.84 794.824 565.656H794.888V567H798.984V555.992C798.984 552.024 796.296 549.56 792.04 549.56C790.088 549.56 788.424 550.072 787.048 551.096C785.672 552.12 784.872 553.464 784.616 555.16L788.808 556.088C789.16 554.328 790.28 553.368 792.04 553.368C793.544 553.368 794.376 553.944 794.376 554.936C794.376 555.832 793.544 556.312 790.856 556.952C786.504 558.008 784.808 559.544 784.808 562.392ZM794.536 561.272C794.536 562.68 793.192 563.64 791.272 563.64C789.896 563.64 789.192 563.128 789.192 562.104C789.192 561.208 789.896 560.696 791.944 560.152C793.48 559.736 794.184 559.32 794.472 558.808H794.536V561.272ZM802.006 543.64V567H806.582V543.64H802.006ZM815.804 554.072H819.996V550.04H815.804V545.784H811.228V550.04H808.316V554.072H811.228V561.528C811.228 565.464 812.892 567 817.084 567H819.388V562.616H817.532C816.22 562.616 815.804 562.296 815.804 561.24V554.072ZM822.194 543.64V567H826.77V556.952C826.77 555 827.922 553.784 829.842 553.784C831.794 553.784 832.914 554.936 832.914 556.952V567H837.49V555.832C837.49 552.12 834.93 549.56 831.282 549.56C829.458 549.56 827.762 550.296 826.834 551.544H826.77V543.64H822.194ZM847.397 555.8C847.397 562.872 851.301 567.48 857.285 567.48C862.181 567.48 865.701 564.184 866.277 559.16L861.637 558.36C861.221 561.464 859.685 563.16 857.285 563.16C854.053 563.16 852.133 560.408 852.133 555.8C852.133 551.192 854.053 548.44 857.285 548.44C859.557 548.44 861.093 550.04 861.573 552.888L866.213 552.12C865.701 547.384 862.021 544.12 857.285 544.12C851.301 544.12 847.397 548.728 847.397 555.8ZM867.772 558.52C867.772 563.864 871.1 567.48 875.868 567.48C879.1 567.48 881.564 566.2 883.196 563.64L879.964 561.112C878.78 562.872 877.532 563.64 875.868 563.64C873.788 563.64 872.508 562.264 872.38 559.864H883.74V558.52C883.74 553.176 880.476 549.56 875.772 549.56C871.1 549.56 867.772 553.24 867.772 558.52ZM879.292 556.632H872.38C872.54 554.68 873.916 553.4 875.804 553.4C877.884 553.4 879.132 554.584 879.292 556.632ZM886.256 550.04V567H890.832V556.952C890.832 555 891.984 553.784 893.904 553.784C895.856 553.784 896.976 554.936 896.976 556.952V567H901.552V556.152C901.552 554.136 900.976 552.536 899.824 551.352C898.704 550.168 897.2 549.56 895.344 549.56C893.456 549.56 891.664 550.296 890.672 551.544H890.608V550.04H886.256ZM910.336 554.072H914.528V550.04H910.336V545.784H905.76V550.04H902.848V554.072H905.76V561.528C905.76 565.464 907.424 567 911.616 567H913.92V562.616H912.064C910.752 562.616 910.336 562.296 910.336 561.24V554.072ZM916.725 550.04V567H921.301V557.88C921.301 555.416 922.325 554.104 924.277 554.104C924.885 554.104 925.493 554.2 926.165 554.36L926.933 550.008C926.261 549.816 925.525 549.72 924.725 549.72C923.093 549.72 921.845 550.392 921.077 551.544H921.013V550.04H916.725ZM927.084 558.52C927.084 563.864 930.412 567.48 935.18 567.48C938.412 567.48 940.876 566.2 942.508 563.64L939.276 561.112C938.092 562.872 936.844 563.64 935.18 563.64C933.1 563.64 931.82 562.264 931.692 559.864H943.052V558.52C943.052 553.176 939.788 549.56 935.084 549.56C930.412 549.56 927.084 553.24 927.084 558.52ZM938.604 556.632H931.692C931.852 554.68 933.228 553.4 935.116 553.4C937.196 553.4 938.444 554.584 938.604 556.632Z" fill="white"/>
<path d="M111.336 73.344C111.336 76.224 114.192 78.36 118.2 78.36C122.208 78.36 125.064 76.224 125.064 73.344C125.064 71.496 123.864 69.912 122.112 69.168V69.12C123.456 68.424 124.176 67.344 124.176 66C124.176 63.456 121.728 61.512 118.2 61.512C114.672 61.512 112.224 63.456 112.224 66C112.224 67.344 112.944 68.424 114.288 69.12V69.168C112.536 69.912 111.336 71.496 111.336 73.344ZM120.72 66.24C120.72 67.296 119.664 68.04 118.2 68.04C116.736 68.04 115.68 67.296 115.68 66.24C115.68 65.16 116.688 64.416 118.2 64.416C119.712 64.416 120.72 65.16 120.72 66.24ZM121.296 72.96C121.296 74.328 120.144 75.096 118.2 75.096C116.256 75.096 115.104 74.328 115.104 72.96C115.104 71.64 116.28 70.776 118.2 70.776C120.12 70.776 121.296 71.64 121.296 72.96ZM132.708 65.28V78H136.02V70.296C136.02 68.928 136.812 68.04 138.06 68.04C139.308 68.04 140.1 68.856 140.1 70.224V78H143.268V70.296C143.268 68.928 144.084 68.04 145.332 68.04C146.58 68.04 147.372 68.856 147.372 70.224V78H150.684V69.576C150.684 67.008 148.788 64.92 145.98 64.92C144.588 64.92 143.46 65.448 142.572 66.48H142.524C141.852 65.496 140.532 64.92 139.26 64.92C137.916 64.92 136.62 65.472 135.924 66.408H135.876V65.28H132.708ZM152.934 65.28V78H156.366V65.28H152.934ZM152.886 59.832V63.192H156.366V59.832H152.886ZM158.747 65.28V78H162.179V70.464C162.179 69 163.043 68.088 164.483 68.088C165.947 68.088 166.787 68.952 166.787 70.464V78H170.219V69.864C170.219 68.352 169.787 67.152 168.923 66.264C168.083 65.376 166.955 64.92 165.563 64.92C164.147 64.92 162.803 65.472 162.059 66.408H162.011V65.28H158.747ZM172.265 73.656C172.265 76.608 173.945 78.36 176.825 78.36C178.193 78.36 179.513 77.808 180.257 76.872H180.305V78H183.569V65.28H180.137V72.864C180.137 74.304 179.273 75.216 177.905 75.216C176.441 75.216 175.697 74.424 175.697 72.864V65.28H172.265V73.656ZM190.494 68.304H193.638V65.28H190.494V62.088H187.062V65.28H184.878V68.304H187.062V73.896C187.062 76.848 188.31 78 191.454 78H193.182V74.712H191.79C190.806 74.712 190.494 74.472 190.494 73.68V68.304ZM194.337 71.64C194.337 75.648 196.833 78.36 200.409 78.36C202.833 78.36 204.681 77.4 205.905 75.48L203.481 73.584C202.593 74.904 201.657 75.48 200.409 75.48C198.849 75.48 197.889 74.448 197.793 72.648H206.313V71.64C206.313 67.632 203.865 64.92 200.337 64.92C196.833 64.92 194.337 67.68 194.337 71.64ZM202.977 70.224H197.793C197.913 68.76 198.945 67.8 200.361 67.8C201.921 67.8 202.857 68.688 202.977 70.224ZM207.222 73.896C207.774 76.776 209.91 78.36 213.174 78.36C214.734 78.36 215.958 78 216.894 77.28C217.83 76.536 218.286 75.576 218.286 74.4C218.286 73.488 218.046 72.744 217.566 72.168C216.606 71.016 215.358 70.584 213.366 70.008C211.71 69.528 211.086 69.288 211.086 68.712C211.086 68.136 211.71 67.704 212.694 67.704C213.774 67.704 214.638 68.328 215.046 69.552L218.07 68.664C217.758 67.536 217.11 66.648 216.126 65.952C215.142 65.256 213.99 64.92 212.694 64.92C209.958 64.92 207.894 66.6 207.894 68.76C208.014 71.256 209.694 71.928 212.334 72.672C213.03 72.888 213.534 73.08 213.87 73.224C214.566 73.488 215.094 73.872 215.094 74.52C215.094 75.168 214.398 75.552 213.174 75.552C211.542 75.552 210.678 74.808 210.27 73.08L207.222 73.896Z" fill="#FFCB04"/>
<path d="M229.014 66.96H232.134V65.28H229.014V62.4H227.142V65.28H225.222V66.96H227.142V75.072C227.142 77.256 227.958 78 230.262 78H231.462V76.248H230.406C229.374 76.248 229.014 75.936 229.014 75.096V66.96ZM233.229 71.64C233.229 75.648 235.629 78.36 239.205 78.36C242.805 78.36 245.205 75.648 245.205 71.64C245.205 67.632 242.805 64.92 239.205 64.92C235.629 64.92 233.229 67.632 233.229 71.64ZM243.333 71.64C243.333 74.688 241.725 76.608 239.205 76.608C236.685 76.608 235.101 74.688 235.101 71.64C235.101 68.592 236.685 66.672 239.205 66.672C241.725 66.672 243.333 68.592 243.333 71.64ZM117.75 100.45V109H122.19V100.45L129.21 88H124.47L119.97 96.58H119.91L115.47 88H110.7L117.75 100.45ZM126.753 101.05C126.753 106.03 129.963 109.45 134.613 109.45C139.293 109.45 142.503 106.06 142.503 101.05C142.503 96.04 139.293 92.65 134.613 92.65C129.963 92.65 126.753 96.07 126.753 101.05ZM138.213 101.05C138.213 103.9 136.893 105.55 134.613 105.55C132.363 105.55 131.043 103.9 131.043 101.05C131.043 98.2 132.363 96.55 134.613 96.55C136.893 96.55 138.213 98.2 138.213 101.05ZM144.873 93.1V109H149.163V99.58C149.163 97.75 150.243 96.61 152.043 96.61C153.873 96.61 154.923 97.69 154.923 99.58V109H159.213V98.83C159.213 96.94 158.673 95.44 157.593 94.33C156.543 93.22 155.133 92.65 153.393 92.65C151.623 92.65 149.943 93.34 149.013 94.51H148.953V93.1H144.873ZM162.16 112.48C163.69 114.79 166.42 116.2 169.42 116.2C174.01 116.2 176.98 113.44 176.98 109.03V93.1H172.84V94.36H172.78C171.82 93.37 170.32 92.8 168.55 92.8C164.44 92.8 161.44 96.31 161.44 101.02C161.44 105.85 164.44 109.42 168.55 109.42C170.32 109.42 172.03 108.7 172.78 107.71H172.84V108.88C172.84 111.07 171.58 112.42 169.45 112.42C167.74 112.42 166.63 111.76 165.4 110.05L162.16 112.48ZM172.69 102.16C172.69 104.11 171.31 105.49 169.36 105.49C167.08 105.49 165.73 103.81 165.73 101.02C165.73 98.29 167.08 96.7 169.36 96.7C171.28 96.7 172.69 98.08 172.69 100.03V102.16ZM186.511 102.07C187.261 106.87 190.381 109.45 195.391 109.45C199.981 109.45 203.131 107.02 203.131 103.39C203.131 101.68 202.561 100.3 201.451 99.19C200.341 98.08 198.481 97.09 195.871 96.19C192.751 95.14 191.851 94.54 191.851 93.46C191.851 92.29 192.931 91.54 194.581 91.54C196.501 91.54 197.671 92.53 198.241 94.66L202.561 93.73C201.901 90.04 198.691 87.55 194.581 87.55C190.411 87.55 187.471 89.98 187.471 93.49C187.471 95.02 187.981 96.31 189.001 97.3C190.021 98.29 191.761 99.19 194.191 100C197.701 101.2 198.691 101.92 198.691 103.39C198.691 104.71 197.521 105.46 195.451 105.46C192.661 105.46 191.431 104.26 190.861 101.14L186.511 102.07ZM205.195 93.1V109H209.485V93.1H205.195ZM205.135 86.29V90.49H209.485V86.29H205.135ZM211.831 101.05C211.831 106.06 214.951 109.45 219.421 109.45C222.451 109.45 224.761 108.25 226.291 105.85L223.261 103.48C222.151 105.13 220.981 105.85 219.421 105.85C217.471 105.85 216.271 104.56 216.151 102.31H226.801V101.05C226.801 96.04 223.741 92.65 219.331 92.65C214.951 92.65 211.831 96.1 211.831 101.05ZM222.631 99.28H216.151C216.301 97.45 217.591 96.25 219.361 96.25C221.311 96.25 222.481 97.36 222.631 99.28ZM227.524 93.1L231.094 109H235.384L239.014 98.08H239.074L242.704 109H246.964L250.564 93.1H246.304L244.264 103.24H244.204L240.904 93.1H237.184L233.854 103.24H233.794L231.784 93.1H227.524ZM263.035 92.08V109H267.475V92.08H273.535V88H256.945V92.08H263.035ZM271.831 101.05C271.831 106.03 275.041 109.45 279.691 109.45C284.371 109.45 287.581 106.06 287.581 101.05C287.581 96.04 284.371 92.65 279.691 92.65C275.041 92.65 271.831 96.07 271.831 101.05ZM283.291 101.05C283.291 103.9 281.971 105.55 279.691 105.55C277.441 105.55 276.121 103.9 276.121 101.05C276.121 98.2 277.441 96.55 279.691 96.55C281.971 96.55 283.291 98.2 283.291 101.05ZM289.951 87.1V109H294.241V99.58C294.241 97.75 295.321 96.61 297.121 96.61C298.951 96.61 300.001 97.69 300.001 99.58V109H304.291V98.53C304.291 95.05 301.891 92.65 298.471 92.65C296.761 92.65 295.171 93.34 294.301 94.51H294.241V87.1H289.951ZM111.87 129.5C111.87 136.13 115.53 140.45 121.14 140.45C125.73 140.45 129.03 137.36 129.57 132.65L125.22 131.9C124.83 134.81 123.39 136.4 121.14 136.4C118.11 136.4 116.31 133.82 116.31 129.5C116.31 125.18 118.11 122.6 121.14 122.6C123.27 122.6 124.71 124.1 125.16 126.77L129.51 126.05C129.03 121.61 125.58 118.55 121.14 118.55C115.53 118.55 111.87 122.87 111.87 129.5ZM130.972 132.05C130.972 137.03 134.182 140.45 138.832 140.45C143.512 140.45 146.722 137.06 146.722 132.05C146.722 127.04 143.512 123.65 138.832 123.65C134.182 123.65 130.972 127.07 130.972 132.05ZM142.432 132.05C142.432 134.9 141.112 136.55 138.832 136.55C136.582 136.55 135.262 134.9 135.262 132.05C135.262 129.2 136.582 127.55 138.832 127.55C141.112 127.55 142.432 129.2 142.432 132.05ZM149.092 124.1V140H153.382V130.58C153.382 128.75 154.462 127.61 156.262 127.61C158.092 127.61 159.142 128.69 159.142 130.58V140H163.432V129.83C163.432 127.94 162.892 126.44 161.812 125.33C160.762 124.22 159.352 123.65 157.612 123.65C155.842 123.65 154.162 124.34 153.232 125.51H153.172V124.1H149.092ZM165.359 134.87C166.049 138.47 168.719 140.45 172.799 140.45C174.749 140.45 176.279 140 177.449 139.1C178.619 138.17 179.189 136.97 179.189 135.5C179.189 134.36 178.889 133.43 178.289 132.71C177.089 131.27 175.529 130.73 173.039 130.01C170.969 129.41 170.189 129.11 170.189 128.39C170.189 127.67 170.969 127.13 172.199 127.13C173.549 127.13 174.629 127.91 175.139 129.44L178.919 128.33C178.529 126.92 177.719 125.81 176.489 124.94C175.259 124.07 173.819 123.65 172.199 123.65C168.779 123.65 166.199 125.75 166.199 128.45C166.349 131.57 168.449 132.41 171.749 133.34C172.619 133.61 173.249 133.85 173.669 134.03C174.539 134.36 175.199 134.84 175.199 135.65C175.199 136.46 174.329 136.94 172.799 136.94C170.759 136.94 169.679 136.01 169.169 133.85L165.359 134.87ZM180.63 132.05C180.63 137.06 183.75 140.45 188.22 140.45C191.25 140.45 193.56 139.25 195.09 136.85L192.06 134.48C190.95 136.13 189.78 136.85 188.22 136.85C186.27 136.85 185.07 135.56 184.95 133.31H195.6V132.05C195.6 127.04 192.54 123.65 188.13 123.65C183.75 123.65 180.63 127.1 180.63 132.05ZM191.43 130.28H184.95C185.1 128.45 186.39 127.25 188.16 127.25C190.11 127.25 191.28 128.36 191.43 130.28ZM197.959 124.1V140H202.249V131.45C202.249 129.14 203.209 127.91 205.039 127.91C205.609 127.91 206.179 128 206.809 128.15L207.529 124.07C206.899 123.89 206.209 123.8 205.459 123.8C203.929 123.8 202.759 124.43 202.039 125.51H201.979V124.1H197.959ZM207.973 124.1L214.603 140H218.563L225.193 124.1H220.633L216.613 134.39H216.553L212.533 124.1H207.973ZM225.663 135.68C225.663 138.56 227.733 140.45 230.883 140.45C232.803 140.45 234.303 139.85 235.053 138.74H235.113V140H238.953V129.68C238.953 125.96 236.433 123.65 232.443 123.65C230.613 123.65 229.053 124.13 227.763 125.09C226.473 126.05 225.723 127.31 225.483 128.9L229.413 129.77C229.743 128.12 230.793 127.22 232.443 127.22C233.853 127.22 234.633 127.76 234.633 128.69C234.633 129.53 233.853 129.98 231.333 130.58C227.253 131.57 225.663 133.01 225.663 135.68ZM234.783 134.63C234.783 135.95 233.523 136.85 231.723 136.85C230.433 136.85 229.773 136.37 229.773 135.41C229.773 134.57 230.433 134.09 232.353 133.58C233.793 133.19 234.453 132.8 234.723 132.32H234.783V134.63ZM247.164 127.88H251.094V124.1H247.164V120.11H242.874V124.1H240.144V127.88H242.874V134.87C242.874 138.56 244.434 140 248.364 140H250.524V135.89H248.784C247.554 135.89 247.164 135.59 247.164 134.6V127.88ZM251.968 132.05C251.968 137.03 255.178 140.45 259.828 140.45C264.508 140.45 267.718 137.06 267.718 132.05C267.718 127.04 264.508 123.65 259.828 123.65C255.178 123.65 251.968 127.07 251.968 132.05ZM263.428 132.05C263.428 134.9 262.108 136.55 259.828 136.55C257.578 136.55 256.258 134.9 256.258 132.05C256.258 129.2 257.578 127.55 259.828 127.55C262.108 127.55 263.428 129.2 263.428 132.05ZM270.088 124.1V140H274.378V131.45C274.378 129.14 275.338 127.91 277.168 127.91C277.738 127.91 278.308 128 278.938 128.15L279.658 124.07C279.028 123.89 278.338 123.8 277.588 123.8C276.058 123.8 274.888 124.43 274.168 125.51H274.108V124.1H270.088ZM286.251 139.19L283.131 146.75H287.541L296.691 124.1H292.281L288.441 134.18H288.381L284.571 124.1H280.131L286.251 139.19ZM304.292 132.05C304.292 137.03 307.502 140.45 312.152 140.45C316.832 140.45 320.042 137.06 320.042 132.05C320.042 127.04 316.832 123.65 312.152 123.65C307.502 123.65 304.292 127.07 304.292 132.05ZM315.752 132.05C315.752 134.9 314.432 136.55 312.152 136.55C309.902 136.55 308.582 134.9 308.582 132.05C308.582 129.2 309.902 127.55 312.152 127.55C314.432 127.55 315.752 129.2 315.752 132.05ZM323.859 127.88V140H328.149V127.88H332.409V124.1H328.149V122.9C328.149 122.15 328.539 121.79 329.319 121.79H331.749V117.98H328.749C325.629 117.98 323.859 119.63 323.859 122.48V124.1H320.769V127.88H323.859ZM113.07 150V171H117.42V158.04H117.48L122.94 171H124.86L130.35 158.04H130.41V171H134.76V150H129.84L123.93 164.13H123.87L117.99 150H113.07ZM138.04 165.57C138.04 169.26 140.14 171.45 143.74 171.45C145.45 171.45 147.1 170.76 148.03 169.59H148.09V171H152.17V155.1H147.88V164.58C147.88 166.38 146.8 167.52 145.09 167.52C143.26 167.52 142.33 166.53 142.33 164.58V155.1H138.04V165.57ZM154.226 165.87C154.916 169.47 157.586 171.45 161.666 171.45C163.616 171.45 165.146 171 166.316 170.1C167.486 169.17 168.056 167.97 168.056 166.5C168.056 165.36 167.756 164.43 167.156 163.71C165.956 162.27 164.396 161.73 161.906 161.01C159.836 160.41 159.056 160.11 159.056 159.39C159.056 158.67 159.836 158.13 161.066 158.13C162.416 158.13 163.496 158.91 164.006 160.44L167.786 159.33C167.396 157.92 166.586 156.81 165.356 155.94C164.126 155.07 162.686 154.65 161.066 154.65C157.646 154.65 155.066 156.75 155.066 159.45C155.216 162.57 157.316 163.41 160.616 164.34C161.486 164.61 162.116 164.85 162.536 165.03C163.406 165.36 164.066 165.84 164.066 166.65C164.066 167.46 163.196 167.94 161.666 167.94C159.626 167.94 158.546 167.01 158.036 164.85L154.226 165.87ZM170.127 155.1V171H174.417V155.1H170.127ZM170.067 148.29V152.49H174.417V148.29H170.067ZM176.763 163.05C176.763 168.03 180.003 171.45 184.473 171.45C188.313 171.45 191.073 169.17 191.643 165.57L187.593 164.85C187.263 166.62 186.243 167.55 184.473 167.55C182.343 167.55 181.053 165.9 181.053 163.05C181.053 160.2 182.343 158.55 184.473 158.55C186.183 158.55 187.263 159.48 187.593 161.25L191.643 160.53C191.073 156.93 188.313 154.65 184.473 154.65C180.003 154.65 176.763 158.07 176.763 163.05Z" fill="white"/>
<path d="M19.584 258.568V271H23.016V254.872H19.8L15.576 257.344V260.92L19.584 258.568ZM25.7273 266.848C26.4953 269.728 29.1113 271.36 32.4713 271.36C36.2633 271.36 38.9513 269.032 38.9513 265.672C38.9513 262.528 36.4313 260.2 32.9513 260.2C31.7513 260.2 30.6713 260.488 29.7113 261.064L29.6633 261.04L30.2393 258.016H37.2713V254.872H27.6473L26.0873 263.416L29.2313 264.256C30.1433 263.392 31.2233 262.96 32.4473 262.96C34.2473 262.96 35.5193 264.064 35.5193 265.624C35.5193 267.136 34.2233 268.24 32.4713 268.24C30.6473 268.24 29.4953 267.424 29.0153 265.768L25.7273 266.848ZM46.8328 258.28V271H50.1448V263.296C50.1448 261.928 50.9368 261.04 52.1848 261.04C53.4328 261.04 54.2248 261.856 54.2248 263.224V271H57.3928V263.296C57.3928 261.928 58.2088 261.04 59.4568 261.04C60.7048 261.04 61.4968 261.856 61.4968 263.224V271H64.8088V262.576C64.8088 260.008 62.9128 257.92 60.1048 257.92C58.7128 257.92 57.5848 258.448 56.6968 259.48H56.6488C55.9768 258.496 54.6568 257.92 53.3848 257.92C52.0408 257.92 50.7448 258.472 50.0488 259.408H50.0008V258.28H46.8328ZM67.0594 258.28V271H70.4914V258.28H67.0594ZM67.0114 252.832V256.192H70.4914V252.832H67.0114ZM72.8719 258.28V271H76.3039V263.464C76.3039 262 77.1679 261.088 78.6079 261.088C80.0719 261.088 80.9119 261.952 80.9119 263.464V271H84.3439V262.864C84.3439 261.352 83.9119 260.152 83.0479 259.264C82.2079 258.376 81.0799 257.92 79.6879 257.92C78.2719 257.92 76.9279 258.472 76.1839 259.408H76.1359V258.28H72.8719ZM86.3897 266.656C86.3897 269.608 88.0697 271.36 90.9497 271.36C92.3177 271.36 93.6377 270.808 94.3817 269.872H94.4297V271H97.6937V258.28H94.2617V265.864C94.2617 267.304 93.3977 268.216 92.0297 268.216C90.5657 268.216 89.8217 267.424 89.8217 265.864V258.28H86.3897V266.656ZM104.619 261.304H107.763V258.28H104.619V255.088H101.187V258.28H99.0028V261.304H101.187V266.896C101.187 269.848 102.435 271 105.579 271H107.307V267.712H105.915C104.931 267.712 104.619 267.472 104.619 266.68V261.304ZM108.462 264.64C108.462 268.648 110.958 271.36 114.534 271.36C116.958 271.36 118.806 270.4 120.03 268.48L117.606 266.584C116.718 267.904 115.782 268.48 114.534 268.48C112.974 268.48 112.014 267.448 111.918 265.648H120.438V264.64C120.438 260.632 117.99 257.92 114.462 257.92C110.958 257.92 108.462 260.68 108.462 264.64ZM117.102 263.224H111.918C112.038 261.76 113.07 260.8 114.486 260.8C116.046 260.8 116.982 261.688 117.102 263.224ZM121.347 266.896C121.899 269.776 124.035 271.36 127.299 271.36C128.859 271.36 130.083 271 131.019 270.28C131.955 269.536 132.411 268.576 132.411 267.4C132.411 266.488 132.171 265.744 131.691 265.168C130.731 264.016 129.483 263.584 127.491 263.008C125.835 262.528 125.211 262.288 125.211 261.712C125.211 261.136 125.835 260.704 126.819 260.704C127.899 260.704 128.763 261.328 129.171 262.552L132.195 261.664C131.883 260.536 131.235 259.648 130.251 258.952C129.267 258.256 128.115 257.92 126.819 257.92C124.083 257.92 122.019 259.6 122.019 261.76C122.139 264.256 123.819 264.928 126.459 265.672C127.155 265.888 127.659 266.08 127.995 266.224C128.691 266.488 129.219 266.872 129.219 267.52C129.219 268.168 128.523 268.552 127.299 268.552C125.667 268.552 124.803 267.808 124.395 266.08L121.347 266.896Z" fill="#FFCB04"/>
<path d="M143.139 259.96H146.259V258.28H143.139V255.4H141.267V258.28H139.347V259.96H141.267V268.072C141.267 270.256 142.083 271 144.387 271H145.587V269.248H144.531C143.499 269.248 143.139 268.936 143.139 268.096V259.96ZM147.354 264.64C147.354 268.648 149.754 271.36 153.33 271.36C156.93 271.36 159.33 268.648 159.33 264.64C159.33 260.632 156.93 257.92 153.33 257.92C149.754 257.92 147.354 260.632 147.354 264.64ZM157.458 264.64C157.458 267.688 155.85 269.608 153.33 269.608C150.81 269.608 149.226 267.688 149.226 264.64C149.226 261.592 150.81 259.672 153.33 259.672C155.85 259.672 157.458 261.592 157.458 264.64ZM15.928 290.8C15.928 297.872 19.832 302.48 25.816 302.48C30.712 302.48 34.232 299.184 34.808 294.16L30.168 293.36C29.752 296.464 28.216 298.16 25.816 298.16C22.584 298.16 20.664 295.408 20.664 290.8C20.664 286.192 22.584 283.44 25.816 283.44C28.088 283.44 29.624 285.04 30.104 287.888L34.744 287.12C34.232 282.384 30.552 279.12 25.816 279.12C19.832 279.12 15.928 283.728 15.928 290.8ZM36.975 278.64V302H41.551V278.64H36.975ZM44.053 293.52C44.053 298.864 47.381 302.48 52.149 302.48C55.381 302.48 57.845 301.2 59.477 298.64L56.245 296.112C55.061 297.872 53.813 298.64 52.149 298.64C50.069 298.64 48.789 297.264 48.661 294.864H60.021V293.52C60.021 288.176 56.757 284.56 52.053 284.56C47.381 284.56 44.053 288.24 44.053 293.52ZM55.573 291.632H48.661C48.821 289.68 50.197 288.4 52.085 288.4C54.165 288.4 55.413 289.584 55.573 291.632ZM62.5375 285.04V302H66.9535V291.728C66.9535 289.904 68.0095 288.72 69.6735 288.72C71.3375 288.72 72.3935 289.808 72.3935 291.632V302H76.6175V291.728C76.6175 289.904 77.7055 288.72 79.3695 288.72C81.0335 288.72 82.0895 289.808 82.0895 291.632V302H86.5055V290.768C86.5055 287.344 83.9775 284.56 80.2335 284.56C78.3775 284.56 76.8735 285.264 75.6895 286.64H75.6255C74.7295 285.328 72.9695 284.56 71.2735 284.56C69.4815 284.56 67.7535 285.296 66.8255 286.544H66.7615V285.04H62.5375ZM88.8343 293.52C88.8343 298.864 92.1623 302.48 96.9303 302.48C100.162 302.48 102.626 301.2 104.258 298.64L101.026 296.112C99.8423 297.872 98.5943 298.64 96.9303 298.64C94.8503 298.64 93.5703 297.264 93.4423 294.864H104.802V293.52C104.802 288.176 101.538 284.56 96.8343 284.56C92.1623 284.56 88.8343 288.24 88.8343 293.52ZM100.354 291.632H93.4423C93.6023 289.68 94.9783 288.4 96.8663 288.4C98.9463 288.4 100.194 289.584 100.354 291.632ZM107.319 285.04V302H111.895V291.952C111.895 290 113.047 288.784 114.967 288.784C116.919 288.784 118.039 289.936 118.039 291.952V302H122.615V291.152C122.615 289.136 122.039 287.536 120.887 286.352C119.767 285.168 118.263 284.56 116.407 284.56C114.519 284.56 112.727 285.296 111.735 286.544H111.671V285.04H107.319ZM131.398 289.072H135.59V285.04H131.398V280.784H126.822V285.04H123.91V289.072H126.822V296.528C126.822 300.464 128.486 302 132.678 302H134.982V297.616H133.126C131.814 297.616 131.398 297.296 131.398 296.24V289.072ZM137.788 285.04V302H142.364V285.04H137.788ZM137.724 277.776V282.256H142.364V277.776H137.724ZM154.302 279.6V302H163.006C168.734 302 171.518 299.728 171.518 295.024C171.518 292.688 170.334 290.768 168.414 289.872V289.808C169.822 288.944 170.686 287.44 170.686 285.616C170.686 282.128 167.902 279.6 164.03 279.6H154.302ZM163.358 288.528H159.038V283.824H163.358C165.054 283.824 165.982 284.656 165.982 286.16C165.982 287.696 165.054 288.528 163.358 288.528ZM163.87 297.776H159.038V292.272H163.902C165.79 292.272 166.814 293.232 166.814 294.992C166.814 296.88 165.886 297.776 163.87 297.776ZM173.749 296.208C173.749 300.144 175.989 302.48 179.829 302.48C181.653 302.48 183.413 301.744 184.405 300.496H184.469V302H188.821V285.04H184.245V295.152C184.245 297.072 183.093 298.288 181.269 298.288C179.317 298.288 178.325 297.232 178.325 295.152V285.04H173.749V296.208ZM191.014 296.528C191.75 300.368 194.598 302.48 198.95 302.48C201.03 302.48 202.662 302 203.91 301.04C205.158 300.048 205.766 298.768 205.766 297.2C205.766 295.984 205.446 294.992 204.806 294.224C203.526 292.688 201.862 292.112 199.206 291.344C196.998 290.704 196.166 290.384 196.166 289.616C196.166 288.848 196.998 288.272 198.31 288.272C199.75 288.272 200.902 289.104 201.446 290.736L205.478 289.552C205.062 288.048 204.198 286.864 202.886 285.936C201.574 285.008 200.038 284.56 198.31 284.56C194.662 284.56 191.91 286.8 191.91 289.68C192.07 293.008 194.31 293.904 197.83 294.896C198.758 295.184 199.43 295.44 199.878 295.632C200.806 295.984 201.51 296.496 201.51 297.36C201.51 298.224 200.582 298.736 198.95 298.736C196.774 298.736 195.622 297.744 195.078 295.44L191.014 296.528ZM17.208 310.6V333H21.944V310.6H17.208ZM25.7875 316.04V333H30.3635V322.952C30.3635 321 31.5155 319.784 33.4355 319.784C35.3875 319.784 36.5075 320.936 36.5075 322.952V333H41.0835V322.152C41.0835 320.136 40.5075 318.536 39.3555 317.352C38.2355 316.168 36.7315 315.56 34.8755 315.56C32.9875 315.56 31.1955 316.296 30.2035 317.544H30.1395V316.04H25.7875ZM49.8668 320.072H54.0588V316.04H49.8668V311.784H45.2908V316.04H42.3788V320.072H45.2908V327.528C45.2908 331.464 46.9548 333 51.1468 333H53.4508V328.616H51.5948C50.2828 328.616 49.8668 328.296 49.8668 327.24V320.072ZM54.9905 324.52C54.9905 329.864 58.3185 333.48 63.0865 333.48C66.3185 333.48 68.7825 332.2 70.4145 329.64L67.1825 327.112C65.9985 328.872 64.7505 329.64 63.0865 329.64C61.0065 329.64 59.7265 328.264 59.5985 325.864H70.9585V324.52C70.9585 319.176 67.6945 315.56 62.9905 315.56C58.3185 315.56 54.9905 319.24 54.9905 324.52ZM66.5105 322.632H59.5985C59.7585 320.68 61.1345 319.4 63.0225 319.4C65.1025 319.4 66.3505 320.584 66.5105 322.632ZM73.475 316.04V333H78.051V323.88C78.051 321.416 79.075 320.104 81.027 320.104C81.635 320.104 82.243 320.2 82.915 320.36L83.683 316.008C83.011 315.816 82.275 315.72 81.475 315.72C79.843 315.72 78.595 316.392 77.827 317.544H77.763V316.04H73.475ZM83.8343 324.52C83.8343 329.832 87.2903 333.48 92.0583 333.48C96.1543 333.48 99.0983 331.048 99.7063 327.208L95.3863 326.44C95.0343 328.328 93.9463 329.32 92.0583 329.32C89.7863 329.32 88.4103 327.56 88.4103 324.52C88.4103 321.48 89.7863 319.72 92.0583 319.72C93.8823 319.72 95.0343 320.712 95.3863 322.6L99.7063 321.832C99.0983 317.992 96.1543 315.56 92.0583 315.56C87.2903 315.56 83.8343 319.208 83.8343 324.52ZM102.1 309.64V333H106.676V322.952C106.676 321 107.828 319.784 109.748 319.784C111.7 319.784 112.82 320.936 112.82 322.952V333H117.396V321.832C117.396 318.12 114.836 315.56 111.188 315.56C109.364 315.56 107.668 316.296 106.74 317.544H106.676V309.64H102.1ZM119.964 328.392C119.964 331.464 122.172 333.48 125.532 333.48C127.58 333.48 129.18 332.84 129.98 331.656H130.044V333H134.14V321.992C134.14 318.024 131.452 315.56 127.196 315.56C125.244 315.56 123.58 316.072 122.204 317.096C120.828 318.12 120.028 319.464 119.772 321.16L123.964 322.088C124.316 320.328 125.436 319.368 127.196 319.368C128.7 319.368 129.532 319.944 129.532 320.936C129.532 321.832 128.7 322.312 126.012 322.952C121.66 324.008 119.964 325.544 119.964 328.392ZM129.692 327.272C129.692 328.68 128.348 329.64 126.428 329.64C125.052 329.64 124.348 329.128 124.348 328.104C124.348 327.208 125.052 326.696 127.1 326.152C128.636 325.736 129.34 325.32 129.628 324.808H129.692V327.272ZM137.163 316.04V333H141.739V322.952C141.739 321 142.891 319.784 144.811 319.784C146.763 319.784 147.883 320.936 147.883 322.952V333H152.458V322.152C152.458 320.136 151.883 318.536 150.731 317.352C149.611 316.168 148.107 315.56 146.251 315.56C144.363 315.56 142.571 316.296 141.579 317.544H141.515V316.04H137.163ZM155.602 336.712C157.234 339.176 160.146 340.68 163.346 340.68C168.242 340.68 171.41 337.736 171.41 333.032V316.04H166.994V317.384H166.93C165.906 316.328 164.306 315.72 162.418 315.72C158.034 315.72 154.834 319.464 154.834 324.488C154.834 329.64 158.034 333.448 162.418 333.448C164.306 333.448 166.13 332.68 166.93 331.624H166.994V332.872C166.994 335.208 165.65 336.648 163.378 336.648C161.554 336.648 160.37 335.944 159.058 334.12L155.602 336.712ZM166.834 325.704C166.834 327.784 165.362 329.256 163.282 329.256C160.85 329.256 159.41 327.464 159.41 324.488C159.41 321.576 160.85 319.88 163.282 319.88C165.33 319.88 166.834 321.352 166.834 323.432V325.704ZM173.741 324.52C173.741 329.864 177.069 333.48 181.837 333.48C185.069 333.48 187.533 332.2 189.165 329.64L185.933 327.112C184.749 328.872 183.501 329.64 181.837 329.64C179.757 329.64 178.477 328.264 178.349 325.864H189.708V324.52C189.708 319.176 186.445 315.56 181.741 315.56C177.069 315.56 173.741 319.24 173.741 324.52ZM185.261 322.632H178.349C178.509 320.68 179.885 319.4 181.773 319.4C183.853 319.4 185.101 320.584 185.261 322.632Z" fill="white"/>
<path d="M346.584 621.568V634H350.016V617.872H346.8L342.576 620.344V623.92L346.584 621.568ZM352.727 629.848C353.495 632.728 356.111 634.36 359.471 634.36C363.263 634.36 365.951 632.032 365.951 628.672C365.951 625.528 363.431 623.2 359.951 623.2C358.751 623.2 357.671 623.488 356.711 624.064L356.663 624.04L357.239 621.016H364.271V617.872H354.647L353.087 626.416L356.231 627.256C357.143 626.392 358.223 625.96 359.447 625.96C361.247 625.96 362.519 627.064 362.519 628.624C362.519 630.136 361.223 631.24 359.471 631.24C357.647 631.24 356.495 630.424 356.015 628.768L352.727 629.848ZM373.833 621.28V634H377.145V626.296C377.145 624.928 377.937 624.04 379.185 624.04C380.433 624.04 381.225 624.856 381.225 626.224V634H384.393V626.296C384.393 624.928 385.209 624.04 386.457 624.04C387.705 624.04 388.497 624.856 388.497 626.224V634H391.809V625.576C391.809 623.008 389.913 620.92 387.105 620.92C385.713 620.92 384.585 621.448 383.697 622.48H383.649C382.977 621.496 381.657 620.92 380.385 620.92C379.041 620.92 377.745 621.472 377.049 622.408H377.001V621.28H373.833ZM394.059 621.28V634H397.491V621.28H394.059ZM394.011 615.832V619.192H397.491V615.832H394.011ZM399.872 621.28V634H403.304V626.464C403.304 625 404.168 624.088 405.608 624.088C407.072 624.088 407.912 624.952 407.912 626.464V634H411.344V625.864C411.344 624.352 410.912 623.152 410.048 622.264C409.208 621.376 408.08 620.92 406.688 620.92C405.272 620.92 403.928 621.472 403.184 622.408H403.136V621.28H399.872ZM413.39 629.656C413.39 632.608 415.07 634.36 417.95 634.36C419.318 634.36 420.638 633.808 421.382 632.872H421.43V634H424.694V621.28H421.262V628.864C421.262 630.304 420.398 631.216 419.03 631.216C417.566 631.216 416.822 630.424 416.822 628.864V621.28H413.39V629.656ZM431.619 624.304H434.763V621.28H431.619V618.088H428.187V621.28H426.003V624.304H428.187V629.896C428.187 632.848 429.435 634 432.579 634H434.307V630.712H432.915C431.931 630.712 431.619 630.472 431.619 629.68V624.304ZM435.462 627.64C435.462 631.648 437.958 634.36 441.534 634.36C443.958 634.36 445.806 633.4 447.03 631.48L444.606 629.584C443.718 630.904 442.782 631.48 441.534 631.48C439.974 631.48 439.014 630.448 438.918 628.648H447.438V627.64C447.438 623.632 444.99 620.92 441.462 620.92C437.958 620.92 435.462 623.68 435.462 627.64ZM444.102 626.224H438.918C439.038 624.76 440.07 623.8 441.486 623.8C443.046 623.8 443.982 624.688 444.102 626.224ZM448.347 629.896C448.899 632.776 451.035 634.36 454.299 634.36C455.859 634.36 457.083 634 458.019 633.28C458.955 632.536 459.411 631.576 459.411 630.4C459.411 629.488 459.171 628.744 458.691 628.168C457.731 627.016 456.483 626.584 454.491 626.008C452.835 625.528 452.211 625.288 452.211 624.712C452.211 624.136 452.835 623.704 453.819 623.704C454.899 623.704 455.763 624.328 456.171 625.552L459.195 624.664C458.883 623.536 458.235 622.648 457.251 621.952C456.267 621.256 455.115 620.92 453.819 620.92C451.083 620.92 449.019 622.6 449.019 624.76C449.139 627.256 450.819 627.928 453.459 628.672C454.155 628.888 454.659 629.08 454.995 629.224C455.691 629.488 456.219 629.872 456.219 630.52C456.219 631.168 455.523 631.552 454.299 631.552C452.667 631.552 451.803 630.808 451.395 629.08L448.347 629.896Z" fill="#FFCB04"/>
<path d="M470.139 622.96H473.259V621.28H470.139V618.4H468.267V621.28H466.347V622.96H468.267V631.072C468.267 633.256 469.083 634 471.387 634H472.587V632.248H471.531C470.499 632.248 470.139 631.936 470.139 631.096V622.96ZM474.354 627.64C474.354 631.648 476.754 634.36 480.33 634.36C483.93 634.36 486.33 631.648 486.33 627.64C486.33 623.632 483.93 620.92 480.33 620.92C476.754 620.92 474.354 623.632 474.354 627.64ZM484.458 627.64C484.458 630.688 482.85 632.608 480.33 632.608C477.81 632.608 476.226 630.688 476.226 627.64C476.226 624.592 477.81 622.672 480.33 622.672C482.85 622.672 484.458 624.592 484.458 627.64ZM344.208 642.6V665H348.944V656.584H357.968V652.424H348.944V646.952H358.64V642.6H344.208ZM360.245 660.392C360.245 663.464 362.453 665.48 365.813 665.48C367.861 665.48 369.461 664.84 370.261 663.656H370.325V665H374.421V653.992C374.421 650.024 371.733 647.56 367.477 647.56C365.525 647.56 363.861 648.072 362.485 649.096C361.109 650.12 360.309 651.464 360.053 653.16L364.245 654.088C364.597 652.328 365.717 651.368 367.477 651.368C368.981 651.368 369.813 651.944 369.813 652.936C369.813 653.832 368.981 654.312 366.293 654.952C361.941 656.008 360.245 657.544 360.245 660.392ZM369.973 659.272C369.973 660.68 368.629 661.64 366.709 661.64C365.333 661.64 364.629 661.128 364.629 660.104C364.629 659.208 365.333 658.696 367.381 658.152C368.917 657.736 369.621 657.32 369.909 656.808H369.973V659.272ZM376.772 656.52C376.772 661.832 380.228 665.48 384.996 665.48C389.092 665.48 392.036 663.048 392.644 659.208L388.324 658.44C387.972 660.328 386.884 661.32 384.996 661.32C382.724 661.32 381.348 659.56 381.348 656.52C381.348 653.48 382.724 651.72 384.996 651.72C386.82 651.72 387.972 652.712 388.324 654.6L392.644 653.832C392.036 649.992 389.092 647.56 384.996 647.56C380.228 647.56 376.772 651.208 376.772 656.52ZM394.718 659.208C394.718 663.144 396.958 665.48 400.798 665.48C402.622 665.48 404.382 664.744 405.374 663.496H405.438V665H409.79V648.04H405.214V658.152C405.214 660.072 404.062 661.288 402.238 661.288C400.286 661.288 399.294 660.232 399.294 658.152V648.04H394.718V659.208ZM412.975 641.64V665H417.551V641.64H412.975ZM426.773 652.072H430.965V648.04H426.773V643.784H422.197V648.04H419.285V652.072H422.197V659.528C422.197 663.464 423.861 665 428.053 665H430.357V660.616H428.501C427.189 660.616 426.773 660.296 426.773 659.24V652.072ZM438.091 664.136L434.763 672.2H439.467L449.227 648.04H444.523L440.427 658.792H440.363L436.299 648.04H431.562L438.091 664.136ZM457.334 656.52C457.334 661.832 460.758 665.48 465.718 665.48C470.71 665.48 474.134 661.864 474.134 656.52C474.134 651.176 470.71 647.56 465.718 647.56C460.758 647.56 457.334 651.208 457.334 656.52ZM469.558 656.52C469.558 659.56 468.15 661.32 465.718 661.32C463.318 661.32 461.91 659.56 461.91 656.52C461.91 653.48 463.318 651.72 465.718 651.72C468.15 651.72 469.558 653.48 469.558 656.52ZM478.206 652.072V665H482.782V652.072H487.326V648.04H482.782V646.76C482.782 645.96 483.198 645.576 484.03 645.576H486.622V641.512H483.422C480.094 641.512 478.206 643.272 478.206 646.312V648.04H474.91V652.072H478.206ZM344.208 673.6V696H358.672V691.648H348.944V686.656H357.776V682.496H348.944V677.952H358.64V673.6H344.208ZM361.538 679.04V696H366.114V685.952C366.114 684 367.266 682.784 369.186 682.784C371.138 682.784 372.258 683.936 372.258 685.952V696H376.833V685.152C376.833 683.136 376.258 681.536 375.106 680.352C373.986 679.168 372.482 678.56 370.626 678.56C368.738 678.56 366.946 679.296 365.954 680.544H365.89V679.04H361.538ZM379.977 699.712C381.609 702.176 384.521 703.68 387.721 703.68C392.617 703.68 395.785 700.736 395.785 696.032V679.04H391.369V680.384H391.305C390.281 679.328 388.681 678.72 386.793 678.72C382.409 678.72 379.209 682.464 379.209 687.488C379.209 692.64 382.409 696.448 386.793 696.448C388.681 696.448 390.505 695.68 391.305 694.624H391.369V695.872C391.369 698.208 390.025 699.648 387.753 699.648C385.929 699.648 384.745 698.944 383.433 697.12L379.977 699.712ZM391.209 688.704C391.209 690.784 389.737 692.256 387.657 692.256C385.225 692.256 383.785 690.464 383.785 687.488C383.785 684.576 385.225 682.88 387.657 682.88C389.705 682.88 391.209 684.352 391.209 686.432V688.704ZM398.788 679.04V696H403.364V679.04H398.788ZM398.724 671.776V676.256H403.364V671.776H398.724ZM406.538 679.04V696H411.114V685.952C411.114 684 412.266 682.784 414.186 682.784C416.138 682.784 417.258 683.936 417.258 685.952V696H421.833V685.152C421.833 683.136 421.258 681.536 420.106 680.352C418.986 679.168 417.482 678.56 415.626 678.56C413.738 678.56 411.946 679.296 410.954 680.544H410.89V679.04H406.538ZM424.209 687.52C424.209 692.864 427.537 696.48 432.305 696.48C435.537 696.48 438.001 695.2 439.633 692.64L436.401 690.112C435.217 691.872 433.969 692.64 432.305 692.64C430.225 692.64 428.945 691.264 428.817 688.864H440.177V687.52C440.177 682.176 436.913 678.56 432.209 678.56C427.537 678.56 424.209 682.24 424.209 687.52ZM435.729 685.632H428.817C428.977 683.68 430.353 682.4 432.241 682.4C434.321 682.4 435.569 683.584 435.729 685.632ZM442.022 687.52C442.022 692.864 445.35 696.48 450.118 696.48C453.35 696.48 455.814 695.2 457.446 692.64L454.214 690.112C453.03 691.872 451.782 692.64 450.118 692.64C448.038 692.64 446.758 691.264 446.63 688.864H457.99V687.52C457.99 682.176 454.726 678.56 450.022 678.56C445.35 678.56 442.022 682.24 442.022 687.52ZM453.542 685.632H446.63C446.79 683.68 448.166 682.4 450.054 682.4C452.134 682.4 453.382 683.584 453.542 685.632ZM460.506 679.04V696H465.082V686.88C465.082 684.416 466.106 683.104 468.058 683.104C468.666 683.104 469.274 683.2 469.946 683.36L470.714 679.008C470.042 678.816 469.306 678.72 468.506 678.72C466.874 678.72 465.626 679.392 464.858 680.544H464.794V679.04H460.506ZM472.475 679.04V696H477.051V679.04H472.475ZM472.411 671.776V676.256H477.051V671.776H472.411ZM480.225 679.04V696H484.801V685.952C484.801 684 485.953 682.784 487.873 682.784C489.825 682.784 490.945 683.936 490.945 685.952V696H495.521V685.152C495.521 683.136 494.945 681.536 493.793 680.352C492.673 679.168 491.169 678.56 489.313 678.56C487.425 678.56 485.633 679.296 484.641 680.544H484.577V679.04H480.225ZM498.665 699.712C500.297 702.176 503.209 703.68 506.409 703.68C511.305 703.68 514.473 700.736 514.473 696.032V679.04H510.057V680.384H509.993C508.969 679.328 507.369 678.72 505.481 678.72C501.097 678.72 497.897 682.464 497.897 687.488C497.897 692.64 501.097 696.448 505.481 696.448C507.369 696.448 509.193 695.68 509.993 694.624H510.057V695.872C510.057 698.208 508.713 699.648 506.441 699.648C504.617 699.648 503.433 698.944 502.121 697.12L498.665 699.712ZM509.897 688.704C509.897 690.784 508.425 692.256 506.345 692.256C503.913 692.256 502.473 690.464 502.473 687.488C502.473 684.576 503.913 682.88 506.345 682.88C508.393 682.88 509.897 684.352 509.897 686.432V688.704Z" fill="white"/>
<path d="M868.696 858.848C869.464 861.728 872.08 863.36 875.44 863.36C879.232 863.36 881.92 861.032 881.92 857.672C881.92 854.528 879.4 852.2 875.92 852.2C874.72 852.2 873.64 852.488 872.68 853.064L872.632 853.04L873.208 850.016H880.24V846.872H870.616L869.056 855.416L872.2 856.256C873.112 855.392 874.192 854.96 875.416 854.96C877.216 854.96 878.488 856.064 878.488 857.624C878.488 859.136 877.192 860.24 875.44 860.24C873.616 860.24 872.464 859.424 871.984 857.768L868.696 858.848ZM889.802 850.28V863H893.114V855.296C893.114 853.928 893.906 853.04 895.154 853.04C896.402 853.04 897.194 853.856 897.194 855.224V863H900.362V855.296C900.362 853.928 901.178 853.04 902.426 853.04C903.674 853.04 904.466 853.856 904.466 855.224V863H907.778V854.576C907.778 852.008 905.882 849.92 903.074 849.92C901.682 849.92 900.554 850.448 899.666 851.48H899.618C898.946 850.496 897.626 849.92 896.354 849.92C895.01 849.92 893.714 850.472 893.018 851.408H892.97V850.28H889.802ZM910.028 850.28V863H913.46V850.28H910.028ZM909.98 844.832V848.192H913.46V844.832H909.98ZM915.841 850.28V863H919.273V855.464C919.273 854 920.137 853.088 921.577 853.088C923.041 853.088 923.881 853.952 923.881 855.464V863H927.313V854.864C927.313 853.352 926.881 852.152 926.017 851.264C925.177 850.376 924.049 849.92 922.657 849.92C921.241 849.92 919.897 850.472 919.153 851.408H919.105V850.28H915.841ZM929.358 858.656C929.358 861.608 931.038 863.36 933.918 863.36C935.286 863.36 936.606 862.808 937.35 861.872H937.398V863H940.662V850.28H937.23V857.864C937.23 859.304 936.366 860.216 934.998 860.216C933.534 860.216 932.79 859.424 932.79 857.864V850.28H929.358V858.656ZM947.588 853.304H950.732V850.28H947.588V847.088H944.156V850.28H941.972V853.304H944.156V858.896C944.156 861.848 945.404 863 948.548 863H950.276V859.712H948.884C947.9 859.712 947.588 859.472 947.588 858.68V853.304ZM951.43 856.64C951.43 860.648 953.926 863.36 957.502 863.36C959.926 863.36 961.774 862.4 962.998 860.48L960.574 858.584C959.686 859.904 958.75 860.48 957.502 860.48C955.942 860.48 954.982 859.448 954.886 857.648H963.406V856.64C963.406 852.632 960.958 849.92 957.43 849.92C953.926 849.92 951.43 852.68 951.43 856.64ZM960.07 855.224H954.886C955.006 853.76 956.038 852.8 957.454 852.8C959.014 852.8 959.95 853.688 960.07 855.224ZM964.315 858.896C964.867 861.776 967.003 863.36 970.267 863.36C971.827 863.36 973.051 863 973.987 862.28C974.923 861.536 975.379 860.576 975.379 859.4C975.379 858.488 975.139 857.744 974.659 857.168C973.699 856.016 972.451 855.584 970.459 855.008C968.803 854.528 968.179 854.288 968.179 853.712C968.179 853.136 968.803 852.704 969.787 852.704C970.867 852.704 971.731 853.328 972.139 854.552L975.163 853.664C974.851 852.536 974.203 851.648 973.219 850.952C972.235 850.256 971.083 849.92 969.787 849.92C967.051 849.92 964.987 851.6 964.987 853.76C965.107 856.256 966.787 856.928 969.427 857.672C970.123 857.888 970.627 858.08 970.963 858.224C971.659 858.488 972.187 858.872 972.187 859.52C972.187 860.168 971.491 860.552 970.267 860.552C968.635 860.552 967.771 859.808 967.363 858.08L964.315 858.896Z" fill="#FFCB04"/>
<path d="M986.108 851.96H989.228V850.28H986.108V847.4H984.236V850.28H982.316V851.96H984.236V860.072C984.236 862.256 985.052 863 987.356 863H988.556V861.248H987.5C986.468 861.248 986.108 860.936 986.108 860.096V851.96ZM990.323 856.64C990.323 860.648 992.723 863.36 996.299 863.36C999.899 863.36 1002.3 860.648 1002.3 856.64C1002.3 852.632 999.899 849.92 996.299 849.92C992.723 849.92 990.323 852.632 990.323 856.64ZM1000.43 856.64C1000.43 859.688 998.819 861.608 996.299 861.608C993.779 861.608 992.195 859.688 992.195 856.64C992.195 853.592 993.779 851.672 996.299 851.672C998.819 851.672 1000.43 853.592 1000.43 856.64ZM870.208 871.6V894H874.944V885.584H883.968V881.424H874.944V875.952H884.64V871.6H870.208ZM886.245 889.392C886.245 892.464 888.453 894.48 891.813 894.48C893.861 894.48 895.461 893.84 896.261 892.656H896.325V894H900.421V882.992C900.421 879.024 897.733 876.56 893.477 876.56C891.525 876.56 889.861 877.072 888.485 878.096C887.109 879.12 886.309 880.464 886.053 882.16L890.245 883.088C890.597 881.328 891.717 880.368 893.477 880.368C894.981 880.368 895.813 880.944 895.813 881.936C895.813 882.832 894.981 883.312 892.293 883.952C887.941 885.008 886.245 886.544 886.245 889.392ZM895.973 888.272C895.973 889.68 894.629 890.64 892.709 890.64C891.333 890.64 890.629 890.128 890.629 889.104C890.629 888.208 891.333 887.696 893.381 887.152C894.917 886.736 895.621 886.32 895.909 885.808H895.973V888.272ZM902.772 885.52C902.772 890.832 906.228 894.48 910.996 894.48C915.092 894.48 918.036 892.048 918.644 888.208L914.324 887.44C913.972 889.328 912.884 890.32 910.996 890.32C908.724 890.32 907.348 888.56 907.348 885.52C907.348 882.48 908.724 880.72 910.996 880.72C912.82 880.72 913.972 881.712 914.324 883.6L918.644 882.832C918.036 878.992 915.092 876.56 910.996 876.56C906.228 876.56 902.772 880.208 902.772 885.52ZM920.718 888.208C920.718 892.144 922.958 894.48 926.798 894.48C928.622 894.48 930.382 893.744 931.374 892.496H931.438V894H935.79V877.04H931.214V887.152C931.214 889.072 930.062 890.288 928.238 890.288C926.286 890.288 925.294 889.232 925.294 887.152V877.04H920.718V888.208ZM938.975 870.64V894H943.551V870.64H938.975ZM952.773 881.072H956.965V877.04H952.773V872.784H948.197V877.04H945.285V881.072H948.197V888.528C948.197 892.464 949.861 894 954.053 894H956.357V889.616H954.501C953.189 889.616 952.773 889.296 952.773 888.24V881.072ZM964.091 893.136L960.763 901.2H965.467L975.227 877.04H970.523L966.427 887.792H966.363L962.299 877.04H957.562L964.091 893.136ZM983.334 885.52C983.334 890.832 986.758 894.48 991.718 894.48C996.71 894.48 1000.13 890.864 1000.13 885.52C1000.13 880.176 996.71 876.56 991.718 876.56C986.758 876.56 983.334 880.208 983.334 885.52ZM995.558 885.52C995.558 888.56 994.15 890.32 991.718 890.32C989.318 890.32 987.91 888.56 987.91 885.52C987.91 882.48 989.318 880.72 991.718 880.72C994.15 880.72 995.558 882.48 995.558 885.52ZM1004.21 881.072V894H1008.78V881.072H1013.33V877.04H1008.78V875.76C1008.78 874.96 1009.2 874.576 1010.03 874.576H1012.62V870.512H1009.42C1006.09 870.512 1004.21 872.272 1004.21 875.312V877.04H1000.91V881.072H1004.21ZM868.608 917.608C869.408 922.728 872.736 925.48 878.08 925.48C882.976 925.48 886.336 922.888 886.336 919.016C886.336 917.192 885.728 915.72 884.544 914.536C883.36 913.352 881.376 912.296 878.592 911.336C875.264 910.216 874.304 909.576 874.304 908.424C874.304 907.176 875.456 906.376 877.216 906.376C879.264 906.376 880.512 907.432 881.12 909.704L885.728 908.712C885.024 904.776 881.6 902.12 877.216 902.12C872.768 902.12 869.632 904.712 869.632 908.456C869.632 910.088 870.176 911.464 871.264 912.52C872.352 913.576 874.208 914.536 876.8 915.4C880.544 916.68 881.6 917.448 881.6 919.016C881.6 920.424 880.352 921.224 878.144 921.224C875.168 921.224 873.856 919.944 873.248 916.616L868.608 917.608ZM887.866 916.52C887.866 921.832 891.322 925.48 896.09 925.48C900.186 925.48 903.13 923.048 903.738 919.208L899.418 918.44C899.066 920.328 897.978 921.32 896.09 921.32C893.818 921.32 892.442 919.56 892.442 916.52C892.442 913.48 893.818 911.72 896.09 911.72C897.914 911.72 899.066 912.712 899.418 914.6L903.738 913.832C903.13 909.992 900.186 907.56 896.09 907.56C891.322 907.56 887.866 911.208 887.866 916.52ZM906.131 908.04V925H910.707V908.04H906.131ZM906.067 900.776V905.256H910.707V900.776H906.067ZM913.209 916.52C913.209 921.864 916.537 925.48 921.305 925.48C924.537 925.48 927.001 924.2 928.633 921.64L925.401 919.112C924.217 920.872 922.969 921.64 921.305 921.64C919.225 921.64 917.945 920.264 917.817 917.864H929.177V916.52C929.177 911.176 925.913 907.56 921.209 907.56C916.537 907.56 913.209 911.24 913.209 916.52ZM924.729 914.632H917.817C917.977 912.68 919.353 911.4 921.241 911.4C923.321 911.4 924.569 912.584 924.729 914.632ZM931.694 908.04V925H936.27V914.952C936.27 913 937.422 911.784 939.342 911.784C941.294 911.784 942.414 912.936 942.414 914.952V925H946.99V914.152C946.99 912.136 946.414 910.536 945.262 909.352C944.142 908.168 942.638 907.56 940.782 907.56C938.894 907.56 937.102 908.296 936.11 909.544H936.046V908.04H931.694ZM949.366 916.52C949.366 921.832 952.822 925.48 957.59 925.48C961.686 925.48 964.63 923.048 965.238 919.208L960.918 918.44C960.566 920.328 959.478 921.32 957.59 921.32C955.318 921.32 953.942 919.56 953.942 916.52C953.942 913.48 955.318 911.72 957.59 911.72C959.414 911.72 960.566 912.712 960.918 914.6L965.238 913.832C964.63 909.992 961.686 907.56 957.59 907.56C952.822 907.56 949.366 911.208 949.366 916.52ZM966.959 916.52C966.959 921.864 970.287 925.48 975.055 925.48C978.287 925.48 980.751 924.2 982.383 921.64L979.151 919.112C977.967 920.872 976.719 921.64 975.055 921.64C972.975 921.64 971.695 920.264 971.567 917.864H982.927V916.52C982.927 911.176 979.663 907.56 974.959 907.56C970.287 907.56 966.959 911.24 966.959 916.52ZM978.479 914.632H971.567C971.727 912.68 973.103 911.4 974.991 911.4C977.071 911.4 978.319 912.584 978.479 914.632Z" fill="white"/>
<path d="M899.2 638.28V651H902.632V644.16C902.632 642.312 903.4 641.328 904.864 641.328C905.32 641.328 905.776 641.4 906.28 641.52L906.856 638.256C906.352 638.112 905.8 638.04 905.2 638.04C903.976 638.04 903.04 638.544 902.464 639.408H902.416V638.28H899.2ZM908.177 638.28V651H911.609V638.28H908.177ZM908.129 632.832V636.192H911.609V632.832H908.129ZM914.061 653.784C915.285 655.632 917.469 656.76 919.869 656.76C923.541 656.76 925.917 654.552 925.917 651.024V638.28H922.605V639.288H922.557C921.789 638.496 920.589 638.04 919.173 638.04C915.885 638.04 913.485 640.848 913.485 644.616C913.485 648.48 915.885 651.336 919.173 651.336C920.589 651.336 921.957 650.76 922.557 649.968H922.605V650.904C922.605 652.656 921.597 653.736 919.893 653.736C918.525 653.736 917.637 653.208 916.653 651.84L914.061 653.784ZM922.485 645.528C922.485 647.088 921.381 648.192 919.821 648.192C917.997 648.192 916.917 646.848 916.917 644.616C916.917 642.432 917.997 641.16 919.821 641.16C921.357 641.16 922.485 642.264 922.485 643.824V645.528ZM928.169 633.48V651H931.601V643.464C931.601 642 932.465 641.088 933.905 641.088C935.369 641.088 936.209 641.952 936.209 643.464V651H939.641V642.624C939.641 639.84 937.721 637.92 934.985 637.92C933.617 637.92 932.345 638.472 931.649 639.408H931.601V633.48H928.169ZM946.228 641.304H949.372V638.28H946.228V635.088H942.796V638.28H940.612V641.304H942.796V646.896C942.796 649.848 944.044 651 947.188 651H948.916V647.712H947.524C946.54 647.712 946.228 647.472 946.228 646.68V641.304ZM956.051 647.544C956.051 649.848 957.707 651.36 960.227 651.36C961.763 651.36 962.963 650.88 963.563 649.992H963.611V651H966.683V642.744C966.683 639.768 964.667 637.92 961.475 637.92C960.011 637.92 958.763 638.304 957.731 639.072C956.699 639.84 956.099 640.848 955.907 642.12L959.051 642.816C959.315 641.496 960.155 640.776 961.475 640.776C962.603 640.776 963.227 641.208 963.227 641.952C963.227 642.624 962.603 642.984 960.587 643.464C957.323 644.256 956.051 645.408 956.051 647.544ZM963.347 646.704C963.347 647.76 962.339 648.48 960.899 648.48C959.867 648.48 959.339 648.096 959.339 647.328C959.339 646.656 959.867 646.272 961.403 645.864C962.555 645.552 963.083 645.24 963.299 644.856H963.347V646.704ZM968.446 644.64C968.446 648.624 971.038 651.36 974.614 651.36C977.686 651.36 979.894 649.536 980.35 646.656L977.11 646.08C976.846 647.496 976.03 648.24 974.614 648.24C972.91 648.24 971.878 646.92 971.878 644.64C971.878 642.36 972.91 641.04 974.614 641.04C975.982 641.04 976.846 641.784 977.11 643.2L980.35 642.624C979.894 639.744 977.686 637.92 974.614 637.92C971.038 637.92 968.446 640.656 968.446 644.64ZM982.145 638.28V651H985.577V644.16C985.577 642.312 986.345 641.328 987.809 641.328C988.265 641.328 988.721 641.4 989.225 641.52L989.801 638.256C989.297 638.112 988.745 638.04 988.145 638.04C986.921 638.04 985.985 638.544 985.409 639.408H985.361V638.28H982.145ZM989.915 644.64C989.915 648.624 992.483 651.36 996.203 651.36C999.947 651.36 1002.51 648.648 1002.51 644.64C1002.51 640.632 999.947 637.92 996.203 637.92C992.483 637.92 989.915 640.656 989.915 644.64ZM999.083 644.64C999.083 646.92 998.027 648.24 996.203 648.24C994.403 648.24 993.347 646.92 993.347 644.64C993.347 642.36 994.403 641.04 996.203 641.04C998.027 641.04 999.083 642.36 999.083 644.64ZM1003.43 646.896C1003.98 649.776 1006.12 651.36 1009.38 651.36C1010.94 651.36 1012.17 651 1013.1 650.28C1014.04 649.536 1014.5 648.576 1014.5 647.4C1014.5 646.488 1014.26 645.744 1013.78 645.168C1012.82 644.016 1011.57 643.584 1009.58 643.008C1007.92 642.528 1007.3 642.288 1007.3 641.712C1007.3 641.136 1007.92 640.704 1008.9 640.704C1009.98 640.704 1010.85 641.328 1011.26 642.552L1014.28 641.664C1013.97 640.536 1013.32 639.648 1012.34 638.952C1011.35 638.256 1010.2 637.92 1008.9 637.92C1006.17 637.92 1004.1 639.6 1004.1 641.76C1004.22 644.256 1005.9 644.928 1008.54 645.672C1009.24 645.888 1009.74 646.08 1010.08 646.224C1010.78 646.488 1011.3 646.872 1011.3 647.52C1011.3 648.168 1010.61 648.552 1009.38 648.552C1007.75 648.552 1006.89 647.808 1006.48 646.08L1003.43 646.896ZM1015.2 646.896C1015.75 649.776 1017.89 651.36 1021.15 651.36C1022.71 651.36 1023.93 651 1024.87 650.28C1025.81 649.536 1026.26 648.576 1026.26 647.4C1026.26 646.488 1026.02 645.744 1025.54 645.168C1024.58 644.016 1023.33 643.584 1021.34 643.008C1019.69 642.528 1019.06 642.288 1019.06 641.712C1019.06 641.136 1019.69 640.704 1020.67 640.704C1021.75 640.704 1022.61 641.328 1023.02 642.552L1026.05 641.664C1025.73 640.536 1025.09 639.648 1024.1 638.952C1023.12 638.256 1021.97 637.92 1020.67 637.92C1017.93 637.92 1015.87 639.6 1015.87 641.76C1015.99 644.256 1017.67 644.928 1020.31 645.672C1021.01 645.888 1021.51 646.08 1021.85 646.224C1022.54 646.488 1023.07 646.872 1023.07 647.52C1023.07 648.168 1022.37 648.552 1021.15 648.552C1019.52 648.552 1018.65 647.808 1018.25 646.08L1015.2 646.896Z" fill="#FFCB04"/>
<path d="M900.048 674.608C900.048 679.568 903.248 682.48 908.656 682.48C914.064 682.48 917.264 679.568 917.264 674.608V659.6H912.528V674.352C912.528 676.912 911.248 678.16 908.656 678.16C906.064 678.16 904.784 676.88 904.784 674.288V659.6H900.048V674.608ZM920.913 665.04V682H925.489V671.952C925.489 670 926.641 668.784 928.561 668.784C930.513 668.784 931.633 669.936 931.633 671.952V682H936.208V671.152C936.208 669.136 935.633 667.536 934.481 666.352C933.361 665.168 931.857 664.56 930.001 664.56C928.113 664.56 926.321 665.296 925.329 666.544H925.265V665.04H920.913ZM939.256 665.04V682H943.832V665.04H939.256ZM939.192 657.776V662.256H943.832V657.776H939.192ZM945.406 665.04L952.478 682H956.702L963.774 665.04H958.91L954.622 676.016H954.558L950.27 665.04H945.406ZM963.772 673.52C963.772 678.864 967.1 682.48 971.868 682.48C975.1 682.48 977.564 681.2 979.196 678.64L975.964 676.112C974.78 677.872 973.532 678.64 971.868 678.64C969.788 678.64 968.508 677.264 968.38 674.864H979.74V673.52C979.74 668.176 976.476 664.56 971.772 664.56C967.1 664.56 963.772 668.24 963.772 673.52ZM975.292 671.632H968.38C968.54 669.68 969.916 668.4 971.804 668.4C973.884 668.4 975.132 669.584 975.292 671.632ZM982.256 665.04V682H986.832V672.88C986.832 670.416 987.856 669.104 989.808 669.104C990.416 669.104 991.024 669.2 991.696 669.36L992.464 665.008C991.792 664.816 991.056 664.72 990.256 664.72C988.624 664.72 987.376 665.392 986.608 666.544H986.544V665.04H982.256ZM992.296 676.528C993.032 680.368 995.88 682.48 1000.23 682.48C1002.31 682.48 1003.94 682 1005.19 681.04C1006.44 680.048 1007.05 678.768 1007.05 677.2C1007.05 675.984 1006.73 674.992 1006.09 674.224C1004.81 672.688 1003.14 672.112 1000.49 671.344C998.28 670.704 997.448 670.384 997.448 669.616C997.448 668.848 998.28 668.272 999.592 668.272C1001.03 668.272 1002.18 669.104 1002.73 670.736L1006.76 669.552C1006.34 668.048 1005.48 666.864 1004.17 665.936C1002.86 665.008 1001.32 664.56 999.592 664.56C995.944 664.56 993.192 666.8 993.192 669.68C993.352 673.008 995.592 673.904 999.112 674.896C1000.04 675.184 1000.71 675.44 1001.16 675.632C1002.09 675.984 1002.79 676.496 1002.79 677.36C1002.79 678.224 1001.86 678.736 1000.23 678.736C998.056 678.736 996.904 677.744 996.36 675.44L992.296 676.528ZM1009.26 665.04V682H1013.83V665.04H1009.26ZM1009.19 657.776V662.256H1013.83V657.776H1009.19ZM1023.05 669.072H1027.25V665.04H1023.05V660.784H1018.48V665.04H1015.57V669.072H1018.48V676.528C1018.48 680.464 1020.14 682 1024.33 682H1026.64V677.616H1024.78C1023.47 677.616 1023.05 677.296 1023.05 676.24V669.072ZM1034.37 681.136L1031.04 689.2H1035.75L1045.51 665.04H1040.8L1036.71 675.792H1036.64L1032.58 665.04H1027.84L1034.37 681.136ZM1055.86 659.6V682H1060.6V672.688H1067.86V682H1072.6V659.6H1067.86V668.368H1060.6V659.6H1055.86ZM1075.96 677.392C1075.96 680.464 1078.17 682.48 1081.53 682.48C1083.58 682.48 1085.18 681.84 1085.98 680.656H1086.04V682H1090.14V670.992C1090.14 667.024 1087.45 664.56 1083.2 664.56C1081.24 664.56 1079.58 665.072 1078.2 666.096C1076.83 667.12 1076.03 668.464 1075.77 670.16L1079.96 671.088C1080.32 669.328 1081.44 668.368 1083.2 668.368C1084.7 668.368 1085.53 668.944 1085.53 669.936C1085.53 670.832 1084.7 671.312 1082.01 671.952C1077.66 673.008 1075.96 674.544 1075.96 677.392ZM1085.69 676.272C1085.69 677.68 1084.35 678.64 1082.43 678.64C1081.05 678.64 1080.35 678.128 1080.35 677.104C1080.35 676.208 1081.05 675.696 1083.1 675.152C1084.64 674.736 1085.34 674.32 1085.63 673.808H1085.69V676.272ZM1093.16 658.64V682H1097.74V658.64H1093.16ZM1100.91 658.64V682H1105.49V658.64H1100.91Z" fill="white"/>
<path d="M1205.58 607.568V620H1209.02V603.872H1205.8L1201.58 606.344V609.92L1205.58 607.568ZM1211.73 615.848C1212.5 618.728 1215.11 620.36 1218.47 620.36C1222.26 620.36 1224.95 618.032 1224.95 614.672C1224.95 611.528 1222.43 609.2 1218.95 609.2C1217.75 609.2 1216.67 609.488 1215.71 610.064L1215.66 610.04L1216.24 607.016H1223.27V603.872H1213.65L1212.09 612.416L1215.23 613.256C1216.14 612.392 1217.22 611.96 1218.45 611.96C1220.25 611.96 1221.52 613.064 1221.52 614.624C1221.52 616.136 1220.22 617.24 1218.47 617.24C1216.65 617.24 1215.5 616.424 1215.02 614.768L1211.73 615.848ZM1232.83 607.28V620H1236.14V612.296C1236.14 610.928 1236.94 610.04 1238.18 610.04C1239.43 610.04 1240.22 610.856 1240.22 612.224V620H1243.39V612.296C1243.39 610.928 1244.21 610.04 1245.46 610.04C1246.7 610.04 1247.5 610.856 1247.5 612.224V620H1250.81V611.576C1250.81 609.008 1248.91 606.92 1246.1 606.92C1244.71 606.92 1243.58 607.448 1242.7 608.48H1242.65C1241.98 607.496 1240.66 606.92 1239.38 606.92C1238.04 606.92 1236.74 607.472 1236.05 608.408H1236V607.28H1232.83ZM1253.06 607.28V620H1256.49V607.28H1253.06ZM1253.01 601.832V605.192H1256.49V601.832H1253.01ZM1258.87 607.28V620H1262.3V612.464C1262.3 611 1263.17 610.088 1264.61 610.088C1266.07 610.088 1266.91 610.952 1266.91 612.464V620H1270.34V611.864C1270.34 610.352 1269.91 609.152 1269.05 608.264C1268.21 607.376 1267.08 606.92 1265.69 606.92C1264.27 606.92 1262.93 607.472 1262.18 608.408H1262.14V607.28H1258.87ZM1272.39 615.656C1272.39 618.608 1274.07 620.36 1276.95 620.36C1278.32 620.36 1279.64 619.808 1280.38 618.872H1280.43V620H1283.69V607.28H1280.26V614.864C1280.26 616.304 1279.4 617.216 1278.03 617.216C1276.57 617.216 1275.82 616.424 1275.82 614.864V607.28H1272.39V615.656ZM1290.62 610.304H1293.76V607.28H1290.62V604.088H1287.19V607.28H1285V610.304H1287.19V615.896C1287.19 618.848 1288.43 620 1291.58 620H1293.31V616.712H1291.91C1290.93 616.712 1290.62 616.472 1290.62 615.68V610.304ZM1294.46 613.64C1294.46 617.648 1296.96 620.36 1300.53 620.36C1302.96 620.36 1304.81 619.4 1306.03 617.48L1303.61 615.584C1302.72 616.904 1301.78 617.48 1300.53 617.48C1298.97 617.48 1298.01 616.448 1297.92 614.648H1306.44V613.64C1306.44 609.632 1303.99 606.92 1300.46 606.92C1296.96 606.92 1294.46 609.68 1294.46 613.64ZM1303.1 612.224H1297.92C1298.04 610.76 1299.07 609.8 1300.49 609.8C1302.05 609.8 1302.98 610.688 1303.1 612.224ZM1307.35 615.896C1307.9 618.776 1310.03 620.36 1313.3 620.36C1314.86 620.36 1316.08 620 1317.02 619.28C1317.95 618.536 1318.41 617.576 1318.41 616.4C1318.41 615.488 1318.17 614.744 1317.69 614.168C1316.73 613.016 1315.48 612.584 1313.49 612.008C1311.83 611.528 1311.21 611.288 1311.21 610.712C1311.21 610.136 1311.83 609.704 1312.82 609.704C1313.9 609.704 1314.76 610.328 1315.17 611.552L1318.19 610.664C1317.88 609.536 1317.23 608.648 1316.25 607.952C1315.27 607.256 1314.11 606.92 1312.82 606.92C1310.08 606.92 1308.02 608.6 1308.02 610.76C1308.14 613.256 1309.82 613.928 1312.46 614.672C1313.15 614.888 1313.66 615.08 1313.99 615.224C1314.69 615.488 1315.22 615.872 1315.22 616.52C1315.22 617.168 1314.52 617.552 1313.3 617.552C1311.67 617.552 1310.8 616.808 1310.39 615.08L1307.35 615.896Z" fill="#FFCB04"/>
<path d="M1329.14 608.96H1332.26V607.28H1329.14V604.4H1327.27V607.28H1325.35V608.96H1327.27V617.072C1327.27 619.256 1328.08 620 1330.39 620H1331.59V618.248H1330.53C1329.5 618.248 1329.14 617.936 1329.14 617.096V608.96ZM1333.35 613.64C1333.35 617.648 1335.75 620.36 1339.33 620.36C1342.93 620.36 1345.33 617.648 1345.33 613.64C1345.33 609.632 1342.93 606.92 1339.33 606.92C1335.75 606.92 1333.35 609.632 1333.35 613.64ZM1343.46 613.64C1343.46 616.688 1341.85 618.608 1339.33 618.608C1336.81 618.608 1335.23 616.688 1335.23 613.64C1335.23 610.592 1336.81 608.672 1339.33 608.672C1341.85 608.672 1343.46 610.592 1343.46 613.64ZM1203.21 628.6V651H1207.94V644.376L1209.86 642.04H1209.93L1216.07 651H1221.7L1212.84 638.52L1221.06 628.6H1215.53L1208.01 637.752H1207.94V628.6H1203.21ZM1221.71 642.52C1221.71 647.864 1225.04 651.48 1229.81 651.48C1233.04 651.48 1235.5 650.2 1237.13 647.64L1233.9 645.112C1232.72 646.872 1231.47 647.64 1229.81 647.64C1227.73 647.64 1226.45 646.264 1226.32 643.864H1237.68V642.52C1237.68 637.176 1234.41 633.56 1229.71 633.56C1225.04 633.56 1221.71 637.24 1221.71 642.52ZM1233.23 640.632H1226.32C1226.48 638.68 1227.85 637.4 1229.74 637.4C1231.82 637.4 1233.07 638.584 1233.23 640.632ZM1240.19 634.04V651H1244.77V640.952C1244.77 639 1245.92 637.784 1247.84 637.784C1249.79 637.784 1250.91 638.936 1250.91 640.952V651H1255.49V640.152C1255.49 638.136 1254.91 636.536 1253.76 635.352C1252.64 634.168 1251.14 633.56 1249.28 633.56C1247.39 633.56 1245.6 634.296 1244.61 635.544H1244.55V634.04H1240.19ZM1264.27 638.072H1268.47V634.04H1264.27V629.784H1259.7V634.04H1256.79V638.072H1259.7V645.528C1259.7 649.464 1261.36 651 1265.55 651H1267.86V646.616H1266C1264.69 646.616 1264.27 646.296 1264.27 645.24V638.072ZM1296.35 651L1291.81 642.616V642.584C1294.59 641.528 1296.19 639.064 1296.19 635.832C1296.19 631.352 1293.28 628.6 1288.55 628.6H1279.43V651H1284.16V643.128H1287.04L1291.27 651H1296.35ZM1287.97 638.808H1284.16V632.92H1287.97C1290.31 632.92 1291.46 633.88 1291.46 635.8C1291.46 637.752 1290.24 638.808 1287.97 638.808ZM1298.76 634.04V651H1303.33V634.04H1298.76ZM1298.69 626.776V631.256H1303.33V626.776H1298.69ZM1305.83 642.52C1305.83 647.672 1309.03 651.48 1313.42 651.48C1315.37 651.48 1317.1 650.648 1318.09 649.496H1318.15V651H1322.38V627.64H1317.8V635.064H1317.74C1316.68 634.072 1315.24 633.56 1313.42 633.56C1309.03 633.56 1305.83 637.368 1305.83 642.52ZM1317.8 643.736C1317.8 645.784 1316.33 647.288 1314.28 647.288C1311.82 647.288 1310.41 645.56 1310.41 642.52C1310.41 639.48 1311.82 637.752 1314.28 637.752C1316.33 637.752 1317.8 639.224 1317.8 641.304V643.736ZM1325.66 654.712C1327.3 657.176 1330.21 658.68 1333.41 658.68C1338.3 658.68 1341.47 655.736 1341.47 651.032V634.04H1337.06V635.384H1336.99C1335.97 634.328 1334.37 633.72 1332.48 633.72C1328.1 633.72 1324.9 637.464 1324.9 642.488C1324.9 647.64 1328.1 651.448 1332.48 651.448C1334.37 651.448 1336.19 650.68 1336.99 649.624H1337.06V650.872C1337.06 653.208 1335.71 654.648 1333.44 654.648C1331.62 654.648 1330.43 653.944 1329.12 652.12L1325.66 654.712ZM1336.9 643.704C1336.9 645.784 1335.42 647.256 1333.34 647.256C1330.91 647.256 1329.47 645.464 1329.47 642.488C1329.47 639.576 1330.91 637.88 1333.34 637.88C1335.39 637.88 1336.9 639.352 1336.9 641.432V643.704ZM1343.8 642.52C1343.8 647.864 1347.13 651.48 1351.9 651.48C1355.13 651.48 1357.6 650.2 1359.23 647.64L1356 645.112C1354.81 646.872 1353.56 647.64 1351.9 647.64C1349.82 647.64 1348.54 646.264 1348.41 643.864H1359.77V642.52C1359.77 637.176 1356.51 633.56 1351.8 633.56C1347.13 633.56 1343.8 637.24 1343.8 642.52ZM1355.32 640.632H1348.41C1348.57 638.68 1349.95 637.4 1351.84 637.4C1353.92 637.4 1355.16 638.584 1355.32 640.632ZM1203.21 659.6V682H1207.85V668.176H1207.91L1213.74 682H1215.78L1221.64 668.176H1221.7V682H1226.34V659.6H1221.1L1214.79 674.672H1214.73L1208.46 659.6H1203.21ZM1247.7 682L1243.15 673.616V673.584C1245.94 672.528 1247.54 670.064 1247.54 666.832C1247.54 662.352 1244.63 659.6 1239.89 659.6H1230.77V682H1235.51V674.128H1238.39L1242.61 682H1247.7ZM1239.31 669.808H1235.51V663.92H1239.31C1241.65 663.92 1242.8 664.88 1242.8 666.8C1242.8 668.752 1241.59 669.808 1239.31 669.808ZM1255.17 663.952V682H1259.91V663.952H1266.37V659.6H1248.67V663.952H1255.17ZM1275.89 674.608C1276.69 679.728 1280.02 682.48 1285.36 682.48C1290.26 682.48 1293.62 679.888 1293.62 676.016C1293.62 674.192 1293.01 672.72 1291.83 671.536C1290.64 670.352 1288.66 669.296 1285.87 668.336C1282.55 667.216 1281.59 666.576 1281.59 665.424C1281.59 664.176 1282.74 663.376 1284.5 663.376C1286.55 663.376 1287.79 664.432 1288.4 666.704L1293.01 665.712C1292.31 661.776 1288.88 659.12 1284.5 659.12C1280.05 659.12 1276.91 661.712 1276.91 665.456C1276.91 667.088 1277.46 668.464 1278.55 669.52C1279.63 670.576 1281.49 671.536 1284.08 672.4C1287.83 673.68 1288.88 674.448 1288.88 676.016C1288.88 677.424 1287.63 678.224 1285.43 678.224C1282.45 678.224 1281.14 676.944 1280.53 673.616L1275.89 674.608ZM1301.87 669.072H1306.06V665.04H1301.87V660.784H1297.29V665.04H1294.38V669.072H1297.29V676.528C1297.29 680.464 1298.95 682 1303.15 682H1305.45V677.616H1303.59C1302.28 677.616 1301.87 677.296 1301.87 676.24V669.072ZM1307.18 677.392C1307.18 680.464 1309.39 682.48 1312.75 682.48C1314.8 682.48 1316.4 681.84 1317.2 680.656H1317.26V682H1321.36V670.992C1321.36 667.024 1318.67 664.56 1314.41 664.56C1312.46 664.56 1310.8 665.072 1309.42 666.096C1308.05 667.12 1307.25 668.464 1306.99 670.16L1311.18 671.088C1311.53 669.328 1312.65 668.368 1314.41 668.368C1315.92 668.368 1316.75 668.944 1316.75 669.936C1316.75 670.832 1315.92 671.312 1313.23 671.952C1308.88 673.008 1307.18 674.544 1307.18 677.392ZM1316.91 676.272C1316.91 677.68 1315.57 678.64 1313.65 678.64C1312.27 678.64 1311.57 678.128 1311.57 677.104C1311.57 676.208 1312.27 675.696 1314.32 675.152C1315.85 674.736 1316.56 674.32 1316.85 673.808H1316.91V676.272ZM1330.12 669.072H1334.31V665.04H1330.12V660.784H1325.54V665.04H1322.63V669.072H1325.54V676.528C1325.54 680.464 1327.2 682 1331.4 682H1333.7V677.616H1331.84C1330.53 677.616 1330.12 677.296 1330.12 676.24V669.072ZM1336.51 665.04V682H1341.08V665.04H1336.51ZM1336.44 657.776V662.256H1341.08V657.776H1336.44ZM1343.58 673.52C1343.58 678.832 1347.01 682.48 1351.97 682.48C1356.96 682.48 1360.38 678.864 1360.38 673.52C1360.38 668.176 1356.96 664.56 1351.97 664.56C1347.01 664.56 1343.58 668.208 1343.58 673.52ZM1355.81 673.52C1355.81 676.56 1354.4 678.32 1351.97 678.32C1349.57 678.32 1348.16 676.56 1348.16 673.52C1348.16 670.48 1349.57 668.72 1351.97 668.72C1354.4 668.72 1355.81 670.48 1355.81 673.52ZM1362.91 665.04V682H1367.49V671.952C1367.49 670 1368.64 668.784 1370.56 668.784C1372.51 668.784 1373.63 669.936 1373.63 671.952V682H1378.21V671.152C1378.21 669.136 1377.63 667.536 1376.48 666.352C1375.36 665.168 1373.86 664.56 1372 664.56C1370.11 664.56 1368.32 665.296 1367.33 666.544H1367.26V665.04H1362.91Z" fill="white"/>
<path d="M483 462.5L510 495.5L547.5 516H649M483 462.5V431L458.5 406.5L449 372L432.5 315L404.5 289.5L389 276M483 462.5L432.5 468.5C422 486.5 400.4 523.3 398 526.5C395.6 529.7 375.667 556.167 366 569L312 608.5L255 644.5M389 276L432.5 246L449 199L381.5 36.5M389 276L351.5 235.5L268.5 215.5M649 516L661.5 540L701.5 495.5M649 516L658.25 473.5L667.5 431M268.5 215.5L274 162M268.5 215.5L222 207.5L115.5 221L27.5 199" stroke="#FFCB04" stroke-width="4"/>
<path d="M598.5 538H638L707.5 546V577.5L747 600.5L785 617L794 658L845.5 680.5L785 770L679 735.5V705L638 693V671.5L610.5 658V617L582 600.5L598.5 538Z" stroke="#00FFFF" stroke-width="4" stroke-linecap="square" stroke-linejoin="round" stroke-dasharray="5 10"/>
</g>
<defs>
<clipPath id="clip0">
<rect width="1382" height="999" rx="20" fill="white"/>
</clipPath>
</defs>
</svg>
