<svg width="1000" height="1383" viewBox="0 0 1000 1383" fill="none" xmlns="http://www.w3.org/2000/svg">
<g clip-path="url(#clip0)">
<path d="M317.5 845L285.5 932L260.5 1001.5L239 1039M239 1039L229.5 1106L247 1143.5L279.5 1215L285.5 1314.5L285.5 1369.5M239 1039L153 1055.5" stroke="#FFCB04" stroke-width="4"/>
<path d="M321.92 724L316.24 713.52V713.48C319.72 712.16 321.72 709.08 321.72 705.04C321.72 699.44 318.08 696 312.16 696H300.76V724H306.68V714.16H310.28L315.56 724H321.92ZM311.44 708.76H306.68V701.4H311.44C314.36 701.4 315.8 702.6 315.8 705C315.8 707.44 314.28 708.76 311.44 708.76ZM321.463 696L331.543 724H337.503L347.623 696H341.343L334.583 715.72H334.503L327.703 696H321.463ZM370.886 724L365.206 713.52V713.48C368.686 712.16 370.686 709.08 370.686 705.04C370.686 699.44 367.046 696 361.126 696H349.726V724H355.646V714.16H359.246L364.526 724H370.886ZM360.406 708.76H355.646V701.4H360.406C363.326 701.4 364.766 702.6 364.766 705C364.766 707.44 363.246 708.76 360.406 708.76ZM372.648 710C372.648 718.84 377.528 724.6 385.008 724.6C391.128 724.6 395.528 720.48 396.248 714.2L390.448 713.2C389.928 717.08 388.008 719.2 385.008 719.2C380.968 719.2 378.568 715.76 378.568 710C378.568 704.24 380.968 700.8 385.008 700.8C387.848 700.8 389.768 702.8 390.368 706.36L396.168 705.4C395.528 699.48 390.928 695.4 385.008 695.4C377.528 695.4 372.648 701.16 372.648 710Z" fill="#00FFFF"/>
<path d="M732.336 488.344C732.336 491.224 735.192 493.36 739.2 493.36C743.208 493.36 746.064 491.224 746.064 488.344C746.064 486.496 744.864 484.912 743.112 484.168V484.12C744.456 483.424 745.176 482.344 745.176 481C745.176 478.456 742.728 476.512 739.2 476.512C735.672 476.512 733.224 478.456 733.224 481C733.224 482.344 733.944 483.424 735.288 484.12V484.168C733.536 484.912 732.336 486.496 732.336 488.344ZM741.72 481.24C741.72 482.296 740.664 483.04 739.2 483.04C737.736 483.04 736.68 482.296 736.68 481.24C736.68 480.16 737.688 479.416 739.2 479.416C740.712 479.416 741.72 480.16 741.72 481.24ZM742.296 487.96C742.296 489.328 741.144 490.096 739.2 490.096C737.256 490.096 736.104 489.328 736.104 487.96C736.104 486.64 737.28 485.776 739.2 485.776C741.12 485.776 742.296 486.64 742.296 487.96ZM753.708 480.28V493H757.02V485.296C757.02 483.928 757.812 483.04 759.06 483.04C760.308 483.04 761.1 483.856 761.1 485.224V493H764.268V485.296C764.268 483.928 765.084 483.04 766.332 483.04C767.58 483.04 768.372 483.856 768.372 485.224V493H771.684V484.576C771.684 482.008 769.788 479.92 766.98 479.92C765.588 479.92 764.46 480.448 763.572 481.48H763.524C762.852 480.496 761.532 479.92 760.26 479.92C758.916 479.92 757.62 480.472 756.924 481.408H756.876V480.28H753.708ZM773.934 480.28V493H777.366V480.28H773.934ZM773.886 474.832V478.192H777.366V474.832H773.886ZM779.747 480.28V493H783.179V485.464C783.179 484 784.043 483.088 785.483 483.088C786.947 483.088 787.787 483.952 787.787 485.464V493H791.219V484.864C791.219 483.352 790.787 482.152 789.923 481.264C789.083 480.376 787.955 479.92 786.563 479.92C785.147 479.92 783.803 480.472 783.059 481.408H783.011V480.28H779.747ZM793.265 488.656C793.265 491.608 794.945 493.36 797.825 493.36C799.193 493.36 800.513 492.808 801.257 491.872H801.305V493H804.569V480.28H801.137V487.864C801.137 489.304 800.273 490.216 798.905 490.216C797.441 490.216 796.697 489.424 796.697 487.864V480.28H793.265V488.656ZM811.494 483.304H814.638V480.28H811.494V477.088H808.062V480.28H805.878V483.304H808.062V488.896C808.062 491.848 809.31 493 812.454 493H814.182V489.712H812.79C811.806 489.712 811.494 489.472 811.494 488.68V483.304ZM815.337 486.64C815.337 490.648 817.833 493.36 821.409 493.36C823.833 493.36 825.681 492.4 826.905 490.48L824.481 488.584C823.593 489.904 822.657 490.48 821.409 490.48C819.849 490.48 818.889 489.448 818.793 487.648H827.313V486.64C827.313 482.632 824.865 479.92 821.337 479.92C817.833 479.92 815.337 482.68 815.337 486.64ZM823.977 485.224H818.793C818.913 483.76 819.945 482.8 821.361 482.8C822.921 482.8 823.857 483.688 823.977 485.224ZM828.222 488.896C828.774 491.776 830.91 493.36 834.174 493.36C835.734 493.36 836.958 493 837.894 492.28C838.83 491.536 839.286 490.576 839.286 489.4C839.286 488.488 839.046 487.744 838.566 487.168C837.606 486.016 836.358 485.584 834.366 485.008C832.71 484.528 832.086 484.288 832.086 483.712C832.086 483.136 832.71 482.704 833.694 482.704C834.774 482.704 835.638 483.328 836.046 484.552L839.07 483.664C838.758 482.536 838.11 481.648 837.126 480.952C836.142 480.256 834.99 479.92 833.694 479.92C830.958 479.92 828.894 481.6 828.894 483.76C829.014 486.256 830.694 486.928 833.334 487.672C834.03 487.888 834.534 488.08 834.87 488.224C835.566 488.488 836.094 488.872 836.094 489.52C836.094 490.168 835.398 490.552 834.174 490.552C832.542 490.552 831.678 489.808 831.27 488.08L828.222 488.896Z" fill="#FFCB04"/>
<path d="M850.483 481.96H853.603V480.28H850.483V477.4H848.611V480.28H846.691V481.96H848.611V490.072C848.611 492.256 849.427 493 851.731 493H852.931V491.248H851.875C850.843 491.248 850.483 490.936 850.483 490.096V481.96ZM854.698 486.64C854.698 490.648 857.098 493.36 860.674 493.36C864.274 493.36 866.674 490.648 866.674 486.64C866.674 482.632 864.274 479.92 860.674 479.92C857.098 479.92 854.698 482.632 854.698 486.64ZM864.802 486.64C864.802 489.688 863.194 491.608 860.674 491.608C858.154 491.608 856.57 489.688 856.57 486.64C856.57 483.592 858.154 481.672 860.674 481.672C863.194 481.672 864.802 483.592 864.802 486.64ZM734.048 516.608C734.048 521.568 737.248 524.48 742.656 524.48C748.064 524.48 751.264 521.568 751.264 516.608V501.6H746.528V516.352C746.528 518.912 745.248 520.16 742.656 520.16C740.064 520.16 738.784 518.88 738.784 516.288V501.6H734.048V516.608ZM754.913 507.04V524H759.489V513.952C759.489 512 760.641 510.784 762.561 510.784C764.513 510.784 765.633 511.936 765.633 513.952V524H770.208V513.152C770.208 511.136 769.633 509.536 768.481 508.352C767.361 507.168 765.857 506.56 764.001 506.56C762.113 506.56 760.321 507.296 759.329 508.544H759.265V507.04H754.913ZM773.256 507.04V524H777.832V507.04H773.256ZM773.192 499.776V504.256H777.832V499.776H773.192ZM779.406 507.04L786.478 524H790.702L797.774 507.04H792.91L788.622 518.016H788.558L784.27 507.04H779.406ZM797.772 515.52C797.772 520.864 801.1 524.48 805.868 524.48C809.1 524.48 811.564 523.2 813.196 520.64L809.964 518.112C808.78 519.872 807.532 520.64 805.868 520.64C803.788 520.64 802.508 519.264 802.38 516.864H813.74V515.52C813.74 510.176 810.476 506.56 805.772 506.56C801.1 506.56 797.772 510.24 797.772 515.52ZM809.292 513.632H802.38C802.54 511.68 803.916 510.4 805.804 510.4C807.884 510.4 809.132 511.584 809.292 513.632ZM816.256 507.04V524H820.832V514.88C820.832 512.416 821.856 511.104 823.808 511.104C824.416 511.104 825.024 511.2 825.696 511.36L826.464 507.008C825.792 506.816 825.056 506.72 824.256 506.72C822.624 506.72 821.376 507.392 820.608 508.544H820.544V507.04H816.256ZM826.296 518.528C827.032 522.368 829.88 524.48 834.232 524.48C836.312 524.48 837.944 524 839.192 523.04C840.44 522.048 841.048 520.768 841.048 519.2C841.048 517.984 840.728 516.992 840.088 516.224C838.808 514.688 837.144 514.112 834.488 513.344C832.28 512.704 831.448 512.384 831.448 511.616C831.448 510.848 832.28 510.272 833.592 510.272C835.032 510.272 836.184 511.104 836.728 512.736L840.76 511.552C840.344 510.048 839.48 508.864 838.168 507.936C836.856 507.008 835.32 506.56 833.592 506.56C829.944 506.56 827.192 508.8 827.192 511.68C827.352 515.008 829.592 515.904 833.112 516.896C834.04 517.184 834.712 517.44 835.16 517.632C836.088 517.984 836.792 518.496 836.792 519.36C836.792 520.224 835.864 520.736 834.232 520.736C832.056 520.736 830.904 519.744 830.36 517.44L826.296 518.528ZM843.256 507.04V524H847.832V507.04H843.256ZM843.192 499.776V504.256H847.832V499.776H843.192ZM857.054 511.072H861.246V507.04H857.054V502.784H852.478V507.04H849.566V511.072H852.478V518.528C852.478 522.464 854.142 524 858.334 524H860.638V519.616H858.782C857.47 519.616 857.054 519.296 857.054 518.24V511.072ZM868.372 523.136L865.044 531.2H869.748L879.508 507.04H874.804L870.708 517.792H870.644L866.58 507.04H861.844L868.372 523.136ZM892.358 505.952V524H897.094V505.952H903.558V501.6H885.862V505.952H892.358ZM901.741 515.52C901.741 520.832 905.165 524.48 910.125 524.48C915.117 524.48 918.541 520.864 918.541 515.52C918.541 510.176 915.117 506.56 910.125 506.56C905.165 506.56 901.741 510.208 901.741 515.52ZM913.965 515.52C913.965 518.56 912.557 520.32 910.125 520.32C907.725 520.32 906.317 518.56 906.317 515.52C906.317 512.48 907.725 510.72 910.125 510.72C912.557 510.72 913.965 512.48 913.965 515.52ZM919.324 507.04L923.132 524H927.708L931.58 512.352H931.644L935.516 524H940.06L943.9 507.04H939.356L937.18 517.856H937.116L933.596 507.04H929.628L926.076 517.856H926.012L923.868 507.04H919.324ZM945.944 507.04V524H950.52V513.952C950.52 512 951.672 510.784 953.592 510.784C955.544 510.784 956.664 511.936 956.664 513.952V524H961.24V513.152C961.24 511.136 960.664 509.536 959.512 508.352C958.392 507.168 956.888 506.56 955.032 506.56C953.144 506.56 951.352 507.296 950.36 508.544H950.296V507.04H945.944Z" fill="white"/>
<path d="M611.208 689.856C611.208 689.304 611.28 689.04 611.496 688.752C611.664 688.536 611.928 688.32 612.312 688.104C612.72 687.888 613.56 687.504 614.832 686.952C618.096 685.512 619.584 683.904 619.584 681.528C619.584 678.648 617.112 676.512 613.632 676.512C609.792 676.512 607.272 678.696 607.056 682.32L610.464 682.584C610.632 680.664 611.736 679.632 613.632 679.632C615.192 679.632 616.152 680.352 616.152 681.504C616.152 682.704 615.288 683.424 612.408 684.648C610.368 685.512 609.12 686.304 608.328 687.24C607.632 688.032 607.296 689.16 607.296 690.624V693H619.44V689.856H611.208ZM627.989 680.28V693H631.301V685.296C631.301 683.928 632.093 683.04 633.341 683.04C634.589 683.04 635.381 683.856 635.381 685.224V693H638.549V685.296C638.549 683.928 639.365 683.04 640.613 683.04C641.861 683.04 642.653 683.856 642.653 685.224V693H645.965V684.576C645.965 682.008 644.069 679.92 641.261 679.92C639.869 679.92 638.741 680.448 637.853 681.48H637.805C637.133 680.496 635.813 679.92 634.541 679.92C633.197 679.92 631.901 680.472 631.205 681.408H631.157V680.28H627.989ZM648.216 680.28V693H651.648V680.28H648.216ZM648.168 674.832V678.192H651.648V674.832H648.168ZM654.028 680.28V693H657.46V685.464C657.46 684 658.324 683.088 659.764 683.088C661.228 683.088 662.068 683.952 662.068 685.464V693H665.5V684.864C665.5 683.352 665.068 682.152 664.204 681.264C663.364 680.376 662.236 679.92 660.844 679.92C659.428 679.92 658.084 680.472 657.34 681.408H657.292V680.28H654.028ZM667.546 688.656C667.546 691.608 669.226 693.36 672.106 693.36C673.474 693.36 674.794 692.808 675.538 691.872H675.586V693H678.85V680.28H675.418V687.864C675.418 689.304 674.554 690.216 673.186 690.216C671.722 690.216 670.978 689.424 670.978 687.864V680.28H667.546V688.656ZM685.775 683.304H688.919V680.28H685.775V677.088H682.343V680.28H680.159V683.304H682.343V688.896C682.343 691.848 683.591 693 686.735 693H688.463V689.712H687.071C686.087 689.712 685.775 689.472 685.775 688.68V683.304ZM689.618 686.64C689.618 690.648 692.114 693.36 695.69 693.36C698.114 693.36 699.962 692.4 701.186 690.48L698.762 688.584C697.874 689.904 696.938 690.48 695.69 690.48C694.13 690.48 693.17 689.448 693.074 687.648H701.594V686.64C701.594 682.632 699.146 679.92 695.618 679.92C692.114 679.92 689.618 682.68 689.618 686.64ZM698.258 685.224H693.074C693.194 683.76 694.226 682.8 695.642 682.8C697.202 682.8 698.138 683.688 698.258 685.224ZM702.503 688.896C703.055 691.776 705.191 693.36 708.455 693.36C710.015 693.36 711.239 693 712.175 692.28C713.111 691.536 713.567 690.576 713.567 689.4C713.567 688.488 713.327 687.744 712.847 687.168C711.887 686.016 710.639 685.584 708.647 685.008C706.991 684.528 706.367 684.288 706.367 683.712C706.367 683.136 706.991 682.704 707.975 682.704C709.055 682.704 709.919 683.328 710.327 684.552L713.351 683.664C713.039 682.536 712.391 681.648 711.407 680.952C710.423 680.256 709.271 679.92 707.975 679.92C705.239 679.92 703.175 681.6 703.175 683.76C703.295 686.256 704.975 686.928 707.615 687.672C708.311 687.888 708.815 688.08 709.151 688.224C709.847 688.488 710.375 688.872 710.375 689.52C710.375 690.168 709.679 690.552 708.455 690.552C706.823 690.552 705.959 689.808 705.551 688.08L702.503 688.896Z" fill="#FFCB04"/>
<path d="M724.764 681.96H727.884V680.28H724.764V677.4H722.892V680.28H720.972V681.96H722.892V690.072C722.892 692.256 723.708 693 726.012 693H727.212V691.248H726.156C725.124 691.248 724.764 690.936 724.764 690.096V681.96ZM728.979 686.64C728.979 690.648 731.379 693.36 734.955 693.36C738.555 693.36 740.955 690.648 740.955 686.64C740.955 682.632 738.555 679.92 734.955 679.92C731.379 679.92 728.979 682.632 728.979 686.64ZM739.083 686.64C739.083 689.688 737.475 691.608 734.955 691.608C732.435 691.608 730.851 689.688 730.851 686.64C730.851 683.592 732.435 681.672 734.955 681.672C737.475 681.672 739.083 683.592 739.083 686.64ZM608.048 716.608C608.048 721.568 611.248 724.48 616.656 724.48C622.064 724.48 625.264 721.568 625.264 716.608V701.6H620.528V716.352C620.528 718.912 619.248 720.16 616.656 720.16C614.064 720.16 612.784 718.88 612.784 716.288V701.6H608.048V716.608ZM628.913 707.04V724H633.489V713.952C633.489 712 634.641 710.784 636.561 710.784C638.513 710.784 639.633 711.936 639.633 713.952V724H644.208V713.152C644.208 711.136 643.633 709.536 642.481 708.352C641.361 707.168 639.857 706.56 638.001 706.56C636.113 706.56 634.321 707.296 633.329 708.544H633.265V707.04H628.913ZM647.256 707.04V724H651.832V707.04H647.256ZM647.192 699.776V704.256H651.832V699.776H647.192ZM653.406 707.04L660.478 724H664.702L671.774 707.04H666.91L662.622 718.016H662.558L658.27 707.04H653.406ZM671.772 715.52C671.772 720.864 675.1 724.48 679.868 724.48C683.1 724.48 685.564 723.2 687.196 720.64L683.964 718.112C682.78 719.872 681.532 720.64 679.868 720.64C677.788 720.64 676.508 719.264 676.38 716.864H687.74V715.52C687.74 710.176 684.476 706.56 679.772 706.56C675.1 706.56 671.772 710.24 671.772 715.52ZM683.292 713.632H676.38C676.54 711.68 677.916 710.4 679.804 710.4C681.884 710.4 683.132 711.584 683.292 713.632ZM690.256 707.04V724H694.832V714.88C694.832 712.416 695.856 711.104 697.808 711.104C698.416 711.104 699.024 711.2 699.696 711.36L700.464 707.008C699.792 706.816 699.056 706.72 698.256 706.72C696.624 706.72 695.376 707.392 694.608 708.544H694.544V707.04H690.256ZM700.296 718.528C701.032 722.368 703.88 724.48 708.232 724.48C710.312 724.48 711.944 724 713.192 723.04C714.44 722.048 715.048 720.768 715.048 719.2C715.048 717.984 714.728 716.992 714.088 716.224C712.808 714.688 711.144 714.112 708.488 713.344C706.28 712.704 705.448 712.384 705.448 711.616C705.448 710.848 706.28 710.272 707.592 710.272C709.032 710.272 710.184 711.104 710.728 712.736L714.76 711.552C714.344 710.048 713.48 708.864 712.168 707.936C710.856 707.008 709.32 706.56 707.592 706.56C703.944 706.56 701.192 708.8 701.192 711.68C701.352 715.008 703.592 715.904 707.112 716.896C708.04 717.184 708.712 717.44 709.16 717.632C710.088 717.984 710.792 718.496 710.792 719.36C710.792 720.224 709.864 720.736 708.232 720.736C706.056 720.736 704.904 719.744 704.36 717.44L700.296 718.528ZM717.256 707.04V724H721.832V707.04H717.256ZM717.192 699.776V704.256H721.832V699.776H717.192ZM731.054 711.072H735.246V707.04H731.054V702.784H726.478V707.04H723.566V711.072H726.478V718.528C726.478 722.464 728.142 724 732.334 724H734.638V719.616H732.782C731.47 719.616 731.054 719.296 731.054 718.24V711.072ZM742.372 723.136L739.044 731.2H743.748L753.508 707.04H748.804L744.708 717.792H744.644L740.58 707.04H735.844L742.372 723.136ZM606.608 747.608C607.408 752.728 610.736 755.48 616.08 755.48C620.976 755.48 624.336 752.888 624.336 749.016C624.336 747.192 623.728 745.72 622.544 744.536C621.36 743.352 619.376 742.296 616.592 741.336C613.264 740.216 612.304 739.576 612.304 738.424C612.304 737.176 613.456 736.376 615.216 736.376C617.264 736.376 618.512 737.432 619.12 739.704L623.728 738.712C623.024 734.776 619.6 732.12 615.216 732.12C610.768 732.12 607.632 734.712 607.632 738.456C607.632 740.088 608.176 741.464 609.264 742.52C610.352 743.576 612.208 744.536 614.8 745.4C618.544 746.68 619.6 747.448 619.6 749.016C619.6 750.424 618.352 751.224 616.144 751.224C613.168 751.224 611.856 749.944 611.248 746.616L606.608 747.608ZM626.538 738.04V762.2H631.114V753.816H631.178C632.074 754.84 633.738 755.48 635.53 755.48C639.882 755.48 643.082 751.672 643.082 746.52C643.082 741.368 639.882 737.56 635.498 737.56C633.674 737.56 632.106 738.168 630.986 739.224H630.922V738.04H626.538ZM638.506 746.52C638.506 749.56 637.098 751.32 634.634 751.32C632.586 751.32 631.114 749.784 631.114 747.736V745.304C631.114 743.224 632.586 741.752 634.634 741.752C637.098 741.752 638.506 743.48 638.506 746.52ZM644.928 746.52C644.928 751.832 648.352 755.48 653.312 755.48C658.304 755.48 661.728 751.864 661.728 746.52C661.728 741.176 658.304 737.56 653.312 737.56C648.352 737.56 644.928 741.208 644.928 746.52ZM657.152 746.52C657.152 749.56 655.744 751.32 653.312 751.32C650.912 751.32 649.504 749.56 649.504 746.52C649.504 743.48 650.912 741.72 653.312 741.72C655.744 741.72 657.152 743.48 657.152 746.52ZM664.256 738.04V755H668.832V745.88C668.832 743.416 669.856 742.104 671.808 742.104C672.416 742.104 673.024 742.2 673.696 742.36L674.464 738.008C673.792 737.816 673.056 737.72 672.256 737.72C670.624 737.72 669.376 738.392 668.608 739.544H668.544V738.04H664.256ZM682.617 742.072H686.809V738.04H682.617V733.784H678.041V738.04H675.129V742.072H678.041V749.528C678.041 753.464 679.705 755 683.897 755H686.201V750.616H684.345C683.033 750.616 682.617 750.296 682.617 749.24V742.072ZM687.389 749.528C688.125 753.368 690.973 755.48 695.325 755.48C697.405 755.48 699.037 755 700.285 754.04C701.533 753.048 702.141 751.768 702.141 750.2C702.141 748.984 701.821 747.992 701.181 747.224C699.901 745.688 698.237 745.112 695.581 744.344C693.373 743.704 692.541 743.384 692.541 742.616C692.541 741.848 693.373 741.272 694.685 741.272C696.125 741.272 697.277 742.104 697.821 743.736L701.853 742.552C701.437 741.048 700.573 739.864 699.261 738.936C697.949 738.008 696.413 737.56 694.685 737.56C691.037 737.56 688.285 739.8 688.285 742.68C688.445 746.008 690.685 746.904 694.205 747.896C695.133 748.184 695.805 748.44 696.253 748.632C697.181 748.984 697.885 749.496 697.885 750.36C697.885 751.224 696.957 751.736 695.325 751.736C693.149 751.736 691.997 750.744 691.453 748.44L687.389 749.528ZM711.209 743.8C711.209 750.872 715.113 755.48 721.097 755.48C725.993 755.48 729.513 752.184 730.089 747.16L725.449 746.36C725.033 749.464 723.497 751.16 721.097 751.16C717.865 751.16 715.945 748.408 715.945 743.8C715.945 739.192 717.865 736.44 721.097 736.44C723.369 736.44 724.905 738.04 725.385 740.888L730.025 740.12C729.513 735.384 725.833 732.12 721.097 732.12C715.113 732.12 711.209 736.728 711.209 743.8ZM731.584 746.52C731.584 751.864 734.912 755.48 739.68 755.48C742.912 755.48 745.376 754.2 747.008 751.64L743.776 749.112C742.592 750.872 741.344 751.64 739.68 751.64C737.6 751.64 736.32 750.264 736.192 747.864H747.552V746.52C747.552 741.176 744.288 737.56 739.584 737.56C734.912 737.56 731.584 741.24 731.584 746.52ZM743.104 744.632H736.192C736.352 742.68 737.728 741.4 739.616 741.4C741.696 741.4 742.944 742.584 743.104 744.632ZM750.069 738.04V755H754.645V744.952C754.645 743 755.797 741.784 757.717 741.784C759.669 741.784 760.789 742.936 760.789 744.952V755H765.365V744.152C765.365 742.136 764.789 740.536 763.637 739.352C762.517 738.168 761.013 737.56 759.157 737.56C757.269 737.56 755.477 738.296 754.485 739.544H754.421V738.04H750.069ZM774.148 742.072H778.34V738.04H774.148V733.784H769.572V738.04H766.66V742.072H769.572V749.528C769.572 753.464 771.236 755 775.428 755H777.732V750.616H775.876C774.564 750.616 774.148 750.296 774.148 749.24V742.072ZM780.538 738.04V755H785.114V745.88C785.114 743.416 786.138 742.104 788.09 742.104C788.698 742.104 789.306 742.2 789.978 742.36L790.746 738.008C790.074 737.816 789.338 737.72 788.538 737.72C786.906 737.72 785.658 738.392 784.89 739.544H784.826V738.04H780.538ZM790.897 746.52C790.897 751.864 794.225 755.48 798.993 755.48C802.225 755.48 804.689 754.2 806.321 751.64L803.089 749.112C801.905 750.872 800.657 751.64 798.993 751.64C796.913 751.64 795.633 750.264 795.505 747.864H806.865V746.52C806.865 741.176 803.601 737.56 798.897 737.56C794.225 737.56 790.897 741.24 790.897 746.52ZM802.417 744.632H795.505C795.665 742.68 797.041 741.4 798.929 741.4C801.009 741.4 802.257 742.584 802.417 744.632Z" fill="white"/>
<path d="M443.2 751.28V764H446.632V757.16C446.632 755.312 447.4 754.328 448.864 754.328C449.32 754.328 449.776 754.4 450.28 754.52L450.856 751.256C450.352 751.112 449.8 751.04 449.2 751.04C447.976 751.04 447.04 751.544 446.464 752.408H446.416V751.28H443.2ZM452.177 751.28V764H455.609V751.28H452.177ZM452.129 745.832V749.192H455.609V745.832H452.129ZM458.061 766.784C459.285 768.632 461.469 769.76 463.869 769.76C467.541 769.76 469.917 767.552 469.917 764.024V751.28H466.605V752.288H466.557C465.789 751.496 464.589 751.04 463.173 751.04C459.885 751.04 457.485 753.848 457.485 757.616C457.485 761.48 459.885 764.336 463.173 764.336C464.589 764.336 465.957 763.76 466.557 762.968H466.605V763.904C466.605 765.656 465.597 766.736 463.893 766.736C462.525 766.736 461.637 766.208 460.653 764.84L458.061 766.784ZM466.485 758.528C466.485 760.088 465.381 761.192 463.821 761.192C461.997 761.192 460.917 759.848 460.917 757.616C460.917 755.432 461.997 754.16 463.821 754.16C465.357 754.16 466.485 755.264 466.485 756.824V758.528ZM472.169 746.48V764H475.601V756.464C475.601 755 476.465 754.088 477.905 754.088C479.369 754.088 480.209 754.952 480.209 756.464V764H483.641V755.624C483.641 752.84 481.721 750.92 478.985 750.92C477.617 750.92 476.345 751.472 475.649 752.408H475.601V746.48H472.169ZM490.228 754.304H493.372V751.28H490.228V748.088H486.796V751.28H484.612V754.304H486.796V759.896C486.796 762.848 488.044 764 491.188 764H492.916V760.712H491.524C490.54 760.712 490.228 760.472 490.228 759.68V754.304ZM500.051 760.544C500.051 762.848 501.707 764.36 504.227 764.36C505.763 764.36 506.963 763.88 507.563 762.992H507.611V764H510.683V755.744C510.683 752.768 508.667 750.92 505.475 750.92C504.011 750.92 502.763 751.304 501.731 752.072C500.699 752.84 500.099 753.848 499.907 755.12L503.051 755.816C503.315 754.496 504.155 753.776 505.475 753.776C506.603 753.776 507.227 754.208 507.227 754.952C507.227 755.624 506.603 755.984 504.587 756.464C501.323 757.256 500.051 758.408 500.051 760.544ZM507.347 759.704C507.347 760.76 506.339 761.48 504.899 761.48C503.867 761.48 503.339 761.096 503.339 760.328C503.339 759.656 503.867 759.272 505.403 758.864C506.555 758.552 507.083 758.24 507.299 757.856H507.347V759.704ZM512.446 757.64C512.446 761.624 515.038 764.36 518.614 764.36C521.686 764.36 523.894 762.536 524.35 759.656L521.11 759.08C520.846 760.496 520.03 761.24 518.614 761.24C516.91 761.24 515.878 759.92 515.878 757.64C515.878 755.36 516.91 754.04 518.614 754.04C519.982 754.04 520.846 754.784 521.11 756.2L524.35 755.624C523.894 752.744 521.686 750.92 518.614 750.92C515.038 750.92 512.446 753.656 512.446 757.64ZM526.145 751.28V764H529.577V757.16C529.577 755.312 530.345 754.328 531.809 754.328C532.265 754.328 532.721 754.4 533.225 754.52L533.801 751.256C533.297 751.112 532.745 751.04 532.145 751.04C530.921 751.04 529.985 751.544 529.409 752.408H529.361V751.28H526.145ZM533.915 757.64C533.915 761.624 536.483 764.36 540.203 764.36C543.947 764.36 546.515 761.648 546.515 757.64C546.515 753.632 543.947 750.92 540.203 750.92C536.483 750.92 533.915 753.656 533.915 757.64ZM543.083 757.64C543.083 759.92 542.027 761.24 540.203 761.24C538.403 761.24 537.347 759.92 537.347 757.64C537.347 755.36 538.403 754.04 540.203 754.04C542.027 754.04 543.083 755.36 543.083 757.64ZM547.433 759.896C547.985 762.776 550.121 764.36 553.385 764.36C554.945 764.36 556.169 764 557.105 763.28C558.041 762.536 558.497 761.576 558.497 760.4C558.497 759.488 558.257 758.744 557.777 758.168C556.817 757.016 555.569 756.584 553.577 756.008C551.921 755.528 551.297 755.288 551.297 754.712C551.297 754.136 551.921 753.704 552.905 753.704C553.985 753.704 554.849 754.328 555.257 755.552L558.281 754.664C557.969 753.536 557.321 752.648 556.337 751.952C555.353 751.256 554.201 750.92 552.905 750.92C550.169 750.92 548.105 752.6 548.105 754.76C548.225 757.256 549.905 757.928 552.545 758.672C553.241 758.888 553.745 759.08 554.081 759.224C554.777 759.488 555.305 759.872 555.305 760.52C555.305 761.168 554.609 761.552 553.385 761.552C551.753 761.552 550.889 760.808 550.481 759.08L547.433 759.896ZM559.198 759.896C559.75 762.776 561.886 764.36 565.15 764.36C566.71 764.36 567.934 764 568.87 763.28C569.806 762.536 570.262 761.576 570.262 760.4C570.262 759.488 570.022 758.744 569.542 758.168C568.582 757.016 567.334 756.584 565.342 756.008C563.686 755.528 563.062 755.288 563.062 754.712C563.062 754.136 563.686 753.704 564.67 753.704C565.75 753.704 566.614 754.328 567.022 755.552L570.046 754.664C569.734 753.536 569.086 752.648 568.102 751.952C567.118 751.256 565.966 750.92 564.67 750.92C561.934 750.92 559.87 752.6 559.87 754.76C559.99 757.256 561.67 757.928 564.31 758.672C565.006 758.888 565.51 759.08 565.846 759.224C566.542 759.488 567.07 759.872 567.07 760.52C567.07 761.168 566.374 761.552 565.15 761.552C563.518 761.552 562.654 760.808 562.246 759.08L559.198 759.896Z" fill="#FFCB04"/>
<path d="M444.048 787.608C444.048 792.568 447.248 795.48 452.656 795.48C458.064 795.48 461.264 792.568 461.264 787.608V772.6H456.528V787.352C456.528 789.912 455.248 791.16 452.656 791.16C450.064 791.16 448.784 789.88 448.784 787.288V772.6H444.048V787.608ZM464.913 778.04V795H469.489V784.952C469.489 783 470.641 781.784 472.561 781.784C474.513 781.784 475.633 782.936 475.633 784.952V795H480.208V784.152C480.208 782.136 479.633 780.536 478.481 779.352C477.361 778.168 475.857 777.56 474.001 777.56C472.113 777.56 470.321 778.296 469.329 779.544H469.265V778.04H464.913ZM483.256 778.04V795H487.832V778.04H483.256ZM483.192 770.776V775.256H487.832V770.776H483.192ZM489.406 778.04L496.478 795H500.702L507.774 778.04H502.91L498.622 789.016H498.558L494.27 778.04H489.406ZM507.772 786.52C507.772 791.864 511.1 795.48 515.868 795.48C519.1 795.48 521.564 794.2 523.196 791.64L519.964 789.112C518.78 790.872 517.532 791.64 515.868 791.64C513.788 791.64 512.508 790.264 512.38 787.864H523.74V786.52C523.74 781.176 520.476 777.56 515.772 777.56C511.1 777.56 507.772 781.24 507.772 786.52ZM519.292 784.632H512.38C512.54 782.68 513.916 781.4 515.804 781.4C517.884 781.4 519.132 782.584 519.292 784.632ZM526.256 778.04V795H530.832V785.88C530.832 783.416 531.856 782.104 533.808 782.104C534.416 782.104 535.024 782.2 535.696 782.36L536.464 778.008C535.792 777.816 535.056 777.72 534.256 777.72C532.624 777.72 531.376 778.392 530.608 779.544H530.544V778.04H526.256ZM536.296 789.528C537.032 793.368 539.88 795.48 544.232 795.48C546.312 795.48 547.944 795 549.192 794.04C550.44 793.048 551.048 791.768 551.048 790.2C551.048 788.984 550.728 787.992 550.088 787.224C548.808 785.688 547.144 785.112 544.488 784.344C542.28 783.704 541.448 783.384 541.448 782.616C541.448 781.848 542.28 781.272 543.592 781.272C545.032 781.272 546.184 782.104 546.728 783.736L550.76 782.552C550.344 781.048 549.48 779.864 548.168 778.936C546.856 778.008 545.32 777.56 543.592 777.56C539.944 777.56 537.192 779.8 537.192 782.68C537.352 786.008 539.592 786.904 543.112 787.896C544.04 788.184 544.712 788.44 545.16 788.632C546.088 788.984 546.792 789.496 546.792 790.36C546.792 791.224 545.864 791.736 544.232 791.736C542.056 791.736 540.904 790.744 540.36 788.44L536.296 789.528ZM553.256 778.04V795H557.832V778.04H553.256ZM553.192 770.776V775.256H557.832V770.776H553.192ZM567.054 782.072H571.246V778.04H567.054V773.784H562.478V778.04H559.566V782.072H562.478V789.528C562.478 793.464 564.142 795 568.334 795H570.638V790.616H568.782C567.47 790.616 567.054 790.296 567.054 789.24V782.072ZM578.372 794.136L575.044 802.2H579.748L589.508 778.04H584.804L580.708 788.792H580.644L576.58 778.04H571.844L578.372 794.136ZM444.208 803.6V826H448.944V816.688H456.208V826H460.944V803.6H456.208V812.368H448.944V803.6H444.208ZM464.116 817.52C464.116 822.864 467.444 826.48 472.212 826.48C475.444 826.48 477.908 825.2 479.54 822.64L476.308 820.112C475.124 821.872 473.876 822.64 472.212 822.64C470.132 822.64 468.852 821.264 468.724 818.864H480.083V817.52C480.083 812.176 476.82 808.56 472.116 808.56C467.444 808.56 464.116 812.24 464.116 817.52ZM475.636 815.632H468.724C468.884 813.68 470.26 812.4 472.148 812.4C474.228 812.4 475.476 813.584 475.636 815.632ZM481.808 821.392C481.808 824.464 484.016 826.48 487.376 826.48C489.424 826.48 491.024 825.84 491.824 824.656H491.888V826H495.984V814.992C495.984 811.024 493.296 808.56 489.04 808.56C487.088 808.56 485.424 809.072 484.048 810.096C482.672 811.12 481.872 812.464 481.616 814.16L485.808 815.088C486.16 813.328 487.28 812.368 489.04 812.368C490.544 812.368 491.376 812.944 491.376 813.936C491.376 814.832 490.544 815.312 487.856 815.952C483.504 817.008 481.808 818.544 481.808 821.392ZM491.536 820.272C491.536 821.68 490.192 822.64 488.272 822.64C486.896 822.64 486.192 822.128 486.192 821.104C486.192 820.208 486.896 819.696 488.944 819.152C490.48 818.736 491.184 818.32 491.472 817.808H491.536V820.272ZM499.006 802.64V826H503.582V802.64H499.006ZM512.804 813.072H516.996V809.04H512.804V804.784H508.228V809.04H505.316V813.072H508.228V820.528C508.228 824.464 509.892 826 514.084 826H516.388V821.616H514.532C513.22 821.616 512.804 821.296 512.804 820.24V813.072ZM519.194 802.64V826H523.77V815.952C523.77 814 524.922 812.784 526.842 812.784C528.794 812.784 529.914 813.936 529.914 815.952V826H534.49V814.832C534.49 811.12 531.93 808.56 528.282 808.56C526.458 808.56 524.762 809.296 523.834 810.544H523.77V802.64H519.194ZM544.397 814.8C544.397 821.872 548.301 826.48 554.285 826.48C559.181 826.48 562.701 823.184 563.277 818.16L558.637 817.36C558.221 820.464 556.685 822.16 554.285 822.16C551.053 822.16 549.133 819.408 549.133 814.8C549.133 810.192 551.053 807.44 554.285 807.44C556.557 807.44 558.093 809.04 558.573 811.888L563.213 811.12C562.701 806.384 559.021 803.12 554.285 803.12C548.301 803.12 544.397 807.728 544.397 814.8ZM564.772 817.52C564.772 822.864 568.1 826.48 572.868 826.48C576.1 826.48 578.564 825.2 580.196 822.64L576.964 820.112C575.78 821.872 574.532 822.64 572.868 822.64C570.788 822.64 569.508 821.264 569.38 818.864H580.74V817.52C580.74 812.176 577.476 808.56 572.772 808.56C568.1 808.56 564.772 812.24 564.772 817.52ZM576.292 815.632H569.38C569.54 813.68 570.916 812.4 572.804 812.4C574.884 812.4 576.132 813.584 576.292 815.632ZM583.256 809.04V826H587.832V815.952C587.832 814 588.984 812.784 590.904 812.784C592.856 812.784 593.976 813.936 593.976 815.952V826H598.552V815.152C598.552 813.136 597.976 811.536 596.824 810.352C595.704 809.168 594.2 808.56 592.344 808.56C590.456 808.56 588.664 809.296 587.672 810.544H587.608V809.04H583.256ZM607.336 813.072H611.528V809.04H607.336V804.784H602.76V809.04H599.848V813.072H602.76V820.528C602.76 824.464 604.424 826 608.616 826H610.92V821.616H609.064C607.752 821.616 607.336 821.296 607.336 820.24V813.072ZM613.725 809.04V826H618.301V816.88C618.301 814.416 619.325 813.104 621.277 813.104C621.885 813.104 622.493 813.2 623.165 813.36L623.933 809.008C623.261 808.816 622.525 808.72 621.725 808.72C620.093 808.72 618.845 809.392 618.077 810.544H618.013V809.04H613.725ZM624.084 817.52C624.084 822.864 627.412 826.48 632.18 826.48C635.412 826.48 637.876 825.2 639.508 822.64L636.276 820.112C635.092 821.872 633.844 822.64 632.18 822.64C630.1 822.64 628.82 821.264 628.692 818.864H640.052V817.52C640.052 812.176 636.788 808.56 632.084 808.56C627.412 808.56 624.084 812.24 624.084 817.52ZM635.604 815.632H628.692C628.852 813.68 630.228 812.4 632.116 812.4C634.196 812.4 635.444 813.584 635.604 815.632Z" fill="white"/>
<path d="M792.336 145.344C792.336 148.224 795.192 150.36 799.2 150.36C803.208 150.36 806.064 148.224 806.064 145.344C806.064 143.496 804.864 141.912 803.112 141.168V141.12C804.456 140.424 805.176 139.344 805.176 138C805.176 135.456 802.728 133.512 799.2 133.512C795.672 133.512 793.224 135.456 793.224 138C793.224 139.344 793.944 140.424 795.288 141.12V141.168C793.536 141.912 792.336 143.496 792.336 145.344ZM801.72 138.24C801.72 139.296 800.664 140.04 799.2 140.04C797.736 140.04 796.68 139.296 796.68 138.24C796.68 137.16 797.688 136.416 799.2 136.416C800.712 136.416 801.72 137.16 801.72 138.24ZM802.296 144.96C802.296 146.328 801.144 147.096 799.2 147.096C797.256 147.096 796.104 146.328 796.104 144.96C796.104 143.64 797.28 142.776 799.2 142.776C801.12 142.776 802.296 143.64 802.296 144.96ZM813.708 137.28V150H817.02V142.296C817.02 140.928 817.812 140.04 819.06 140.04C820.308 140.04 821.1 140.856 821.1 142.224V150H824.268V142.296C824.268 140.928 825.084 140.04 826.332 140.04C827.58 140.04 828.372 140.856 828.372 142.224V150H831.684V141.576C831.684 139.008 829.788 136.92 826.98 136.92C825.588 136.92 824.46 137.448 823.572 138.48H823.524C822.852 137.496 821.532 136.92 820.26 136.92C818.916 136.92 817.62 137.472 816.924 138.408H816.876V137.28H813.708ZM833.934 137.28V150H837.366V137.28H833.934ZM833.886 131.832V135.192H837.366V131.832H833.886ZM839.747 137.28V150H843.179V142.464C843.179 141 844.043 140.088 845.483 140.088C846.947 140.088 847.787 140.952 847.787 142.464V150H851.219V141.864C851.219 140.352 850.787 139.152 849.923 138.264C849.083 137.376 847.955 136.92 846.563 136.92C845.147 136.92 843.803 137.472 843.059 138.408H843.011V137.28H839.747ZM853.265 145.656C853.265 148.608 854.945 150.36 857.825 150.36C859.193 150.36 860.513 149.808 861.257 148.872H861.305V150H864.569V137.28H861.137V144.864C861.137 146.304 860.273 147.216 858.905 147.216C857.441 147.216 856.697 146.424 856.697 144.864V137.28H853.265V145.656ZM871.494 140.304H874.638V137.28H871.494V134.088H868.062V137.28H865.878V140.304H868.062V145.896C868.062 148.848 869.31 150 872.454 150H874.182V146.712H872.79C871.806 146.712 871.494 146.472 871.494 145.68V140.304ZM875.337 143.64C875.337 147.648 877.833 150.36 881.409 150.36C883.833 150.36 885.681 149.4 886.905 147.48L884.481 145.584C883.593 146.904 882.657 147.48 881.409 147.48C879.849 147.48 878.889 146.448 878.793 144.648H887.313V143.64C887.313 139.632 884.865 136.92 881.337 136.92C877.833 136.92 875.337 139.68 875.337 143.64ZM883.977 142.224H878.793C878.913 140.76 879.945 139.8 881.361 139.8C882.921 139.8 883.857 140.688 883.977 142.224ZM888.222 145.896C888.774 148.776 890.91 150.36 894.174 150.36C895.734 150.36 896.958 150 897.894 149.28C898.83 148.536 899.286 147.576 899.286 146.4C899.286 145.488 899.046 144.744 898.566 144.168C897.606 143.016 896.358 142.584 894.366 142.008C892.71 141.528 892.086 141.288 892.086 140.712C892.086 140.136 892.71 139.704 893.694 139.704C894.774 139.704 895.638 140.328 896.046 141.552L899.07 140.664C898.758 139.536 898.11 138.648 897.126 137.952C896.142 137.256 894.99 136.92 893.694 136.92C890.958 136.92 888.894 138.6 888.894 140.76C889.014 143.256 890.694 143.928 893.334 144.672C894.03 144.888 894.534 145.08 894.87 145.224C895.566 145.488 896.094 145.872 896.094 146.52C896.094 147.168 895.398 147.552 894.174 147.552C892.542 147.552 891.678 146.808 891.27 145.08L888.222 145.896Z" fill="#FFCB04"/>
<path d="M910.014 138.96H913.134V137.28H910.014V134.4H908.142V137.28H906.222V138.96H908.142V147.072C908.142 149.256 908.958 150 911.262 150H912.462V148.248H911.406C910.374 148.248 910.014 147.936 910.014 147.096V138.96ZM914.229 143.64C914.229 147.648 916.629 150.36 920.205 150.36C923.805 150.36 926.205 147.648 926.205 143.64C926.205 139.632 923.805 136.92 920.205 136.92C916.629 136.92 914.229 139.632 914.229 143.64ZM924.333 143.64C924.333 146.688 922.725 148.608 920.205 148.608C917.685 148.608 916.101 146.688 916.101 143.64C916.101 140.592 917.685 138.672 920.205 138.672C922.725 138.672 924.333 140.592 924.333 143.64ZM798.75 172.45V181H803.19V172.45L810.21 160H805.47L800.97 168.58H800.91L796.47 160H791.7L798.75 172.45ZM807.753 173.05C807.753 178.03 810.963 181.45 815.613 181.45C820.293 181.45 823.503 178.06 823.503 173.05C823.503 168.04 820.293 164.65 815.613 164.65C810.963 164.65 807.753 168.07 807.753 173.05ZM819.213 173.05C819.213 175.9 817.893 177.55 815.613 177.55C813.363 177.55 812.043 175.9 812.043 173.05C812.043 170.2 813.363 168.55 815.613 168.55C817.893 168.55 819.213 170.2 819.213 173.05ZM825.873 165.1V181H830.163V171.58C830.163 169.75 831.243 168.61 833.043 168.61C834.873 168.61 835.923 169.69 835.923 171.58V181H840.213V170.83C840.213 168.94 839.673 167.44 838.593 166.33C837.543 165.22 836.133 164.65 834.393 164.65C832.623 164.65 830.943 165.34 830.013 166.51H829.953V165.1H825.873ZM843.16 184.48C844.69 186.79 847.42 188.2 850.42 188.2C855.01 188.2 857.98 185.44 857.98 181.03V165.1H853.84V166.36H853.78C852.82 165.37 851.32 164.8 849.55 164.8C845.44 164.8 842.44 168.31 842.44 173.02C842.44 177.85 845.44 181.42 849.55 181.42C851.32 181.42 853.03 180.7 853.78 179.71H853.84V180.88C853.84 183.07 852.58 184.42 850.45 184.42C848.74 184.42 847.63 183.76 846.4 182.05L843.16 184.48ZM853.69 174.16C853.69 176.11 852.31 177.49 850.36 177.49C848.08 177.49 846.73 175.81 846.73 173.02C846.73 170.29 848.08 168.7 850.36 168.7C852.28 168.7 853.69 170.08 853.69 172.03V174.16ZM867.511 174.07C868.261 178.87 871.381 181.45 876.391 181.45C880.981 181.45 884.131 179.02 884.131 175.39C884.131 173.68 883.561 172.3 882.451 171.19C881.341 170.08 879.481 169.09 876.871 168.19C873.751 167.14 872.851 166.54 872.851 165.46C872.851 164.29 873.931 163.54 875.581 163.54C877.501 163.54 878.671 164.53 879.241 166.66L883.561 165.73C882.901 162.04 879.691 159.55 875.581 159.55C871.411 159.55 868.471 161.98 868.471 165.49C868.471 167.02 868.981 168.31 870.001 169.3C871.021 170.29 872.761 171.19 875.191 172C878.701 173.2 879.691 173.92 879.691 175.39C879.691 176.71 878.521 177.46 876.451 177.46C873.661 177.46 872.431 176.26 871.861 173.14L867.511 174.07ZM886.195 165.1V181H890.485V165.1H886.195ZM886.135 158.29V162.49H890.485V158.29H886.135ZM892.831 173.05C892.831 178.06 895.951 181.45 900.421 181.45C903.451 181.45 905.761 180.25 907.291 177.85L904.261 175.48C903.151 177.13 901.981 177.85 900.421 177.85C898.471 177.85 897.271 176.56 897.151 174.31H907.801V173.05C907.801 168.04 904.741 164.65 900.331 164.65C895.951 164.65 892.831 168.1 892.831 173.05ZM903.631 171.28H897.151C897.301 169.45 898.591 168.25 900.361 168.25C902.311 168.25 903.481 169.36 903.631 171.28ZM908.524 165.1L912.094 181H916.384L920.014 170.08H920.074L923.704 181H927.964L931.564 165.1H927.304L925.264 175.24H925.204L921.904 165.1H918.184L914.854 175.24H914.794L912.784 165.1H908.524ZM944.035 164.08V181H948.475V164.08H954.535V160H937.945V164.08H944.035ZM952.831 173.05C952.831 178.03 956.041 181.45 960.691 181.45C965.371 181.45 968.581 178.06 968.581 173.05C968.581 168.04 965.371 164.65 960.691 164.65C956.041 164.65 952.831 168.07 952.831 173.05ZM964.291 173.05C964.291 175.9 962.971 177.55 960.691 177.55C958.441 177.55 957.121 175.9 957.121 173.05C957.121 170.2 958.441 168.55 960.691 168.55C962.971 168.55 964.291 170.2 964.291 173.05ZM970.951 159.1V181H975.241V171.58C975.241 169.75 976.321 168.61 978.121 168.61C979.951 168.61 981.001 169.69 981.001 171.58V181H985.291V170.53C985.291 167.05 982.891 164.65 979.471 164.65C977.761 164.65 976.171 165.34 975.301 166.51H975.241V159.1H970.951ZM792.87 201.5C792.87 208.13 796.53 212.45 802.14 212.45C806.73 212.45 810.03 209.36 810.57 204.65L806.22 203.9C805.83 206.81 804.39 208.4 802.14 208.4C799.11 208.4 797.31 205.82 797.31 201.5C797.31 197.18 799.11 194.6 802.14 194.6C804.27 194.6 805.71 196.1 806.16 198.77L810.51 198.05C810.03 193.61 806.58 190.55 802.14 190.55C796.53 190.55 792.87 194.87 792.87 201.5ZM811.972 204.05C811.972 209.03 815.182 212.45 819.832 212.45C824.512 212.45 827.722 209.06 827.722 204.05C827.722 199.04 824.512 195.65 819.832 195.65C815.182 195.65 811.972 199.07 811.972 204.05ZM823.432 204.05C823.432 206.9 822.112 208.55 819.832 208.55C817.582 208.55 816.262 206.9 816.262 204.05C816.262 201.2 817.582 199.55 819.832 199.55C822.112 199.55 823.432 201.2 823.432 204.05ZM830.092 196.1V212H834.382V202.58C834.382 200.75 835.462 199.61 837.262 199.61C839.092 199.61 840.142 200.69 840.142 202.58V212H844.432V201.83C844.432 199.94 843.892 198.44 842.812 197.33C841.762 196.22 840.352 195.65 838.612 195.65C836.842 195.65 835.162 196.34 834.232 197.51H834.172V196.1H830.092ZM846.359 206.87C847.049 210.47 849.719 212.45 853.799 212.45C855.749 212.45 857.279 212 858.449 211.1C859.619 210.17 860.189 208.97 860.189 207.5C860.189 206.36 859.889 205.43 859.289 204.71C858.089 203.27 856.529 202.73 854.039 202.01C851.969 201.41 851.189 201.11 851.189 200.39C851.189 199.67 851.969 199.13 853.199 199.13C854.549 199.13 855.629 199.91 856.139 201.44L859.919 200.33C859.529 198.92 858.719 197.81 857.489 196.94C856.259 196.07 854.819 195.65 853.199 195.65C849.779 195.65 847.199 197.75 847.199 200.45C847.349 203.57 849.449 204.41 852.749 205.34C853.619 205.61 854.249 205.85 854.669 206.03C855.539 206.36 856.199 206.84 856.199 207.65C856.199 208.46 855.329 208.94 853.799 208.94C851.759 208.94 850.679 208.01 850.169 205.85L846.359 206.87ZM861.63 204.05C861.63 209.06 864.75 212.45 869.22 212.45C872.25 212.45 874.56 211.25 876.09 208.85L873.06 206.48C871.95 208.13 870.78 208.85 869.22 208.85C867.27 208.85 866.07 207.56 865.95 205.31H876.6V204.05C876.6 199.04 873.54 195.65 869.13 195.65C864.75 195.65 861.63 199.1 861.63 204.05ZM872.43 202.28H865.95C866.1 200.45 867.39 199.25 869.16 199.25C871.11 199.25 872.28 200.36 872.43 202.28ZM878.959 196.1V212H883.249V203.45C883.249 201.14 884.209 199.91 886.039 199.91C886.609 199.91 887.179 200 887.809 200.15L888.529 196.07C887.899 195.89 887.209 195.8 886.459 195.8C884.929 195.8 883.759 196.43 883.039 197.51H882.979V196.1H878.959ZM888.973 196.1L895.603 212H899.563L906.193 196.1H901.633L897.613 206.39H897.553L893.533 196.1H888.973ZM906.663 207.68C906.663 210.56 908.733 212.45 911.883 212.45C913.803 212.45 915.303 211.85 916.053 210.74H916.113V212H919.953V201.68C919.953 197.96 917.433 195.65 913.443 195.65C911.613 195.65 910.053 196.13 908.763 197.09C907.473 198.05 906.723 199.31 906.483 200.9L910.413 201.77C910.743 200.12 911.793 199.22 913.443 199.22C914.853 199.22 915.633 199.76 915.633 200.69C915.633 201.53 914.853 201.98 912.333 202.58C908.253 203.57 906.663 205.01 906.663 207.68ZM915.783 206.63C915.783 207.95 914.523 208.85 912.723 208.85C911.433 208.85 910.773 208.37 910.773 207.41C910.773 206.57 911.433 206.09 913.353 205.58C914.793 205.19 915.453 204.8 915.723 204.32H915.783V206.63ZM928.164 199.88H932.094V196.1H928.164V192.11H923.874V196.1H921.144V199.88H923.874V206.87C923.874 210.56 925.434 212 929.364 212H931.524V207.89H929.784C928.554 207.89 928.164 207.59 928.164 206.6V199.88ZM932.968 204.05C932.968 209.03 936.178 212.45 940.828 212.45C945.508 212.45 948.718 209.06 948.718 204.05C948.718 199.04 945.508 195.65 940.828 195.65C936.178 195.65 932.968 199.07 932.968 204.05ZM944.428 204.05C944.428 206.9 943.108 208.55 940.828 208.55C938.578 208.55 937.258 206.9 937.258 204.05C937.258 201.2 938.578 199.55 940.828 199.55C943.108 199.55 944.428 201.2 944.428 204.05ZM951.088 196.1V212H955.378V203.45C955.378 201.14 956.338 199.91 958.168 199.91C958.738 199.91 959.308 200 959.938 200.15L960.658 196.07C960.028 195.89 959.338 195.8 958.588 195.8C957.058 195.8 955.888 196.43 955.168 197.51H955.108V196.1H951.088ZM967.251 211.19L964.131 218.75H968.541L977.691 196.1H973.281L969.441 206.18H969.381L965.571 196.1H961.131L967.251 211.19ZM792.87 235.05C792.87 240.03 796.08 243.45 800.73 243.45C805.41 243.45 808.62 240.06 808.62 235.05C808.62 230.04 805.41 226.65 800.73 226.65C796.08 226.65 792.87 230.07 792.87 235.05ZM804.33 235.05C804.33 237.9 803.01 239.55 800.73 239.55C798.48 239.55 797.16 237.9 797.16 235.05C797.16 232.2 798.48 230.55 800.73 230.55C803.01 230.55 804.33 232.2 804.33 235.05ZM812.437 230.88V243H816.727V230.88H820.987V227.1H816.727V225.9C816.727 225.15 817.117 224.79 817.897 224.79H820.327V220.98H817.327C814.207 220.98 812.437 222.63 812.437 225.48V227.1H809.347V230.88H812.437ZM830.838 222V243H835.188V230.04H835.248L840.708 243H842.628L848.118 230.04H848.178V243H852.528V222H847.608L841.698 236.13H841.638L835.758 222H830.838ZM855.807 237.57C855.807 241.26 857.907 243.45 861.507 243.45C863.217 243.45 864.867 242.76 865.797 241.59H865.857V243H869.937V227.1H865.647V236.58C865.647 238.38 864.567 239.52 862.857 239.52C861.027 239.52 860.097 238.53 860.097 236.58V227.1H855.807V237.57ZM871.994 237.87C872.684 241.47 875.354 243.45 879.434 243.45C881.384 243.45 882.914 243 884.084 242.1C885.254 241.17 885.824 239.97 885.824 238.5C885.824 237.36 885.524 236.43 884.924 235.71C883.724 234.27 882.164 233.73 879.674 233.01C877.604 232.41 876.824 232.11 876.824 231.39C876.824 230.67 877.604 230.13 878.834 230.13C880.184 230.13 881.264 230.91 881.774 232.44L885.554 231.33C885.164 229.92 884.354 228.81 883.124 227.94C881.894 227.07 880.454 226.65 878.834 226.65C875.414 226.65 872.834 228.75 872.834 231.45C872.984 234.57 875.084 235.41 878.384 236.34C879.254 236.61 879.884 236.85 880.304 237.03C881.174 237.36 881.834 237.84 881.834 238.65C881.834 239.46 880.964 239.94 879.434 239.94C877.394 239.94 876.314 239.01 875.804 236.85L871.994 237.87ZM887.895 227.1V243H892.185V227.1H887.895ZM887.835 220.29V224.49H892.185V220.29H887.835ZM894.53 235.05C894.53 240.03 897.77 243.45 902.24 243.45C906.08 243.45 908.84 241.17 909.41 237.57L905.36 236.85C905.03 238.62 904.01 239.55 902.24 239.55C900.11 239.55 898.82 237.9 898.82 235.05C898.82 232.2 900.11 230.55 902.24 230.55C903.95 230.55 905.03 231.48 905.36 233.25L909.41 232.53C908.84 228.93 906.08 226.65 902.24 226.65C897.77 226.65 894.53 230.07 894.53 235.05Z" fill="white"/>
<path d="M561.584 56.568V69H565.016V52.872H561.8L557.576 55.344V58.92L561.584 56.568ZM567.727 64.848C568.495 67.728 571.111 69.36 574.471 69.36C578.263 69.36 580.951 67.032 580.951 63.672C580.951 60.528 578.431 58.2 574.951 58.2C573.751 58.2 572.671 58.488 571.711 59.064L571.663 59.04L572.239 56.016H579.271V52.872H569.647L568.087 61.416L571.231 62.256C572.143 61.392 573.223 60.96 574.447 60.96C576.247 60.96 577.519 62.064 577.519 63.624C577.519 65.136 576.223 66.24 574.471 66.24C572.647 66.24 571.495 65.424 571.015 63.768L567.727 64.848ZM588.833 56.28V69H592.145V61.296C592.145 59.928 592.937 59.04 594.185 59.04C595.433 59.04 596.225 59.856 596.225 61.224V69H599.393V61.296C599.393 59.928 600.209 59.04 601.457 59.04C602.705 59.04 603.497 59.856 603.497 61.224V69H606.809V60.576C606.809 58.008 604.913 55.92 602.105 55.92C600.713 55.92 599.585 56.448 598.697 57.48H598.649C597.977 56.496 596.657 55.92 595.385 55.92C594.041 55.92 592.745 56.472 592.049 57.408H592.001V56.28H588.833ZM609.059 56.28V69H612.491V56.28H609.059ZM609.011 50.832V54.192H612.491V50.832H609.011ZM614.872 56.28V69H618.304V61.464C618.304 60 619.168 59.088 620.608 59.088C622.072 59.088 622.912 59.952 622.912 61.464V69H626.344V60.864C626.344 59.352 625.912 58.152 625.048 57.264C624.208 56.376 623.08 55.92 621.688 55.92C620.272 55.92 618.928 56.472 618.184 57.408H618.136V56.28H614.872ZM628.39 64.656C628.39 67.608 630.07 69.36 632.95 69.36C634.318 69.36 635.638 68.808 636.382 67.872H636.43V69H639.694V56.28H636.262V63.864C636.262 65.304 635.398 66.216 634.03 66.216C632.566 66.216 631.822 65.424 631.822 63.864V56.28H628.39V64.656ZM646.619 59.304H649.763V56.28H646.619V53.088H643.187V56.28H641.003V59.304H643.187V64.896C643.187 67.848 644.435 69 647.579 69H649.307V65.712H647.915C646.931 65.712 646.619 65.472 646.619 64.68V59.304ZM650.462 62.64C650.462 66.648 652.958 69.36 656.534 69.36C658.958 69.36 660.806 68.4 662.03 66.48L659.606 64.584C658.718 65.904 657.782 66.48 656.534 66.48C654.974 66.48 654.014 65.448 653.918 63.648H662.438V62.64C662.438 58.632 659.99 55.92 656.462 55.92C652.958 55.92 650.462 58.68 650.462 62.64ZM659.102 61.224H653.918C654.038 59.76 655.07 58.8 656.486 58.8C658.046 58.8 658.982 59.688 659.102 61.224ZM663.347 64.896C663.899 67.776 666.035 69.36 669.299 69.36C670.859 69.36 672.083 69 673.019 68.28C673.955 67.536 674.411 66.576 674.411 65.4C674.411 64.488 674.171 63.744 673.691 63.168C672.731 62.016 671.483 61.584 669.491 61.008C667.835 60.528 667.211 60.288 667.211 59.712C667.211 59.136 667.835 58.704 668.819 58.704C669.899 58.704 670.763 59.328 671.171 60.552L674.195 59.664C673.883 58.536 673.235 57.648 672.251 56.952C671.267 56.256 670.115 55.92 668.819 55.92C666.083 55.92 664.019 57.6 664.019 59.76C664.139 62.256 665.819 62.928 668.459 63.672C669.155 63.888 669.659 64.08 669.995 64.224C670.691 64.488 671.219 64.872 671.219 65.52C671.219 66.168 670.523 66.552 669.299 66.552C667.667 66.552 666.803 65.808 666.395 64.08L663.347 64.896Z" fill="#FFCB04"/>
<path d="M685.139 57.96H688.259V56.28H685.139V53.4H683.267V56.28H681.347V57.96H683.267V66.072C683.267 68.256 684.083 69 686.387 69H687.587V67.248H686.531C685.499 67.248 685.139 66.936 685.139 66.096V57.96ZM689.354 62.64C689.354 66.648 691.754 69.36 695.33 69.36C698.93 69.36 701.33 66.648 701.33 62.64C701.33 58.632 698.93 55.92 695.33 55.92C691.754 55.92 689.354 58.632 689.354 62.64ZM699.458 62.64C699.458 65.688 697.85 67.608 695.33 67.608C692.81 67.608 691.226 65.688 691.226 62.64C691.226 59.592 692.81 57.672 695.33 57.672C697.85 57.672 699.458 59.592 699.458 62.64ZM557.928 88.8C557.928 95.872 561.832 100.48 567.816 100.48C572.712 100.48 576.232 97.184 576.808 92.16L572.168 91.36C571.752 94.464 570.216 96.16 567.816 96.16C564.584 96.16 562.664 93.408 562.664 88.8C562.664 84.192 564.584 81.44 567.816 81.44C570.088 81.44 571.624 83.04 572.104 85.888L576.744 85.12C576.232 80.384 572.552 77.12 567.816 77.12C561.832 77.12 557.928 81.728 557.928 88.8ZM578.975 76.64V100H583.551V76.64H578.975ZM586.053 91.52C586.053 96.864 589.381 100.48 594.149 100.48C597.381 100.48 599.845 99.2 601.477 96.64L598.245 94.112C597.061 95.872 595.813 96.64 594.149 96.64C592.069 96.64 590.789 95.264 590.661 92.864H602.021V91.52C602.021 86.176 598.757 82.56 594.053 82.56C589.381 82.56 586.053 86.24 586.053 91.52ZM597.573 89.632H590.661C590.821 87.68 592.197 86.4 594.085 86.4C596.165 86.4 597.413 87.584 597.573 89.632ZM604.538 83.04V100H608.954V89.728C608.954 87.904 610.01 86.72 611.674 86.72C613.338 86.72 614.394 87.808 614.394 89.632V100H618.618V89.728C618.618 87.904 619.706 86.72 621.37 86.72C623.034 86.72 624.09 87.808 624.09 89.632V100H628.506V88.768C628.506 85.344 625.978 82.56 622.234 82.56C620.378 82.56 618.874 83.264 617.69 84.64H617.626C616.73 83.328 614.97 82.56 613.274 82.56C611.482 82.56 609.754 83.296 608.826 84.544H608.762V83.04H604.538ZM630.834 91.52C630.834 96.864 634.162 100.48 638.93 100.48C642.162 100.48 644.626 99.2 646.258 96.64L643.026 94.112C641.842 95.872 640.594 96.64 638.93 96.64C636.85 96.64 635.57 95.264 635.442 92.864H646.802V91.52C646.802 86.176 643.538 82.56 638.834 82.56C634.162 82.56 630.834 86.24 630.834 91.52ZM642.354 89.632H635.442C635.602 87.68 636.978 86.4 638.866 86.4C640.946 86.4 642.194 87.584 642.354 89.632ZM649.319 83.04V100H653.895V89.952C653.895 88 655.047 86.784 656.967 86.784C658.919 86.784 660.039 87.936 660.039 89.952V100H664.615V89.152C664.615 87.136 664.039 85.536 662.887 84.352C661.767 83.168 660.263 82.56 658.407 82.56C656.519 82.56 654.727 83.296 653.735 84.544H653.671V83.04H649.319ZM673.398 87.072H677.59V83.04H673.398V78.784H668.822V83.04H665.91V87.072H668.822V94.528C668.822 98.464 670.486 100 674.678 100H676.982V95.616H675.126C673.814 95.616 673.398 95.296 673.398 94.24V87.072ZM679.788 83.04V100H684.364V83.04H679.788ZM679.724 75.776V80.256H684.364V75.776H679.724ZM696.302 77.6V100H705.006C710.734 100 713.518 97.728 713.518 93.024C713.518 90.688 712.334 88.768 710.414 87.872V87.808C711.822 86.944 712.686 85.44 712.686 83.616C712.686 80.128 709.902 77.6 706.03 77.6H696.302ZM705.358 86.528H701.038V81.824H705.358C707.054 81.824 707.982 82.656 707.982 84.16C707.982 85.696 707.054 86.528 705.358 86.528ZM705.87 95.776H701.038V90.272H705.902C707.79 90.272 708.814 91.232 708.814 92.992C708.814 94.88 707.886 95.776 705.87 95.776ZM715.749 94.208C715.749 98.144 717.989 100.48 721.829 100.48C723.653 100.48 725.413 99.744 726.405 98.496H726.469V100H730.821V83.04H726.245V93.152C726.245 95.072 725.093 96.288 723.269 96.288C721.317 96.288 720.325 95.232 720.325 93.152V83.04H715.749V94.208ZM733.014 94.528C733.75 98.368 736.598 100.48 740.95 100.48C743.03 100.48 744.662 100 745.91 99.04C747.158 98.048 747.766 96.768 747.766 95.2C747.766 93.984 747.446 92.992 746.806 92.224C745.526 90.688 743.862 90.112 741.206 89.344C738.998 88.704 738.166 88.384 738.166 87.616C738.166 86.848 738.998 86.272 740.31 86.272C741.75 86.272 742.902 87.104 743.446 88.736L747.478 87.552C747.062 86.048 746.198 84.864 744.886 83.936C743.574 83.008 742.038 82.56 740.31 82.56C736.662 82.56 733.91 84.8 733.91 87.68C734.07 91.008 736.31 91.904 739.83 92.896C740.758 93.184 741.43 93.44 741.878 93.632C742.806 93.984 743.51 94.496 743.51 95.36C743.51 96.224 742.582 96.736 740.95 96.736C738.774 96.736 737.622 95.744 737.078 93.44L733.014 94.528ZM559.208 108.6V131H563.944V108.6H559.208ZM567.788 114.04V131H572.364V120.952C572.364 119 573.516 117.784 575.436 117.784C577.388 117.784 578.508 118.936 578.508 120.952V131H583.083V120.152C583.083 118.136 582.508 116.536 581.356 115.352C580.236 114.168 578.732 113.56 576.876 113.56C574.988 113.56 573.196 114.296 572.204 115.544H572.14V114.04H567.788ZM591.867 118.072H596.059V114.04H591.867V109.784H587.291V114.04H584.379V118.072H587.291V125.528C587.291 129.464 588.955 131 593.147 131H595.451V126.616H593.595C592.283 126.616 591.867 126.296 591.867 125.24V118.072ZM596.991 122.52C596.991 127.864 600.319 131.48 605.087 131.48C608.319 131.48 610.783 130.2 612.415 127.64L609.183 125.112C607.999 126.872 606.751 127.64 605.087 127.64C603.007 127.64 601.727 126.264 601.599 123.864H612.958V122.52C612.958 117.176 609.695 113.56 604.991 113.56C600.319 113.56 596.991 117.24 596.991 122.52ZM608.511 120.632H601.599C601.759 118.68 603.135 117.4 605.023 117.4C607.103 117.4 608.351 118.584 608.511 120.632ZM615.475 114.04V131H620.051V121.88C620.051 119.416 621.075 118.104 623.027 118.104C623.635 118.104 624.243 118.2 624.915 118.36L625.683 114.008C625.011 113.816 624.275 113.72 623.475 113.72C621.843 113.72 620.595 114.392 619.827 115.544H619.763V114.04H615.475ZM625.834 122.52C625.834 127.832 629.29 131.48 634.058 131.48C638.154 131.48 641.098 129.048 641.706 125.208L637.386 124.44C637.034 126.328 635.946 127.32 634.058 127.32C631.786 127.32 630.41 125.56 630.41 122.52C630.41 119.48 631.786 117.72 634.058 117.72C635.882 117.72 637.034 118.712 637.386 120.6L641.706 119.832C641.098 115.992 638.154 113.56 634.058 113.56C629.29 113.56 625.834 117.208 625.834 122.52ZM644.1 107.64V131H648.676V120.952C648.676 119 649.828 117.784 651.748 117.784C653.7 117.784 654.82 118.936 654.82 120.952V131H659.396V119.832C659.396 116.12 656.836 113.56 653.188 113.56C651.364 113.56 649.668 114.296 648.74 115.544H648.676V107.64H644.1ZM661.964 126.392C661.964 129.464 664.172 131.48 667.532 131.48C669.58 131.48 671.18 130.84 671.98 129.656H672.044V131H676.14V119.992C676.14 116.024 673.452 113.56 669.196 113.56C667.244 113.56 665.58 114.072 664.204 115.096C662.828 116.12 662.028 117.464 661.772 119.16L665.964 120.088C666.316 118.328 667.436 117.368 669.196 117.368C670.7 117.368 671.532 117.944 671.532 118.936C671.532 119.832 670.7 120.312 668.012 120.952C663.66 122.008 661.964 123.544 661.964 126.392ZM671.692 125.272C671.692 126.68 670.348 127.64 668.428 127.64C667.052 127.64 666.348 127.128 666.348 126.104C666.348 125.208 667.052 124.696 669.1 124.152C670.636 123.736 671.34 123.32 671.628 122.808H671.692V125.272ZM679.163 114.04V131H683.739V120.952C683.739 119 684.891 117.784 686.811 117.784C688.763 117.784 689.883 118.936 689.883 120.952V131H694.458V120.152C694.458 118.136 693.883 116.536 692.731 115.352C691.611 114.168 690.107 113.56 688.251 113.56C686.363 113.56 684.571 114.296 683.579 115.544H683.515V114.04H679.163ZM697.602 134.712C699.234 137.176 702.146 138.68 705.346 138.68C710.242 138.68 713.41 135.736 713.41 131.032V114.04H708.994V115.384H708.93C707.906 114.328 706.306 113.72 704.418 113.72C700.034 113.72 696.834 117.464 696.834 122.488C696.834 127.64 700.034 131.448 704.418 131.448C706.306 131.448 708.13 130.68 708.93 129.624H708.994V130.872C708.994 133.208 707.65 134.648 705.378 134.648C703.554 134.648 702.37 133.944 701.058 132.12L697.602 134.712ZM708.834 123.704C708.834 125.784 707.362 127.256 705.282 127.256C702.85 127.256 701.41 125.464 701.41 122.488C701.41 119.576 702.85 117.88 705.282 117.88C707.33 117.88 708.834 119.352 708.834 121.432V123.704ZM715.741 122.52C715.741 127.864 719.069 131.48 723.837 131.48C727.069 131.48 729.533 130.2 731.165 127.64L727.933 125.112C726.749 126.872 725.501 127.64 723.837 127.64C721.757 127.64 720.477 126.264 720.349 123.864H731.708V122.52C731.708 117.176 728.445 113.56 723.741 113.56C719.069 113.56 715.741 117.24 715.741 122.52ZM727.261 120.632H720.349C720.509 118.68 721.885 117.4 723.773 117.4C725.853 117.4 727.101 118.584 727.261 120.632Z" fill="white"/>
<path d="M168.584 164.568V177H172.016V160.872H168.8L164.576 163.344V166.92L168.584 164.568ZM174.727 172.848C175.495 175.728 178.111 177.36 181.471 177.36C185.263 177.36 187.951 175.032 187.951 171.672C187.951 168.528 185.431 166.2 181.951 166.2C180.751 166.2 179.671 166.488 178.711 167.064L178.663 167.04L179.239 164.016H186.271V160.872H176.647L175.087 169.416L178.231 170.256C179.143 169.392 180.223 168.96 181.447 168.96C183.247 168.96 184.519 170.064 184.519 171.624C184.519 173.136 183.223 174.24 181.471 174.24C179.647 174.24 178.495 173.424 178.015 171.768L174.727 172.848ZM195.833 164.28V177H199.145V169.296C199.145 167.928 199.937 167.04 201.185 167.04C202.433 167.04 203.225 167.856 203.225 169.224V177H206.393V169.296C206.393 167.928 207.209 167.04 208.457 167.04C209.705 167.04 210.497 167.856 210.497 169.224V177H213.809V168.576C213.809 166.008 211.913 163.92 209.105 163.92C207.713 163.92 206.585 164.448 205.697 165.48H205.649C204.977 164.496 203.657 163.92 202.385 163.92C201.041 163.92 199.745 164.472 199.049 165.408H199.001V164.28H195.833ZM216.059 164.28V177H219.491V164.28H216.059ZM216.011 158.832V162.192H219.491V158.832H216.011ZM221.872 164.28V177H225.304V169.464C225.304 168 226.168 167.088 227.608 167.088C229.072 167.088 229.912 167.952 229.912 169.464V177H233.344V168.864C233.344 167.352 232.912 166.152 232.048 165.264C231.208 164.376 230.08 163.92 228.688 163.92C227.272 163.92 225.928 164.472 225.184 165.408H225.136V164.28H221.872ZM235.39 172.656C235.39 175.608 237.07 177.36 239.95 177.36C241.318 177.36 242.638 176.808 243.382 175.872H243.43V177H246.694V164.28H243.262V171.864C243.262 173.304 242.398 174.216 241.03 174.216C239.566 174.216 238.822 173.424 238.822 171.864V164.28H235.39V172.656ZM253.619 167.304H256.763V164.28H253.619V161.088H250.187V164.28H248.003V167.304H250.187V172.896C250.187 175.848 251.435 177 254.579 177H256.307V173.712H254.915C253.931 173.712 253.619 173.472 253.619 172.68V167.304ZM257.462 170.64C257.462 174.648 259.958 177.36 263.534 177.36C265.958 177.36 267.806 176.4 269.03 174.48L266.606 172.584C265.718 173.904 264.782 174.48 263.534 174.48C261.974 174.48 261.014 173.448 260.918 171.648H269.438V170.64C269.438 166.632 266.99 163.92 263.462 163.92C259.958 163.92 257.462 166.68 257.462 170.64ZM266.102 169.224H260.918C261.038 167.76 262.07 166.8 263.486 166.8C265.046 166.8 265.982 167.688 266.102 169.224ZM270.347 172.896C270.899 175.776 273.035 177.36 276.299 177.36C277.859 177.36 279.083 177 280.019 176.28C280.955 175.536 281.411 174.576 281.411 173.4C281.411 172.488 281.171 171.744 280.691 171.168C279.731 170.016 278.483 169.584 276.491 169.008C274.835 168.528 274.211 168.288 274.211 167.712C274.211 167.136 274.835 166.704 275.819 166.704C276.899 166.704 277.763 167.328 278.171 168.552L281.195 167.664C280.883 166.536 280.235 165.648 279.251 164.952C278.267 164.256 277.115 163.92 275.819 163.92C273.083 163.92 271.019 165.6 271.019 167.76C271.139 170.256 272.819 170.928 275.459 171.672C276.155 171.888 276.659 172.08 276.995 172.224C277.691 172.488 278.219 172.872 278.219 173.52C278.219 174.168 277.523 174.552 276.299 174.552C274.667 174.552 273.803 173.808 273.395 172.08L270.347 172.896Z" fill="#FFCB04"/>
<path d="M292.139 165.96H295.259V164.28H292.139V161.4H290.267V164.28H288.347V165.96H290.267V174.072C290.267 176.256 291.083 177 293.387 177H294.587V175.248H293.531C292.499 175.248 292.139 174.936 292.139 174.096V165.96ZM296.354 170.64C296.354 174.648 298.754 177.36 302.33 177.36C305.93 177.36 308.33 174.648 308.33 170.64C308.33 166.632 305.93 163.92 302.33 163.92C298.754 163.92 296.354 166.632 296.354 170.64ZM306.458 170.64C306.458 173.688 304.85 175.608 302.33 175.608C299.81 175.608 298.226 173.688 298.226 170.64C298.226 167.592 299.81 165.672 302.33 165.672C304.85 165.672 306.458 167.592 306.458 170.64ZM166.208 185.6V208H170.944V199.584H179.968V195.424H170.944V189.952H180.64V185.6H166.208ZM182.245 203.392C182.245 206.464 184.453 208.48 187.813 208.48C189.861 208.48 191.461 207.84 192.261 206.656H192.325V208H196.421V196.992C196.421 193.024 193.733 190.56 189.477 190.56C187.525 190.56 185.861 191.072 184.485 192.096C183.109 193.12 182.309 194.464 182.053 196.16L186.245 197.088C186.597 195.328 187.717 194.368 189.477 194.368C190.981 194.368 191.813 194.944 191.813 195.936C191.813 196.832 190.981 197.312 188.293 197.952C183.941 199.008 182.245 200.544 182.245 203.392ZM191.973 202.272C191.973 203.68 190.629 204.64 188.709 204.64C187.333 204.64 186.629 204.128 186.629 203.104C186.629 202.208 187.333 201.696 189.381 201.152C190.917 200.736 191.621 200.32 191.909 199.808H191.973V202.272ZM198.772 199.52C198.772 204.832 202.228 208.48 206.996 208.48C211.092 208.48 214.036 206.048 214.644 202.208L210.324 201.44C209.972 203.328 208.884 204.32 206.996 204.32C204.724 204.32 203.348 202.56 203.348 199.52C203.348 196.48 204.724 194.72 206.996 194.72C208.82 194.72 209.972 195.712 210.324 197.6L214.644 196.832C214.036 192.992 211.092 190.56 206.996 190.56C202.228 190.56 198.772 194.208 198.772 199.52ZM216.718 202.208C216.718 206.144 218.958 208.48 222.798 208.48C224.622 208.48 226.382 207.744 227.374 206.496H227.438V208H231.79V191.04H227.214V201.152C227.214 203.072 226.062 204.288 224.238 204.288C222.286 204.288 221.294 203.232 221.294 201.152V191.04H216.718V202.208ZM234.975 184.64V208H239.551V184.64H234.975ZM248.773 195.072H252.965V191.04H248.773V186.784H244.197V191.04H241.285V195.072H244.197V202.528C244.197 206.464 245.861 208 250.053 208H252.357V203.616H250.501C249.189 203.616 248.773 203.296 248.773 202.24V195.072ZM260.091 207.136L256.763 215.2H261.467L271.227 191.04H266.523L262.427 201.792H262.363L258.299 191.04H253.562L260.091 207.136ZM279.334 199.52C279.334 204.832 282.758 208.48 287.718 208.48C292.71 208.48 296.134 204.864 296.134 199.52C296.134 194.176 292.71 190.56 287.718 190.56C282.758 190.56 279.334 194.208 279.334 199.52ZM291.558 199.52C291.558 202.56 290.15 204.32 287.718 204.32C285.318 204.32 283.91 202.56 283.91 199.52C283.91 196.48 285.318 194.72 287.718 194.72C290.15 194.72 291.558 196.48 291.558 199.52ZM300.206 195.072V208H304.782V195.072H309.326V191.04H304.782V189.76C304.782 188.96 305.198 188.576 306.03 188.576H308.622V184.512H305.422C302.094 184.512 300.206 186.272 300.206 189.312V191.04H296.91V195.072H300.206ZM166.208 216.6V239H180.672V234.648H170.944V229.656H179.776V225.496H170.944V220.952H180.64V216.6H166.208ZM183.538 222.04V239H188.114V228.952C188.114 227 189.266 225.784 191.186 225.784C193.138 225.784 194.258 226.936 194.258 228.952V239H198.833V228.152C198.833 226.136 198.258 224.536 197.106 223.352C195.986 222.168 194.482 221.56 192.626 221.56C190.738 221.56 188.946 222.296 187.954 223.544H187.89V222.04H183.538ZM201.977 242.712C203.609 245.176 206.521 246.68 209.721 246.68C214.617 246.68 217.785 243.736 217.785 239.032V222.04H213.369V223.384H213.305C212.281 222.328 210.681 221.72 208.793 221.72C204.409 221.72 201.209 225.464 201.209 230.488C201.209 235.64 204.409 239.448 208.793 239.448C210.681 239.448 212.505 238.68 213.305 237.624H213.369V238.872C213.369 241.208 212.025 242.648 209.753 242.648C207.929 242.648 206.745 241.944 205.433 240.12L201.977 242.712ZM213.209 231.704C213.209 233.784 211.737 235.256 209.657 235.256C207.225 235.256 205.785 233.464 205.785 230.488C205.785 227.576 207.225 225.88 209.657 225.88C211.705 225.88 213.209 227.352 213.209 229.432V231.704ZM220.788 222.04V239H225.364V222.04H220.788ZM220.724 214.776V219.256H225.364V214.776H220.724ZM228.538 222.04V239H233.114V228.952C233.114 227 234.266 225.784 236.186 225.784C238.138 225.784 239.258 226.936 239.258 228.952V239H243.833V228.152C243.833 226.136 243.258 224.536 242.106 223.352C240.986 222.168 239.482 221.56 237.626 221.56C235.738 221.56 233.946 222.296 232.954 223.544H232.89V222.04H228.538ZM246.209 230.52C246.209 235.864 249.537 239.48 254.305 239.48C257.537 239.48 260.001 238.2 261.633 235.64L258.401 233.112C257.217 234.872 255.969 235.64 254.305 235.64C252.225 235.64 250.945 234.264 250.817 231.864H262.177V230.52C262.177 225.176 258.913 221.56 254.209 221.56C249.537 221.56 246.209 225.24 246.209 230.52ZM257.729 228.632H250.817C250.977 226.68 252.353 225.4 254.241 225.4C256.321 225.4 257.569 226.584 257.729 228.632ZM264.022 230.52C264.022 235.864 267.35 239.48 272.118 239.48C275.35 239.48 277.814 238.2 279.446 235.64L276.214 233.112C275.03 234.872 273.782 235.64 272.118 235.64C270.038 235.64 268.758 234.264 268.63 231.864H279.99V230.52C279.99 225.176 276.726 221.56 272.022 221.56C267.35 221.56 264.022 225.24 264.022 230.52ZM275.542 228.632H268.63C268.79 226.68 270.166 225.4 272.054 225.4C274.134 225.4 275.382 226.584 275.542 228.632ZM282.506 222.04V239H287.082V229.88C287.082 227.416 288.106 226.104 290.058 226.104C290.666 226.104 291.274 226.2 291.946 226.36L292.714 222.008C292.042 221.816 291.306 221.72 290.506 221.72C288.874 221.72 287.626 222.392 286.858 223.544H286.794V222.04H282.506ZM294.475 222.04V239H299.051V222.04H294.475ZM294.411 214.776V219.256H299.051V214.776H294.411ZM302.225 222.04V239H306.801V228.952C306.801 227 307.953 225.784 309.873 225.784C311.825 225.784 312.945 226.936 312.945 228.952V239H317.521V228.152C317.521 226.136 316.945 224.536 315.793 223.352C314.673 222.168 313.169 221.56 311.313 221.56C309.425 221.56 307.633 222.296 306.641 223.544H306.577V222.04H302.225ZM320.665 242.712C322.297 245.176 325.209 246.68 328.409 246.68C333.305 246.68 336.473 243.736 336.473 239.032V222.04H332.057V223.384H331.993C330.969 222.328 329.369 221.72 327.481 221.72C323.097 221.72 319.897 225.464 319.897 230.488C319.897 235.64 323.097 239.448 327.481 239.448C329.369 239.448 331.193 238.68 331.993 237.624H332.057V238.872C332.057 241.208 330.713 242.648 328.441 242.648C326.617 242.648 325.433 241.944 324.121 240.12L320.665 242.712ZM331.897 231.704C331.897 233.784 330.425 235.256 328.345 235.256C325.913 235.256 324.473 233.464 324.473 230.488C324.473 227.576 325.913 225.88 328.345 225.88C330.393 225.88 331.897 227.352 331.897 229.432V231.704Z" fill="white"/>
<path d="M49.696 887.848C50.464 890.728 53.08 892.36 56.44 892.36C60.232 892.36 62.92 890.032 62.92 886.672C62.92 883.528 60.4 881.2 56.92 881.2C55.72 881.2 54.64 881.488 53.68 882.064L53.632 882.04L54.208 879.016H61.24V875.872H51.616L50.056 884.416L53.2 885.256C54.112 884.392 55.192 883.96 56.416 883.96C58.216 883.96 59.488 885.064 59.488 886.624C59.488 888.136 58.192 889.24 56.44 889.24C54.616 889.24 53.464 888.424 52.984 886.768L49.696 887.848ZM70.8016 879.28V892H74.1136V884.296C74.1136 882.928 74.9056 882.04 76.1536 882.04C77.4016 882.04 78.1936 882.856 78.1936 884.224V892H81.3616V884.296C81.3616 882.928 82.1776 882.04 83.4256 882.04C84.6736 882.04 85.4656 882.856 85.4656 884.224V892H88.7776V883.576C88.7776 881.008 86.8816 878.92 84.0736 878.92C82.6816 878.92 81.5536 879.448 80.6656 880.48H80.6176C79.9456 879.496 78.6256 878.92 77.3536 878.92C76.0096 878.92 74.7136 879.472 74.0176 880.408H73.9696V879.28H70.8016ZM91.0281 879.28V892H94.4601V879.28H91.0281ZM90.9801 873.832V877.192H94.4601V873.832H90.9801ZM96.8406 879.28V892H100.273V884.464C100.273 883 101.137 882.088 102.577 882.088C104.041 882.088 104.881 882.952 104.881 884.464V892H108.313V883.864C108.313 882.352 107.881 881.152 107.017 880.264C106.177 879.376 105.049 878.92 103.657 878.92C102.241 878.92 100.897 879.472 100.153 880.408H100.105V879.28H96.8406ZM110.358 887.656C110.358 890.608 112.038 892.36 114.918 892.36C116.286 892.36 117.606 891.808 118.35 890.872H118.398V892H121.662V879.28H118.23V886.864C118.23 888.304 117.366 889.216 115.998 889.216C114.534 889.216 113.79 888.424 113.79 886.864V879.28H110.358V887.656ZM128.588 882.304H131.732V879.28H128.588V876.088H125.156V879.28H122.972V882.304H125.156V887.896C125.156 890.848 126.404 892 129.548 892H131.276V888.712H129.884C128.9 888.712 128.588 888.472 128.588 887.68V882.304ZM132.43 885.64C132.43 889.648 134.926 892.36 138.502 892.36C140.926 892.36 142.774 891.4 143.998 889.48L141.574 887.584C140.686 888.904 139.75 889.48 138.502 889.48C136.942 889.48 135.982 888.448 135.886 886.648H144.406V885.64C144.406 881.632 141.958 878.92 138.43 878.92C134.926 878.92 132.43 881.68 132.43 885.64ZM141.07 884.224H135.886C136.006 882.76 137.038 881.8 138.454 881.8C140.014 881.8 140.95 882.688 141.07 884.224ZM145.315 887.896C145.867 890.776 148.003 892.36 151.267 892.36C152.827 892.36 154.051 892 154.987 891.28C155.923 890.536 156.379 889.576 156.379 888.4C156.379 887.488 156.139 886.744 155.659 886.168C154.699 885.016 153.451 884.584 151.459 884.008C149.803 883.528 149.179 883.288 149.179 882.712C149.179 882.136 149.803 881.704 150.787 881.704C151.867 881.704 152.731 882.328 153.139 883.552L156.163 882.664C155.851 881.536 155.203 880.648 154.219 879.952C153.235 879.256 152.083 878.92 150.787 878.92C148.051 878.92 145.987 880.6 145.987 882.76C146.107 885.256 147.787 885.928 150.427 886.672C151.123 886.888 151.627 887.08 151.963 887.224C152.659 887.488 153.187 887.872 153.187 888.52C153.187 889.168 152.491 889.552 151.267 889.552C149.635 889.552 148.771 888.808 148.363 887.08L145.315 887.896Z" fill="#FFCB04"/>
<path d="M167.108 880.96H170.228V879.28H167.108V876.4H165.236V879.28H163.316V880.96H165.236V889.072C165.236 891.256 166.052 892 168.356 892H169.556V890.248H168.5C167.468 890.248 167.108 889.936 167.108 889.096V880.96ZM171.323 885.64C171.323 889.648 173.723 892.36 177.299 892.36C180.899 892.36 183.299 889.648 183.299 885.64C183.299 881.632 180.899 878.92 177.299 878.92C173.723 878.92 171.323 881.632 171.323 885.64ZM181.427 885.64C181.427 888.688 179.819 890.608 177.299 890.608C174.779 890.608 173.195 888.688 173.195 885.64C173.195 882.592 174.779 880.672 177.299 880.672C179.819 880.672 181.427 882.592 181.427 885.64ZM51.208 900.6V923H55.944V914.584H64.968V910.424H55.944V904.952H65.64V900.6H51.208ZM67.245 918.392C67.245 921.464 69.453 923.48 72.813 923.48C74.861 923.48 76.461 922.84 77.261 921.656H77.325V923H81.421V911.992C81.421 908.024 78.733 905.56 74.477 905.56C72.525 905.56 70.861 906.072 69.485 907.096C68.109 908.12 67.309 909.464 67.053 911.16L71.245 912.088C71.597 910.328 72.717 909.368 74.477 909.368C75.981 909.368 76.813 909.944 76.813 910.936C76.813 911.832 75.981 912.312 73.293 912.952C68.941 914.008 67.245 915.544 67.245 918.392ZM76.973 917.272C76.973 918.68 75.629 919.64 73.709 919.64C72.333 919.64 71.629 919.128 71.629 918.104C71.629 917.208 72.333 916.696 74.381 916.152C75.917 915.736 76.621 915.32 76.909 914.808H76.973V917.272ZM83.7718 914.52C83.7718 919.832 87.2278 923.48 91.9958 923.48C96.0918 923.48 99.0358 921.048 99.6438 917.208L95.3238 916.44C94.9718 918.328 93.8838 919.32 91.9958 919.32C89.7238 919.32 88.3478 917.56 88.3478 914.52C88.3478 911.48 89.7238 909.72 91.9958 909.72C93.8198 909.72 94.9718 910.712 95.3238 912.6L99.6438 911.832C99.0358 907.992 96.0918 905.56 91.9958 905.56C87.2278 905.56 83.7718 909.208 83.7718 914.52ZM101.718 917.208C101.718 921.144 103.958 923.48 107.798 923.48C109.622 923.48 111.382 922.744 112.374 921.496H112.438V923H116.79V906.04H112.214V916.152C112.214 918.072 111.062 919.288 109.238 919.288C107.286 919.288 106.294 918.232 106.294 916.152V906.04H101.718V917.208ZM119.975 899.64V923H124.551V899.64H119.975ZM133.773 910.072H137.965V906.04H133.773V901.784H129.197V906.04H126.285V910.072H129.197V917.528C129.197 921.464 130.861 923 135.053 923H137.357V918.616H135.501C134.189 918.616 133.773 918.296 133.773 917.24V910.072ZM145.091 922.136L141.763 930.2H146.467L156.227 906.04H151.523L147.427 916.792H147.363L143.299 906.04H138.562L145.091 922.136ZM164.334 914.52C164.334 919.832 167.758 923.48 172.718 923.48C177.71 923.48 181.134 919.864 181.134 914.52C181.134 909.176 177.71 905.56 172.718 905.56C167.758 905.56 164.334 909.208 164.334 914.52ZM176.558 914.52C176.558 917.56 175.15 919.32 172.718 919.32C170.318 919.32 168.91 917.56 168.91 914.52C168.91 911.48 170.318 909.72 172.718 909.72C175.15 909.72 176.558 911.48 176.558 914.52ZM185.206 910.072V923H189.782V910.072H194.326V906.04H189.782V904.76C189.782 903.96 190.198 903.576 191.03 903.576H193.622V899.512H190.422C187.094 899.512 185.206 901.272 185.206 904.312V906.04H181.91V910.072H185.206ZM49.608 946.608C50.408 951.728 53.736 954.48 59.08 954.48C63.976 954.48 67.336 951.888 67.336 948.016C67.336 946.192 66.728 944.72 65.544 943.536C64.36 942.352 62.376 941.296 59.592 940.336C56.264 939.216 55.304 938.576 55.304 937.424C55.304 936.176 56.456 935.376 58.216 935.376C60.264 935.376 61.512 936.432 62.12 938.704L66.728 937.712C66.024 933.776 62.6 931.12 58.216 931.12C53.768 931.12 50.632 933.712 50.632 937.456C50.632 939.088 51.176 940.464 52.264 941.52C53.352 942.576 55.208 943.536 57.8 944.4C61.544 945.68 62.6 946.448 62.6 948.016C62.6 949.424 61.352 950.224 59.144 950.224C56.168 950.224 54.856 948.944 54.248 945.616L49.608 946.608ZM68.8655 945.52C68.8655 950.832 72.3215 954.48 77.0895 954.48C81.1855 954.48 84.1295 952.048 84.7375 948.208L80.4175 947.44C80.0655 949.328 78.9775 950.32 77.0895 950.32C74.8175 950.32 73.4415 948.56 73.4415 945.52C73.4415 942.48 74.8175 940.72 77.0895 940.72C78.9135 940.72 80.0655 941.712 80.4175 943.6L84.7375 942.832C84.1295 938.992 81.1855 936.56 77.0895 936.56C72.3215 936.56 68.8655 940.208 68.8655 945.52ZM87.1313 937.04V954H91.7073V937.04H87.1313ZM87.0673 929.776V934.256H91.7073V929.776H87.0673ZM94.2093 945.52C94.2093 950.864 97.5373 954.48 102.305 954.48C105.537 954.48 108.001 953.2 109.633 950.64L106.401 948.112C105.217 949.872 103.969 950.64 102.305 950.64C100.225 950.64 98.9453 949.264 98.8173 946.864H110.177V945.52C110.177 940.176 106.913 936.56 102.209 936.56C97.5373 936.56 94.2093 940.24 94.2093 945.52ZM105.729 943.632H98.8173C98.9773 941.68 100.353 940.4 102.241 940.4C104.321 940.4 105.569 941.584 105.729 943.632ZM112.694 937.04V954H117.27V943.952C117.27 942 118.422 940.784 120.342 940.784C122.294 940.784 123.414 941.936 123.414 943.952V954H127.99V943.152C127.99 941.136 127.414 939.536 126.262 938.352C125.142 937.168 123.638 936.56 121.782 936.56C119.894 936.56 118.102 937.296 117.11 938.544H117.046V937.04H112.694ZM130.366 945.52C130.366 950.832 133.822 954.48 138.59 954.48C142.686 954.48 145.63 952.048 146.238 948.208L141.918 947.44C141.566 949.328 140.478 950.32 138.59 950.32C136.318 950.32 134.942 948.56 134.942 945.52C134.942 942.48 136.318 940.72 138.59 940.72C140.414 940.72 141.566 941.712 141.918 943.6L146.238 942.832C145.63 938.992 142.686 936.56 138.59 936.56C133.822 936.56 130.366 940.208 130.366 945.52ZM147.959 945.52C147.959 950.864 151.287 954.48 156.055 954.48C159.287 954.48 161.751 953.2 163.383 950.64L160.151 948.112C158.967 949.872 157.719 950.64 156.055 950.64C153.975 950.64 152.695 949.264 152.567 946.864H163.927V945.52C163.927 940.176 160.663 936.56 155.959 936.56C151.287 936.56 147.959 940.24 147.959 945.52ZM159.479 943.632H152.567C152.727 941.68 154.103 940.4 155.991 940.4C158.071 940.4 159.319 941.584 159.479 943.632Z" fill="white"/>
<path d="M319.2 915.28V928H322.632V921.16C322.632 919.312 323.4 918.328 324.864 918.328C325.32 918.328 325.776 918.4 326.28 918.52L326.856 915.256C326.352 915.112 325.8 915.04 325.2 915.04C323.976 915.04 323.04 915.544 322.464 916.408H322.416V915.28H319.2ZM328.177 915.28V928H331.609V915.28H328.177ZM328.129 909.832V913.192H331.609V909.832H328.129ZM334.061 930.784C335.285 932.632 337.469 933.76 339.869 933.76C343.541 933.76 345.917 931.552 345.917 928.024V915.28H342.605V916.288H342.557C341.789 915.496 340.589 915.04 339.173 915.04C335.885 915.04 333.485 917.848 333.485 921.616C333.485 925.48 335.885 928.336 339.173 928.336C340.589 928.336 341.957 927.76 342.557 926.968H342.605V927.904C342.605 929.656 341.597 930.736 339.893 930.736C338.525 930.736 337.637 930.208 336.653 928.84L334.061 930.784ZM342.485 922.528C342.485 924.088 341.381 925.192 339.821 925.192C337.997 925.192 336.917 923.848 336.917 921.616C336.917 919.432 337.997 918.16 339.821 918.16C341.357 918.16 342.485 919.264 342.485 920.824V922.528ZM348.169 910.48V928H351.601V920.464C351.601 919 352.465 918.088 353.905 918.088C355.369 918.088 356.209 918.952 356.209 920.464V928H359.641V919.624C359.641 916.84 357.721 914.92 354.985 914.92C353.617 914.92 352.345 915.472 351.649 916.408H351.601V910.48H348.169ZM366.228 918.304H369.372V915.28H366.228V912.088H362.796V915.28H360.612V918.304H362.796V923.896C362.796 926.848 364.044 928 367.188 928H368.916V924.712H367.524C366.54 924.712 366.228 924.472 366.228 923.68V918.304ZM376.051 924.544C376.051 926.848 377.707 928.36 380.227 928.36C381.763 928.36 382.963 927.88 383.563 926.992H383.611V928H386.683V919.744C386.683 916.768 384.667 914.92 381.475 914.92C380.011 914.92 378.763 915.304 377.731 916.072C376.699 916.84 376.099 917.848 375.907 919.12L379.051 919.816C379.315 918.496 380.155 917.776 381.475 917.776C382.603 917.776 383.227 918.208 383.227 918.952C383.227 919.624 382.603 919.984 380.587 920.464C377.323 921.256 376.051 922.408 376.051 924.544ZM383.347 923.704C383.347 924.76 382.339 925.48 380.899 925.48C379.867 925.48 379.339 925.096 379.339 924.328C379.339 923.656 379.867 923.272 381.403 922.864C382.555 922.552 383.083 922.24 383.299 921.856H383.347V923.704ZM388.446 921.64C388.446 925.624 391.038 928.36 394.614 928.36C397.686 928.36 399.894 926.536 400.35 923.656L397.11 923.08C396.846 924.496 396.03 925.24 394.614 925.24C392.91 925.24 391.878 923.92 391.878 921.64C391.878 919.36 392.91 918.04 394.614 918.04C395.982 918.04 396.846 918.784 397.11 920.2L400.35 919.624C399.894 916.744 397.686 914.92 394.614 914.92C391.038 914.92 388.446 917.656 388.446 921.64ZM402.145 915.28V928H405.577V921.16C405.577 919.312 406.345 918.328 407.809 918.328C408.265 918.328 408.721 918.4 409.225 918.52L409.801 915.256C409.297 915.112 408.745 915.04 408.145 915.04C406.921 915.04 405.985 915.544 405.409 916.408H405.361V915.28H402.145ZM409.915 921.64C409.915 925.624 412.483 928.36 416.203 928.36C419.947 928.36 422.515 925.648 422.515 921.64C422.515 917.632 419.947 914.92 416.203 914.92C412.483 914.92 409.915 917.656 409.915 921.64ZM419.083 921.64C419.083 923.92 418.027 925.24 416.203 925.24C414.403 925.24 413.347 923.92 413.347 921.64C413.347 919.36 414.403 918.04 416.203 918.04C418.027 918.04 419.083 919.36 419.083 921.64ZM423.433 923.896C423.985 926.776 426.121 928.36 429.385 928.36C430.945 928.36 432.169 928 433.105 927.28C434.041 926.536 434.497 925.576 434.497 924.4C434.497 923.488 434.257 922.744 433.777 922.168C432.817 921.016 431.569 920.584 429.577 920.008C427.921 919.528 427.297 919.288 427.297 918.712C427.297 918.136 427.921 917.704 428.905 917.704C429.985 917.704 430.849 918.328 431.257 919.552L434.281 918.664C433.969 917.536 433.321 916.648 432.337 915.952C431.353 915.256 430.201 914.92 428.905 914.92C426.169 914.92 424.105 916.6 424.105 918.76C424.225 921.256 425.905 921.928 428.545 922.672C429.241 922.888 429.745 923.08 430.081 923.224C430.777 923.488 431.305 923.872 431.305 924.52C431.305 925.168 430.609 925.552 429.385 925.552C427.753 925.552 426.889 924.808 426.481 923.08L423.433 923.896ZM435.198 923.896C435.75 926.776 437.886 928.36 441.15 928.36C442.71 928.36 443.934 928 444.87 927.28C445.806 926.536 446.262 925.576 446.262 924.4C446.262 923.488 446.022 922.744 445.542 922.168C444.582 921.016 443.334 920.584 441.342 920.008C439.686 919.528 439.062 919.288 439.062 918.712C439.062 918.136 439.686 917.704 440.67 917.704C441.75 917.704 442.614 918.328 443.022 919.552L446.046 918.664C445.734 917.536 445.086 916.648 444.102 915.952C443.118 915.256 441.966 914.92 440.67 914.92C437.934 914.92 435.87 916.6 435.87 918.76C435.99 921.256 437.67 921.928 440.31 922.672C441.006 922.888 441.51 923.08 441.846 923.224C442.542 923.488 443.07 923.872 443.07 924.52C443.07 925.168 442.374 925.552 441.15 925.552C439.518 925.552 438.654 924.808 438.246 923.08L435.198 923.896Z" fill="#FFCB04"/>
<path d="M320.048 951.608C320.048 956.568 323.248 959.48 328.656 959.48C334.064 959.48 337.264 956.568 337.264 951.608V936.6H332.528V951.352C332.528 953.912 331.248 955.16 328.656 955.16C326.064 955.16 324.784 953.88 324.784 951.288V936.6H320.048V951.608ZM340.913 942.04V959H345.489V948.952C345.489 947 346.641 945.784 348.561 945.784C350.513 945.784 351.633 946.936 351.633 948.952V959H356.208V948.152C356.208 946.136 355.633 944.536 354.481 943.352C353.361 942.168 351.857 941.56 350.001 941.56C348.113 941.56 346.321 942.296 345.329 943.544H345.265V942.04H340.913ZM359.256 942.04V959H363.832V942.04H359.256ZM359.192 934.776V939.256H363.832V934.776H359.192ZM365.406 942.04L372.478 959H376.702L383.774 942.04H378.91L374.622 953.016H374.558L370.27 942.04H365.406ZM383.772 950.52C383.772 955.864 387.1 959.48 391.868 959.48C395.1 959.48 397.564 958.2 399.196 955.64L395.964 953.112C394.78 954.872 393.532 955.64 391.868 955.64C389.788 955.64 388.508 954.264 388.38 951.864H399.74V950.52C399.74 945.176 396.476 941.56 391.772 941.56C387.1 941.56 383.772 945.24 383.772 950.52ZM395.292 948.632H388.38C388.54 946.68 389.916 945.4 391.804 945.4C393.884 945.4 395.132 946.584 395.292 948.632ZM402.256 942.04V959H406.832V949.88C406.832 947.416 407.856 946.104 409.808 946.104C410.416 946.104 411.024 946.2 411.696 946.36L412.464 942.008C411.792 941.816 411.056 941.72 410.256 941.72C408.624 941.72 407.376 942.392 406.608 943.544H406.544V942.04H402.256ZM412.296 953.528C413.032 957.368 415.88 959.48 420.232 959.48C422.312 959.48 423.944 959 425.192 958.04C426.44 957.048 427.048 955.768 427.048 954.2C427.048 952.984 426.728 951.992 426.088 951.224C424.808 949.688 423.144 949.112 420.488 948.344C418.28 947.704 417.448 947.384 417.448 946.616C417.448 945.848 418.28 945.272 419.592 945.272C421.032 945.272 422.184 946.104 422.728 947.736L426.76 946.552C426.344 945.048 425.48 943.864 424.168 942.936C422.856 942.008 421.32 941.56 419.592 941.56C415.944 941.56 413.192 943.8 413.192 946.68C413.352 950.008 415.592 950.904 419.112 951.896C420.04 952.184 420.712 952.44 421.16 952.632C422.088 952.984 422.792 953.496 422.792 954.36C422.792 955.224 421.864 955.736 420.232 955.736C418.056 955.736 416.904 954.744 416.36 952.44L412.296 953.528ZM429.256 942.04V959H433.832V942.04H429.256ZM429.192 934.776V939.256H433.832V934.776H429.192ZM443.054 946.072H447.246V942.04H443.054V937.784H438.478V942.04H435.566V946.072H438.478V953.528C438.478 957.464 440.142 959 444.334 959H446.638V954.616H444.782C443.47 954.616 443.054 954.296 443.054 953.24V946.072ZM454.372 958.136L451.044 966.2H455.748L465.508 942.04H460.804L456.708 952.792H456.644L452.58 942.04H447.844L454.372 958.136ZM475.864 936.6V959H480.6V949.688H487.864V959H492.6V936.6H487.864V945.368H480.6V936.6H475.864ZM495.964 954.392C495.964 957.464 498.172 959.48 501.532 959.48C503.58 959.48 505.18 958.84 505.98 957.656H506.044V959H510.14V947.992C510.14 944.024 507.452 941.56 503.196 941.56C501.244 941.56 499.58 942.072 498.204 943.096C496.828 944.12 496.028 945.464 495.772 947.16L499.964 948.088C500.316 946.328 501.436 945.368 503.196 945.368C504.7 945.368 505.532 945.944 505.532 946.936C505.532 947.832 504.7 948.312 502.012 948.952C497.66 950.008 495.964 951.544 495.964 954.392ZM505.692 953.272C505.692 954.68 504.348 955.64 502.428 955.64C501.052 955.64 500.348 955.128 500.348 954.104C500.348 953.208 501.052 952.696 503.1 952.152C504.636 951.736 505.34 951.32 505.628 950.808H505.692V953.272ZM513.163 935.64V959H517.739V935.64H513.163ZM520.913 935.64V959H525.489V935.64H520.913Z" fill="white"/>
<path d="M321.584 1273.57V1286H325.016V1269.87H321.8L317.576 1272.34V1275.92L321.584 1273.57ZM327.727 1281.85C328.495 1284.73 331.111 1286.36 334.471 1286.36C338.263 1286.36 340.951 1284.03 340.951 1280.67C340.951 1277.53 338.431 1275.2 334.951 1275.2C333.751 1275.2 332.671 1275.49 331.711 1276.06L331.663 1276.04L332.239 1273.02H339.271V1269.87H329.647L328.087 1278.42L331.231 1279.26C332.143 1278.39 333.223 1277.96 334.447 1277.96C336.247 1277.96 337.519 1279.06 337.519 1280.62C337.519 1282.14 336.223 1283.24 334.471 1283.24C332.647 1283.24 331.495 1282.42 331.015 1280.77L327.727 1281.85ZM348.833 1273.28V1286H352.145V1278.3C352.145 1276.93 352.937 1276.04 354.185 1276.04C355.433 1276.04 356.225 1276.86 356.225 1278.22V1286H359.393V1278.3C359.393 1276.93 360.209 1276.04 361.457 1276.04C362.705 1276.04 363.497 1276.86 363.497 1278.22V1286H366.809V1277.58C366.809 1275.01 364.913 1272.92 362.105 1272.92C360.713 1272.92 359.585 1273.45 358.697 1274.48H358.649C357.977 1273.5 356.657 1272.92 355.385 1272.92C354.041 1272.92 352.745 1273.47 352.049 1274.41H352.001V1273.28H348.833ZM369.059 1273.28V1286H372.491V1273.28H369.059ZM369.011 1267.83V1271.19H372.491V1267.83H369.011ZM374.872 1273.28V1286H378.304V1278.46C378.304 1277 379.168 1276.09 380.608 1276.09C382.072 1276.09 382.912 1276.95 382.912 1278.46V1286H386.344V1277.86C386.344 1276.35 385.912 1275.15 385.048 1274.26C384.208 1273.38 383.08 1272.92 381.688 1272.92C380.272 1272.92 378.928 1273.47 378.184 1274.41H378.136V1273.28H374.872ZM388.39 1281.66C388.39 1284.61 390.07 1286.36 392.95 1286.36C394.318 1286.36 395.638 1285.81 396.382 1284.87H396.43V1286H399.694V1273.28H396.262V1280.86C396.262 1282.3 395.398 1283.22 394.03 1283.22C392.566 1283.22 391.822 1282.42 391.822 1280.86V1273.28H388.39V1281.66ZM406.619 1276.3H409.763V1273.28H406.619V1270.09H403.187V1273.28H401.003V1276.3H403.187V1281.9C403.187 1284.85 404.435 1286 407.579 1286H409.307V1282.71H407.915C406.931 1282.71 406.619 1282.47 406.619 1281.68V1276.3ZM410.462 1279.64C410.462 1283.65 412.958 1286.36 416.534 1286.36C418.958 1286.36 420.806 1285.4 422.03 1283.48L419.606 1281.58C418.718 1282.9 417.782 1283.48 416.534 1283.48C414.974 1283.48 414.014 1282.45 413.918 1280.65H422.438V1279.64C422.438 1275.63 419.99 1272.92 416.462 1272.92C412.958 1272.92 410.462 1275.68 410.462 1279.64ZM419.102 1278.22H413.918C414.038 1276.76 415.07 1275.8 416.486 1275.8C418.046 1275.8 418.982 1276.69 419.102 1278.22ZM423.347 1281.9C423.899 1284.78 426.035 1286.36 429.299 1286.36C430.859 1286.36 432.083 1286 433.019 1285.28C433.955 1284.54 434.411 1283.58 434.411 1282.4C434.411 1281.49 434.171 1280.74 433.691 1280.17C432.731 1279.02 431.483 1278.58 429.491 1278.01C427.835 1277.53 427.211 1277.29 427.211 1276.71C427.211 1276.14 427.835 1275.7 428.819 1275.7C429.899 1275.7 430.763 1276.33 431.171 1277.55L434.195 1276.66C433.883 1275.54 433.235 1274.65 432.251 1273.95C431.267 1273.26 430.115 1272.92 428.819 1272.92C426.083 1272.92 424.019 1274.6 424.019 1276.76C424.139 1279.26 425.819 1279.93 428.459 1280.67C429.155 1280.89 429.659 1281.08 429.995 1281.22C430.691 1281.49 431.219 1281.87 431.219 1282.52C431.219 1283.17 430.523 1283.55 429.299 1283.55C427.667 1283.55 426.803 1282.81 426.395 1281.08L423.347 1281.9Z" fill="#FFCB04"/>
<path d="M445.139 1274.96H448.259V1273.28H445.139V1270.4H443.267V1273.28H441.347V1274.96H443.267V1283.07C443.267 1285.26 444.083 1286 446.387 1286H447.587V1284.25H446.531C445.499 1284.25 445.139 1283.94 445.139 1283.1V1274.96ZM449.354 1279.64C449.354 1283.65 451.754 1286.36 455.33 1286.36C458.93 1286.36 461.33 1283.65 461.33 1279.64C461.33 1275.63 458.93 1272.92 455.33 1272.92C451.754 1272.92 449.354 1275.63 449.354 1279.64ZM459.458 1279.64C459.458 1282.69 457.85 1284.61 455.33 1284.61C452.81 1284.61 451.226 1282.69 451.226 1279.64C451.226 1276.59 452.81 1274.67 455.33 1274.67C457.85 1274.67 459.458 1276.59 459.458 1279.64ZM319.208 1294.6V1317H323.944V1310.38L325.864 1308.04H325.928L332.072 1317H337.704L328.84 1304.52L337.064 1294.6H331.528L324.008 1303.75H323.944V1294.6H319.208ZM337.709 1308.52C337.709 1313.86 341.037 1317.48 345.805 1317.48C349.037 1317.48 351.501 1316.2 353.133 1313.64L349.901 1311.11C348.717 1312.87 347.469 1313.64 345.805 1313.64C343.725 1313.64 342.445 1312.26 342.317 1309.86H353.677V1308.52C353.677 1303.18 350.413 1299.56 345.709 1299.56C341.037 1299.56 337.709 1303.24 337.709 1308.52ZM349.229 1306.63H342.317C342.477 1304.68 343.853 1303.4 345.741 1303.4C347.821 1303.4 349.069 1304.58 349.229 1306.63ZM356.194 1300.04V1317H360.77V1306.95C360.77 1305 361.922 1303.78 363.842 1303.78C365.794 1303.78 366.914 1304.94 366.914 1306.95V1317H371.49V1306.15C371.49 1304.14 370.914 1302.54 369.762 1301.35C368.642 1300.17 367.138 1299.56 365.282 1299.56C363.394 1299.56 361.602 1300.3 360.61 1301.54H360.546V1300.04H356.194ZM380.273 1304.07H384.465V1300.04H380.273V1295.78H375.697V1300.04H372.785V1304.07H375.697V1311.53C375.697 1315.46 377.361 1317 381.553 1317H383.857V1312.62H382.001C380.689 1312.62 380.273 1312.3 380.273 1311.24V1304.07ZM412.355 1317L407.811 1308.62V1308.58C410.595 1307.53 412.195 1305.06 412.195 1301.83C412.195 1297.35 409.283 1294.6 404.547 1294.6H395.427V1317H400.163V1309.13H403.043L407.267 1317H412.355ZM403.971 1304.81H400.163V1298.92H403.971C406.307 1298.92 407.459 1299.88 407.459 1301.8C407.459 1303.75 406.243 1304.81 403.971 1304.81ZM414.756 1300.04V1317H419.332V1300.04H414.756ZM414.692 1292.78V1297.26H419.332V1292.78H414.692ZM421.834 1308.52C421.834 1313.67 425.034 1317.48 429.418 1317.48C431.37 1317.48 433.098 1316.65 434.09 1315.5H434.154V1317H438.378V1293.64H433.802V1301.06H433.738C432.682 1300.07 431.242 1299.56 429.418 1299.56C425.034 1299.56 421.834 1303.37 421.834 1308.52ZM433.802 1309.74C433.802 1311.78 432.33 1313.29 430.282 1313.29C427.818 1313.29 426.41 1311.56 426.41 1308.52C426.41 1305.48 427.818 1303.75 430.282 1303.75C432.33 1303.75 433.802 1305.22 433.802 1307.3V1309.74ZM441.665 1320.71C443.297 1323.18 446.209 1324.68 449.409 1324.68C454.305 1324.68 457.473 1321.74 457.473 1317.03V1300.04H453.057V1301.38H452.993C451.969 1300.33 450.369 1299.72 448.481 1299.72C444.097 1299.72 440.897 1303.46 440.897 1308.49C440.897 1313.64 444.097 1317.45 448.481 1317.45C450.369 1317.45 452.193 1316.68 452.993 1315.62H453.057V1316.87C453.057 1319.21 451.713 1320.65 449.441 1320.65C447.617 1320.65 446.433 1319.94 445.121 1318.12L441.665 1320.71ZM452.897 1309.7C452.897 1311.78 451.425 1313.26 449.345 1313.26C446.913 1313.26 445.473 1311.46 445.473 1308.49C445.473 1305.58 446.913 1303.88 449.345 1303.88C451.393 1303.88 452.897 1305.35 452.897 1307.43V1309.7ZM459.803 1308.52C459.803 1313.86 463.131 1317.48 467.899 1317.48C471.131 1317.48 473.595 1316.2 475.227 1313.64L471.995 1311.11C470.811 1312.87 469.563 1313.64 467.899 1313.64C465.819 1313.64 464.539 1312.26 464.411 1309.86H475.771V1308.52C475.771 1303.18 472.507 1299.56 467.803 1299.56C463.131 1299.56 459.803 1303.24 459.803 1308.52ZM471.323 1306.63H464.411C464.571 1304.68 465.947 1303.4 467.835 1303.4C469.915 1303.4 471.163 1304.58 471.323 1306.63ZM319.208 1325.6V1348H323.848V1334.18H323.912L329.736 1348H331.784L337.64 1334.18H337.704V1348H342.344V1325.6H337.096L330.792 1340.67H330.728L324.456 1325.6H319.208ZM363.699 1348L359.155 1339.62V1339.58C361.939 1338.53 363.539 1336.06 363.539 1332.83C363.539 1328.35 360.627 1325.6 355.891 1325.6H346.771V1348H351.507V1340.13H354.387L358.611 1348H363.699ZM355.315 1335.81H351.507V1329.92H355.315C357.651 1329.92 358.803 1330.88 358.803 1332.8C358.803 1334.75 357.587 1335.81 355.315 1335.81ZM371.17 1329.95V1348H375.906V1329.95H382.37V1325.6H364.674V1329.95H371.17ZM391.889 1340.61C392.689 1345.73 396.017 1348.48 401.361 1348.48C406.257 1348.48 409.617 1345.89 409.617 1342.02C409.617 1340.19 409.009 1338.72 407.825 1337.54C406.641 1336.35 404.657 1335.3 401.873 1334.34C398.545 1333.22 397.585 1332.58 397.585 1331.42C397.585 1330.18 398.737 1329.38 400.497 1329.38C402.545 1329.38 403.793 1330.43 404.401 1332.7L409.009 1331.71C408.305 1327.78 404.881 1325.12 400.497 1325.12C396.049 1325.12 392.913 1327.71 392.913 1331.46C392.913 1333.09 393.457 1334.46 394.545 1335.52C395.633 1336.58 397.489 1337.54 400.081 1338.4C403.825 1339.68 404.881 1340.45 404.881 1342.02C404.881 1343.42 403.633 1344.22 401.425 1344.22C398.449 1344.22 397.137 1342.94 396.529 1339.62L391.889 1340.61ZM417.867 1335.07H422.059V1331.04H417.867V1326.78H413.291V1331.04H410.379V1335.07H413.291V1342.53C413.291 1346.46 414.955 1348 419.147 1348H421.451V1343.62H419.595C418.283 1343.62 417.867 1343.3 417.867 1342.24V1335.07ZM423.183 1343.39C423.183 1346.46 425.391 1348.48 428.751 1348.48C430.799 1348.48 432.399 1347.84 433.199 1346.66H433.263V1348H437.359V1336.99C437.359 1333.02 434.671 1330.56 430.415 1330.56C428.463 1330.56 426.799 1331.07 425.423 1332.1C424.047 1333.12 423.247 1334.46 422.991 1336.16L427.183 1337.09C427.535 1335.33 428.655 1334.37 430.415 1334.37C431.919 1334.37 432.751 1334.94 432.751 1335.94C432.751 1336.83 431.919 1337.31 429.231 1337.95C424.879 1339.01 423.183 1340.54 423.183 1343.39ZM432.911 1342.27C432.911 1343.68 431.567 1344.64 429.647 1344.64C428.271 1344.64 427.567 1344.13 427.567 1343.1C427.567 1342.21 428.271 1341.7 430.319 1341.15C431.855 1340.74 432.559 1340.32 432.847 1339.81H432.911V1342.27ZM446.117 1335.07H450.309V1331.04H446.117V1326.78H441.541V1331.04H438.629V1335.07H441.541V1342.53C441.541 1346.46 443.205 1348 447.397 1348H449.701V1343.62H447.845C446.533 1343.62 446.117 1343.3 446.117 1342.24V1335.07ZM452.506 1331.04V1348H457.082V1331.04H452.506ZM452.442 1323.78V1328.26H457.082V1323.78H452.442ZM459.584 1339.52C459.584 1344.83 463.008 1348.48 467.968 1348.48C472.96 1348.48 476.384 1344.86 476.384 1339.52C476.384 1334.18 472.96 1330.56 467.968 1330.56C463.008 1330.56 459.584 1334.21 459.584 1339.52ZM471.808 1339.52C471.808 1342.56 470.4 1344.32 467.968 1344.32C465.568 1344.32 464.16 1342.56 464.16 1339.52C464.16 1336.48 465.568 1334.72 467.968 1334.72C470.4 1334.72 471.808 1336.48 471.808 1339.52ZM478.913 1331.04V1348H483.489V1337.95C483.489 1336 484.641 1334.78 486.561 1334.78C488.513 1334.78 489.633 1335.94 489.633 1337.95V1348H494.208V1337.15C494.208 1335.14 493.633 1333.54 492.481 1332.35C491.361 1331.17 489.857 1330.56 488.001 1330.56C486.113 1330.56 484.321 1331.3 483.329 1332.54H483.265V1331.04H478.913Z" fill="white"/>
<path d="M537 483.5L504 510.5L483.5 548L483.5 649.5M537 483.5L568.5 483.5L593 459L627.5 449.5L684.5 433L710 405L723.5 389.5M537 483.5L531 433C513 422.5 476.2 400.9 473 398.5C469.8 396.1 443.333 376.167 430.5 366.5L391 312.5L355 255.5M723.5 389.5L753.5 433L800.5 449.5L963 382M723.5 389.5L764 352L784 269M483.5 649.5L459.5 662L504 702M483.5 649.5L526 658.75L568.5 668M784 269L837.5 274.5M784 269L778.5 227.5L778.5 116L800.5 28" stroke="#FFCB04" stroke-width="4"/>
<path d="M461.5 599L461.5 638.5L453.5 708L422 708L399 747.5L382.5 785.5L341.5 794.5L319 846L229.5 785.5L264 679.5L294.5 679.5L306.5 638.5L328 638.5L341.5 611L382.5 611L399 582.5L461.5 599Z" stroke="#00FFFF" stroke-width="4" stroke-linecap="square" stroke-linejoin="round" stroke-dasharray="5 10"/>
</g>
<defs>
<clipPath id="clip0">
<rect x="999.5" y="0.5" width="1382" height="999" rx="20" transform="rotate(90 999.5 0.5)" fill="white"/>
</clipPath>
</defs>
</svg>
