<svg xmlns="http://www.w3.org/2000/svg" viewBox="0 0 875.46 395.12"><defs><style>.cls-1{fill:#fff;}</style></defs><g id="Layer_2" data-name="Layer 2"><g id="Layer_7" data-name="Layer 7"><path class="cls-1" d="M392.94,94.11h31.17c30.95,0,67.9-1,67.9,39,0,16.92-11.36,31-29.72,33.43V167c7.84.62,12.38,8.46,15.27,14.86l23.11,56.34H468.48l-17.34-45c-4.13-10.73-7.84-14.86-20-14.86h-9.29v59.85H392.94Zm28.89,61.51h9.5c14.24,0,30.54-2.07,30.54-20,0-17.34-16.1-18.78-30.54-18.78h-9.5Z"/><path class="cls-1" d="M500.28,94.11h31l36.95,113.1h.41l36.53-113.1h28.69l-48.5,144.06h-35.5Z"/><path class="cls-1" d="M647.81,94.11H679c31,0,67.9-1,67.9,39,0,16.92-11.35,31-29.72,33.43V167c7.84.62,12.38,8.46,15.27,14.86l23.12,56.34h-32.2l-17.34-45c-4.12-10.73-7.84-14.86-20-14.86h-9.29v59.85h-28.9Zm28.9,61.51h9.49c14.24,0,30.55-2.07,30.55-20,0-17.34-16.1-18.78-30.55-18.78h-9.49Z"/><path class="cls-1" d="M874.83,236.11c-10.52,2.47-21.87,4.54-32.81,4.54-46.65,0-79-23.33-79-72,0-49.33,30.13-77,79-77a95.38,95.38,0,0,1,32.61,6L872.56,122c-10.94-6.2-20.84-7.64-31.16-7.64-29.72,0-48.3,22.7-48.3,52.21,0,29.31,18.17,51.39,48.92,51.39,11.35,0,24.76-2.47,31.57-6Z"/><path class="cls-1" d="M393.14,271h5.14c5.1,0,11.19-.17,11.19,6.42a5.42,5.42,0,0,1-4.9,5.51V283c1.29.1,2,1.4,2.52,2.45l3.81,9.29h-5.31l-2.86-7.42c-.68-1.77-1.29-2.45-3.3-2.45H397.9v9.87h-4.76Zm4.76,10.13h1.57c2.34,0,5-.34,5-3.3s-2.65-3.09-5-3.09H397.9Z"/><path class="cls-1" d="M413.65,269.69h4.55V274h-4.55Zm0,7.55h4.55v17.52h-4.55Z"/><path class="cls-1" d="M434.4,292.78h-.06a6.53,6.53,0,0,1-5.38,2.38c-5.37,0-7.35-4.42-7.35-9.21s2-9.12,7.35-9.12a6.22,6.22,0,0,1,5.24,2.45h.07v-10h4.55v25.51H434.4Zm-4.18-1.15c3,0,4-3.2,4-5.68s-1.15-5.58-4.08-5.58-3.77,3.23-3.77,5.58S427.23,291.63,430.22,291.63Z"/><path class="cls-1" d="M459.36,277.24v15.82c0,4.76-1.91,9.25-9.26,9.25a15.37,15.37,0,0,1-6.05-1.19l.37-3.88a13.17,13.17,0,0,0,5.11,1.53c5,0,5.27-3.78,5.27-6.8h-.07a6.27,6.27,0,0,1-5.44,2.79c-5.17,0-7.15-4.15-7.15-8.85,0-4.21,2.18-9.08,7.42-9.08a5.81,5.81,0,0,1,5.37,2.79H455v-2.38Zm-4.56,8.57c0-3-1.16-5.44-3.81-5.44-3.1,0-4.08,2.86-4.08,5.54,0,2.38,1.26,5.31,3.87,5.31C453.64,291.22,454.8,288.74,454.8,285.81Z"/><path class="cls-1" d="M477.84,293.77a12,12,0,0,1-6,1.39c-5.78,0-9.14-3.33-9.14-9.08,0-5.06,2.68-9.25,8.12-9.25,6.5,0,8.34,4.46,8.34,10.58H467c.2,2.82,2.18,4.42,5,4.42a11.72,11.72,0,0,0,5.81-1.77Zm-3.06-9.49c-.13-2.21-1.15-4.11-3.7-4.11s-3.85,1.76-4.05,4.11Z"/><path class="cls-1" d="M489.82,271h5.1L501,289.66h.07l6-18.64h4.73l-8,23.74H498Z"/><path class="cls-1" d="M514.35,269.69h4.55V274h-4.55Zm0,7.55h4.55v17.52h-4.55Z"/><path class="cls-1" d="M537.39,293.77a12,12,0,0,1-6,1.39c-5.78,0-9.15-3.33-9.15-9.08,0-5.06,2.69-9.25,8.13-9.25,6.49,0,8.33,4.46,8.33,10.58H526.57c.21,2.82,2.18,4.42,5,4.42a11.75,11.75,0,0,0,5.82-1.77Zm-3.06-9.49c-.14-2.21-1.16-4.11-3.71-4.11s-3.84,1.76-4,4.11Z"/><path class="cls-1" d="M539.53,277.24h4.83l3.88,13h.07l3.53-13h5.31l3.81,13H561l3.64-13H569l-5.37,17.52h-5.38l-3.81-13.37h-.07l-3.74,13.37h-5.2Z"/><path class="cls-1" d="M580.86,271H586c5.1,0,11.19-.17,11.19,6.42a5.42,5.42,0,0,1-4.9,5.51V283c1.29.1,2,1.4,2.52,2.45l3.81,9.29h-5.31l-2.85-7.42c-.68-1.77-1.3-2.45-3.3-2.45h-1.53v9.87h-4.77Zm4.77,10.13h1.56c2.35,0,5-.34,5-3.3s-2.65-3.09-5-3.09h-1.56Z"/><path class="cls-1" d="M615.18,293.77a12,12,0,0,1-6,1.39c-5.78,0-9.15-3.33-9.15-9.08,0-5.06,2.69-9.25,8.13-9.25,6.5,0,8.33,4.46,8.33,10.58H604.36c.21,2.82,2.18,4.42,5,4.42a11.75,11.75,0,0,0,5.82-1.77Zm-3.06-9.49c-.14-2.21-1.16-4.11-3.71-4.11s-3.84,1.76-4,4.11Z"/><path class="cls-1" d="M630.24,280.91a11.27,11.27,0,0,0-4.08-.74c-1.22,0-2.68.44-2.68,1.93,0,2.79,7.92,1,7.92,7.35,0,4.08-3.64,5.71-7.35,5.71a20.56,20.56,0,0,1-5.17-.74l.28-3.74a10,10,0,0,0,4.49,1.15c1.15,0,3-.44,3-2.14,0-3.44-7.93-1.09-7.93-7.42,0-3.77,3.3-5.44,6.87-5.44a20.76,20.76,0,0,1,5,.65Z"/><path class="cls-1" d="M634.66,269.69h4.56V274h-4.56Zm0,7.55h4.56v17.52h-4.56Z"/><path class="cls-1" d="M655.42,292.78h-.07a6.5,6.5,0,0,1-5.37,2.38c-5.38,0-7.35-4.42-7.35-9.21s2-9.12,7.35-9.12a6.21,6.21,0,0,1,5.23,2.45h.07v-10h4.56v25.51h-4.42Zm-4.19-1.15c3,0,4-3.2,4-5.68s-1.16-5.58-4.08-5.58-3.78,3.23-3.78,5.58S648.24,291.63,651.23,291.63Z"/><path class="cls-1" d="M678.33,293.77a12,12,0,0,1-6,1.39c-5.78,0-9.15-3.33-9.15-9.08,0-5.06,2.69-9.25,8.13-9.25,6.49,0,8.33,4.46,8.33,10.58H667.51c.21,2.82,2.18,4.42,5,4.42a11.75,11.75,0,0,0,5.82-1.77Zm-3.06-9.49c-.14-2.21-1.16-4.11-3.71-4.11s-3.84,1.76-4,4.11Z"/><path class="cls-1" d="M682.89,277.24h4.32v2.38h.06a6.54,6.54,0,0,1,5.75-2.79c4.15,0,6,2.93,6,6.87v11.06h-4.55V285.4c0-2.14,0-5-3-5-3.3,0-4,3.57-4,5.82v8.57h-4.55Z"/><path class="cls-1" d="M704.55,280.57h-3.37v-3.33h3.37v-3.5l4.55-1.47v5h4v3.33h-4v8.17c0,1.49.41,2.89,2.15,2.89a4,4,0,0,0,2.07-.48l.14,3.61a12.11,12.11,0,0,1-3.37.4c-3.57,0-5.54-2.21-5.54-5.68Z"/><path class="cls-1" d="M716.05,269.69h4.56V274h-4.56Zm0,7.55h4.56v17.52h-4.56Z"/><path class="cls-1" d="M725.71,278.16a15.62,15.62,0,0,1,6.09-1.33c5.34,0,7.55,2.21,7.55,7.38v2.25c0,1.77,0,3.09.07,4.39s.1,2.55.2,3.91h-4a20.56,20.56,0,0,1-.2-2.62h-.07a6.25,6.25,0,0,1-5.41,3c-3.1,0-6.12-1.87-6.12-5.2a5.15,5.15,0,0,1,3-5,13.89,13.89,0,0,1,5.88-1h2.52c0-2.82-1.26-3.77-3.94-3.77a9.14,9.14,0,0,0-5.41,1.9Zm5.34,13.67a3.86,3.86,0,0,0,3.2-1.56,5.82,5.82,0,0,0,1-3.61h-2c-2,0-5.07.34-5.07,3C728.16,291.19,729.42,291.83,731.05,291.83Z"/><path class="cls-1" d="M743.51,269.25h4.56v25.51h-4.56Z"/><path class="cls-1" d="M779.67,294.42a24.65,24.65,0,0,1-5.41.74c-7.69,0-13-3.84-13-11.87s5-12.68,13-12.68a15.65,15.65,0,0,1,5.37,1l-.34,4a9.78,9.78,0,0,0-5.13-1.26c-4.9,0-8,3.74-8,8.6s3,8.47,8.06,8.47a13.2,13.2,0,0,0,5.2-1Z"/><path class="cls-1" d="M790.45,276.83c5.2,0,9.18,3.51,9.18,9.29,0,5-3.36,9-9.18,9s-9.15-4-9.15-9C781.3,280.34,785.28,276.83,790.45,276.83Zm0,14.8c3.5,0,4.42-3.13,4.42-6.06,0-2.68-1.43-5.2-4.42-5.2s-4.39,2.58-4.39,5.2C786.06,288.46,787,291.63,790.45,291.63Z"/><path class="cls-1" d="M803,269.25h4.55v25.51H803Z"/><path class="cls-1" d="M811.82,269.25h4.56v25.51h-4.56Z"/><path class="cls-1" d="M834.86,293.77a12,12,0,0,1-6,1.39c-5.78,0-9.15-3.33-9.15-9.08,0-5.06,2.69-9.25,8.13-9.25,6.5,0,8.33,4.46,8.33,10.58H824c.21,2.82,2.18,4.42,5,4.42a11.75,11.75,0,0,0,5.82-1.77Zm-3.06-9.49c-.14-2.21-1.16-4.11-3.71-4.11s-3.84,1.76-4.05,4.11Z"/><path class="cls-1" d="M855.68,277.24v15.82c0,4.76-1.9,9.25-9.25,9.25a15.34,15.34,0,0,1-6-1.19l.37-3.88a13.13,13.13,0,0,0,5.1,1.53c5,0,5.27-3.78,5.27-6.8h-.06a6.27,6.27,0,0,1-5.44,2.79c-5.17,0-7.15-4.15-7.15-8.85,0-4.21,2.18-9.08,7.42-9.08a5.81,5.81,0,0,1,5.37,2.79h.07v-2.38Zm-4.56,8.57c0-3-1.15-5.44-3.8-5.44-3.1,0-4.09,2.86-4.09,5.54,0,2.38,1.26,5.31,3.88,5.31C850,291.22,851.12,288.74,851.12,285.81Z"/><path class="cls-1" d="M874.17,293.77a12,12,0,0,1-6,1.39c-5.78,0-9.15-3.33-9.15-9.08,0-5.06,2.69-9.25,8.13-9.25,6.5,0,8.33,4.46,8.33,10.58h-12.1c.2,2.82,2.17,4.42,5,4.42a11.72,11.72,0,0,0,5.81-1.77Zm-3.06-9.49c-.14-2.21-1.16-4.11-3.71-4.11s-3.84,1.76-4,4.11Z"/><path class="cls-1" d="M361.88,25.05,181.11,0h-.05L.29,25.05S-.29,227.22.19,244.13c.15,23.23,8.47,45.3,24.74,65.6,12,15,28.54,29.11,49,41.8a333.15,333.15,0,0,0,71.71,32.79l35.43,10.8h0l35.43-10.8a333.17,333.17,0,0,0,71.7-32.79c20.47-12.69,36.95-26.75,49-41.8,16.26-20.3,24.58-42.37,24.74-65.6C362.47,227.22,361.88,25.05,361.88,25.05ZM352,244c-.11,21-7.7,41-22.55,59.53-11.34,14.16-27,27.47-46.48,39.56a322.38,322.38,0,0,1-69.35,31.73l-32.53,9.91h0l-32.52-9.91a322.58,322.58,0,0,1-69.36-31.73C59.7,331,44.06,317.65,32.72,303.49,17.86,285,10.28,264.92,10.17,244c-.49-16.13.08-210.22.08-210.22L181.06,10.07h.05L351.93,33.74S352.49,227.83,352,244Z"/><path class="cls-1" d="M337.55,46.3,181.1,24.63h0L24.62,46.3l0,13.36c-.13,40.34-.49,169.54,0,184C24.8,321.15,147.52,359.4,152.75,361l20,6.09h0l-.13-20.9c0-.35,0-.72,0-1.11v-5.21c0-5.31,0-12,0-18.71h0c0-1.85,0-3.7,0-5.52l.25-31c-.08-1.84-.19-3.64-.3-5.45h0c-.14-2.32-.32-4.6-.53-6.86l0-.35c-.2-2.16-.44-4.28-.7-6.38,0-.21,0-.43-.08-.64-.26-2-.55-4-.86-5.93,0-.3-.09-.59-.14-.88q-.47-2.81-1-5.53c-.08-.36-.15-.72-.22-1.08q-.54-2.61-1.14-5.14c-.1-.43-.2-.85-.31-1.27-.39-1.61-.81-3.2-1.25-4.76-.14-.49-.28-1-.42-1.44-.43-1.49-.89-3-1.36-4.41L164,232.9c-.47-1.37-.95-2.73-1.45-4.06-.22-.58-.45-1.15-.68-1.72-.49-1.26-1-2.51-1.53-3.73-.27-.62-.55-1.22-.83-1.83-.52-1.15-1-2.29-1.59-3.41-.33-.66-.67-1.3-1-2-.53-1-1.07-2.07-1.63-3.08-.39-.7-.81-1.37-1.21-2.06-.54-.93-1.08-1.86-1.65-2.76-.47-.74-1-1.46-1.45-2.18s-1.07-1.64-1.63-2.43-1.16-1.56-1.75-2.33-1-1.39-1.56-2.06c-.71-.9-1.46-1.75-2.2-2.62-.44-.51-.87-1.05-1.32-1.55-1.21-1.34-2.44-2.65-3.72-3.91l0,0c-25-24.82-54.39-24.88-55.68-24.84l-14.13.11h0l-1.08,14.09C64.68,221.82,74.3,254.93,96.42,279c.76.83,1.53,1.63,2.31,2.42a112.56,112.56,0,0,0,37.66,24.89l-.51-31.47,0-3.14a75.77,75.77,0,0,1-17-13.74c-12.94-14.15-19.89-33.4-20.76-57.36a56,56,0,0,1,14.3,8.32l0,0c1,.77,1.91,1.58,2.83,2.42l.95.92c.59.57,1.18,1.13,1.75,1.72.38.4.74.81,1.11,1.22s1,1.07,1.45,1.62.78,1,1.16,1.43.84,1.05,1.25,1.6.79,1.08,1.18,1.63.73,1,1.09,1.58.79,1.21,1.17,1.83.64,1,.95,1.55c.39.67.78,1.35,1.16,2l.81,1.51c.39.75.77,1.5,1.14,2.27.23.47.45,1,.67,1.43.39.84.77,1.68,1.14,2.54.18.41.34.84.51,1.26.39.95.78,1.91,1.15,2.89l.33.93c.4,1.12.8,2.24,1.17,3.4a1,1,0,0,1,0,.16,134.89,134.89,0,0,1,5.11,23.09c.3,2.22.57,4.47.8,6.78h0l.54,33.67h0c0,3.39-.07,7-.09,10.65v.34c0,1.67,0,3.33,0,5h0C106.9,310,55.34,280.81,55.34,243.48c0,0-.24-101.36,0-170.37L181.08,55.68h0L306.87,73.11c.2,69,0,170.37,0,170.37,0,37.33-51.56,66.54-86.45,80.86h0c0-1.65,0-3.33,0-5v-.18c0-3.67,0-7.34-.08-10.77l.54-33.67c.21-2.21.47-4.37.76-6.49h0a136.46,136.46,0,0,1,4.9-22.6c.1-.31.19-.62.29-.92.33-1,.68-2,1-3,.15-.44.3-.88.46-1.31.34-.9.7-1.79,1-2.67.21-.49.4-1,.61-1.48.35-.81.71-1.61,1.07-2.4.24-.53.49-1.05.74-1.57.35-.74.72-1.46,1.09-2.17.29-.55.57-1.08.87-1.62s.73-1.32,1.11-2,.66-1.1,1-1.63.76-1.2,1.14-1.78.75-1.1,1.13-1.63.76-1.08,1.15-1.6.85-1.09,1.28-1.63.75-.95,1.14-1.41,1-1.1,1.47-1.64.72-.82,1.09-1.2c.58-.6,1.17-1.17,1.77-1.73.31-.31.62-.63.94-.92.93-.84,1.87-1.66,2.83-2.43l0,0a56.16,56.16,0,0,1,14.29-8.32c-.86,24-7.82,43.21-20.76,57.36a75.55,75.55,0,0,1-17,13.74l-.05,3.14-.5,31.47a112.42,112.42,0,0,0,37.65-24.89c.78-.79,1.55-1.59,2.31-2.42,22.13-24,31.75-57.13,28.59-98.41l-1.08-14.09h0l-14.14-.11c-1.29,0-30.65,0-55.67,24.84a.08.08,0,0,0,0,0c-1.27,1.26-2.51,2.57-3.71,3.91-.46.5-.88,1-1.32,1.56-.75.86-1.49,1.71-2.21,2.61-.53.67-1,1.37-1.56,2.06s-1.18,1.54-1.74,2.33-1.09,1.61-1.64,2.43-1,1.44-1.44,2.18c-.57.9-1.11,1.83-1.66,2.76-.4.68-.81,1.36-1.2,2.06-.56,1-1.1,2-1.64,3.08-.33.65-.68,1.29-1,2-.55,1.11-1.07,2.26-1.59,3.4-.28.61-.56,1.22-.83,1.84-.53,1.22-1,2.47-1.54,3.73l-.67,1.71c-.51,1.34-1,2.69-1.45,4.06-.18.53-.37,1.06-.54,1.59-.48,1.44-.93,2.91-1.36,4.4l-.42,1.44c-.44,1.57-.86,3.15-1.26,4.76-.1.42-.2.85-.31,1.28q-.6,2.52-1.13,5.12c-.08.37-.15.73-.22,1.1-.36,1.81-.7,3.65-1,5.52-.05.29-.1.58-.14.88-.32,1.95-.61,3.92-.86,5.93,0,.21-.06.43-.08.64-.26,2.1-.5,4.22-.7,6.37l0,.36c-.37,4-.67,8.1-.83,12.32v.18h0l.24,30.85h0c0,1.82,0,3.68,0,5.55h0c0,4.86,0,9.77,0,14.13h0c0,1.54,0,3,0,4.38V340c0,.36,0,.72,0,1.07v1.36c0,.22,0,.43,0,.63v.58c0,.31,0,.61,0,.9v.5c0,.39,0,.77,0,1.12l-.13,20.9h0l20-6.09c5.23-1.59,127.94-39.84,128.17-117.29.49-14.5.12-143.7,0-184Z"/><path class="cls-1" d="M183.86,285.47h0v-.17c-1.1.1-2,.18-2.76.23h0c-.73,0-1.67-.13-2.76-.23v.1h0l-.23,30.28v.54c1.42.1,2.61.14,3,.12h.46l.68,0c.52,0,1.17-.05,1.88-.1v-.54Z"/></g></g></svg>